<svg xmlns="http://www.w3.org/2000/svg" version="1.1" xmlns:xlink="http://www.w3.org/1999/xlink" xmlns:svgjs="http://svgjs.dev/svgjs" width="1000" height="1000" viewBox="0 0 1000 1000"><rect width="1000" height="1000" fill="#ffffff"></rect><g transform="matrix(0.7,0,0,0.7,149.5757575757575,308.1966716266153)"><svg viewBox="0 0 396 217" data-background-color="#0080ff" preserveAspectRatio="xMidYMid meet" height="547" width="1000" xmlns="http://www.w3.org/2000/svg" xmlns:xlink="http://www.w3.org/1999/xlink"><g id="tight-bounds" transform="matrix(1,0,0,1,0.24000000000003752,0.20024094286888783)"><svg viewBox="0 0 395.5199999999999 216.59951811426222" height="216.59951811426222" width="395.5199999999999"><g><svg viewBox="0 0 397.4975999999999 217.68251570483352" height="216.59951811426222" width="395.5199999999999"><g><rect width="397.4975999999999" height="4.476832742156278" x="0" y="121.81923640313335" fill="#000000" opacity="1" stroke-width="0" stroke="transparent" fill-opacity="1" class="rect-r$-0" data-fill-palette-color="secondary" rx="1%" id="r$-0" data-palette-color="#ffffff"></rect></g><g transform="matrix(1,0,0,1,0.9887999999999693,138.0155265854893)"><svg viewBox="0 0 395.52 79.6669891193442" height="79.6669891193442" width="395.52"><g id="textblocktransform"><svg viewBox="0 0 395.52 79.6669891193442" height="79.6669891193442" width="395.52" id="textblock"><g><svg viewBox="0 0 395.52 49.6427313246568" height="49.6427313246568" width="395.52"><g transform="matrix(1,0,0,1,0,0)"><svg width="395.52" viewBox="1.2199999999999998 -33.94 273.85999999999996 34.379999999999995" height="49.6427313246568" data-palette-color="#ffffff"><path d="M1.22-15.72L1.22-15.72Q1.22-22.61 5.91-27.59 10.6-32.57 17.29-32.57L17.29-32.57Q22.61-32.57 28.47-31.15L28.47-31.15Q28.71-31.1 29.15-27.47 29.59-23.83 29.59-23.14L29.59-23.14Q29.59-22.75 28.71-22.75L28.71-22.75Q27.69-22.75 27.2-23L27.2-23Q26.95-23.93 26.42-24.9 25.88-25.88 24.8-27.1 23.73-28.32 21.83-29.08 19.92-29.83 17.53-29.83L17.53-29.83Q8.74-29.83 8.74-16.85L8.74-16.85Q8.74-13.18 9.69-10.03 10.64-6.88 13.06-4.59 15.48-2.29 19.09-2.29L19.09-2.29Q21.24-2.29 22.22-3.08L22.22-3.08Q22.75-3.52 22.75-4.54L22.75-4.54 22.75-7.62 22.75-7.96Q22.75-10.45 22.41-11.72L22.41-11.72Q22.02-13.04 19.19-13.04L19.19-13.04Q18.99-13.04 18.97-13.84 18.95-14.65 19.14-14.84L19.14-14.84Q20.02-14.79 21.46-14.72 22.9-14.65 24.1-14.6 25.29-14.55 26.42-14.55L26.42-14.55Q27.15-14.55 33.01-14.84L33.01-14.84Q33.15-14.4 33.15-13.87L33.15-13.87Q33.15-12.99 32.96-12.99L32.96-12.99Q31.84-12.99 30.37-12.26L30.37-12.26Q29.59-11.87 29.59-8.4L29.59-8.4 29.59-5.57Q29.59-4.69 29.74-4.25 29.88-3.81 29.88-3.71L29.88-3.71Q29.88-2.88 28.86-2.34L28.86-2.34Q27.05-1.42 26.05-1 25.05-0.59 22.49-0.07 19.92 0.44 16.75 0.44L16.75 0.44Q10.3 0.44 5.76-4.37 1.22-9.18 1.22-15.72ZM43.02-32.18L43.02-32.18Q45.16-32.18 50.58-32.3 56-32.42 58.79-32.42L58.79-32.42Q58.84-31.93 60.2-25.2L60.2-25.2Q59.96-24.95 59.08-24.95L59.08-24.95Q58.54-24.95 58.4-25.29L58.4-25.29Q57.47-27.15 55.47-28.47 53.46-29.79 51.56-29.79L51.56-29.79 49.7-29.79Q46.63-29.79 46.53-29.15L46.53-29.15Q46.29-27.98 46.29-25.34L46.29-25.34 46.29-17.82Q46.29-17.53 48.39-17.53L48.39-17.53 50.97-17.53Q54-17.53 54.29-17.72L54.29-17.72Q54.54-17.92 54.69-19.14L54.69-19.14Q54.78-19.87 54.98-20.56L54.98-20.56Q55.03-20.9 55.71-20.9L55.71-20.9Q56.54-20.9 56.78-20.65L56.78-20.65 56.78-11.43Q56.59-11.23 55.76-11.23L55.76-11.23Q55.12-11.23 54.98-11.62L54.98-11.62Q54.78-12.3 54.64-12.79 54.49-13.28 54.39-13.53 54.29-13.77 54.17-13.96 54.05-14.16 54-14.21 53.95-14.26 53.81-14.33 53.66-14.4 53.61-14.45L53.61-14.45Q52.98-14.84 49.8-14.84L49.8-14.84Q46.29-14.84 46.29-14.4L46.29-14.4 46.29-6.88Q46.29-4.54 46.68-3.42L46.68-3.42Q46.92-2.64 50-2.64L50-2.64 51.27-2.64Q54.29-2.64 56.74-3.91L56.74-3.91Q57.57-4.35 58.62-5.57 59.67-6.79 60.25-8.3L60.25-8.3Q60.3-8.59 60.94-8.59L60.94-8.59Q62.11-8.59 62.4-8.3L62.4-8.3Q60.01-1.56 59.76 0.1L59.76 0.1Q57.27 0.1 51.85 0 46.43-0.1 43.06-0.1L43.06-0.1 35.94 0.2Q35.74 0 35.74-0.63L35.74-0.63Q35.74-1.61 35.94-1.61L35.94-1.61Q36.52-1.61 37.77-1.95 39.01-2.29 39.16-2.69L39.16-2.69Q39.45-3.81 39.45-6.98L39.45-6.98 39.45-25.44Q39.45-28.13 39.16-29.25L39.16-29.25Q39.01-29.64 37.72-30.13 36.42-30.62 35.89-30.62L35.89-30.62Q35.69-30.62 35.69-31.49L35.69-31.49Q35.69-32.28 35.84-32.42L35.84-32.42Q39.74-32.18 43.02-32.18ZM92.18-14.11L92.18-25.59Q92.18-28.37 91.55-29.1L91.55-29.1Q91.11-29.64 89.72-30.08 88.33-30.52 87.74-30.52L87.74-30.52Q87.54-30.52 87.5-31.32 87.45-32.13 87.59-32.32L87.59-32.32Q92.08-31.93 94.04-31.93L94.04-31.93Q95.26-31.93 97.38-32.1 99.51-32.28 100.09-32.32L100.09-32.32Q100.29-31.93 100.29-31.45L100.29-31.45Q100.29-30.52 100.04-30.52L100.04-30.52Q97.36-30.52 95.99-28.91L95.99-28.91Q95.31-28.08 95.31-25.34L95.31-25.34 95.31-6.79Q95.31-5.03 95.5 0.05L95.5 0.05Q95.31 0.24 94.28 0.24L94.28 0.24Q93.7 0.24 92.77-0.88L92.77-0.88 72.9-25.59 72.9-6.88Q72.9-4.2 73.29-3.42L73.29-3.42Q73.73-2.59 75.34-2.12 76.95-1.66 77.68-1.66L77.68-1.66Q77.83-1.66 77.85-0.83 77.88 0 77.78 0.2L77.78 0.2Q77.34 0.2 74.9 0 72.46-0.2 71.19-0.2 69.92-0.2 67.96-0.02 66.01 0.15 65.13 0.2L65.13 0.2Q64.99 0.05 64.99-0.68L64.99-0.68Q64.99-1.61 65.13-1.61L65.13-1.61Q65.62-1.61 66.25-1.71 66.89-1.81 67.87-2.27 68.84-2.73 69.28-3.47L69.28-3.47Q69.77-4.25 69.77-7.03L69.77-7.03 69.77-26.22Q69.77-28.76 69.04-29.69L69.04-29.69Q68.79-30.03 67.33-30.27 65.86-30.52 65.18-30.52L65.18-30.52Q64.99-30.52 64.94-31.32 64.89-32.13 65.08-32.32L65.08-32.32Q65.86-32.28 68.18-32.1 70.5-31.93 71.77-31.93L71.77-31.93Q73.43-31.93 76.56-32.32L76.56-32.32Q77.39-30.66 79.8-27.51 82.22-24.37 86.03-19.73 89.84-15.09 92.08-12.11L92.08-12.11Q92.18-12.45 92.18-14.11L92.18-14.11ZM130.12-14.11L130.12-25.59Q130.12-28.37 129.48-29.1L129.48-29.1Q129.05-29.64 127.65-30.08 126.26-30.52 125.68-30.52L125.68-30.52Q125.48-30.52 125.43-31.32 125.38-32.13 125.53-32.32L125.53-32.32Q130.02-31.93 131.97-31.93L131.97-31.93Q133.2-31.93 135.32-32.1 137.44-32.28 138.03-32.32L138.03-32.32Q138.22-31.93 138.22-31.45L138.22-31.45Q138.22-30.52 137.98-30.52L137.98-30.52Q135.3-30.52 133.93-28.91L133.93-28.91Q133.24-28.08 133.24-25.34L133.24-25.34 133.24-6.79Q133.24-5.03 133.44 0.05L133.44 0.05Q133.24 0.24 132.22 0.24L132.22 0.24Q131.63 0.24 130.71-0.88L130.71-0.88 110.83-25.59 110.83-6.88Q110.83-4.2 111.22-3.42L111.22-3.42Q111.66-2.59 113.27-2.12 114.89-1.66 115.62-1.66L115.62-1.66Q115.76-1.66 115.79-0.83 115.81 0 115.72 0.2L115.72 0.2Q115.28 0.2 112.83 0 110.39-0.2 109.12-0.2 107.85-0.2 105.9-0.02 103.95 0.15 103.07 0.2L103.07 0.2Q102.92 0.05 102.92-0.68L102.92-0.68Q102.92-1.61 103.07-1.61L103.07-1.61Q103.56-1.61 104.19-1.71 104.83-1.81 105.8-2.27 106.78-2.73 107.22-3.47L107.22-3.47Q107.71-4.25 107.71-7.03L107.71-7.03 107.71-26.22Q107.71-28.76 106.97-29.69L106.97-29.69Q106.73-30.03 105.27-30.27 103.8-30.52 103.12-30.52L103.12-30.52Q102.92-30.52 102.87-31.32 102.82-32.13 103.02-32.32L103.02-32.32Q103.8-32.28 106.12-32.1 108.44-31.93 109.71-31.93L109.71-31.93Q111.37-31.93 114.49-32.32L114.49-32.32Q115.32-30.66 117.74-27.51 120.16-24.37 123.97-19.73 127.78-15.09 130.02-12.11L130.02-12.11Q130.12-12.45 130.12-14.11L130.12-14.11ZM144.47-6.74L144.47-25.49Q144.47-28.61 144.08-29.3L144.08-29.3Q143.84-29.69 142.71-30.1 141.59-30.52 141.05-30.52L141.05-30.52Q140.86-30.52 140.86-31.35L140.86-31.35Q140.86-32.23 140.96-32.32L140.96-32.32Q141.69-32.28 143.3-32.15 144.91-32.03 145.72-32.01 146.52-31.98 148.04-32.03L148.04-32.03Q149.01-32.03 154.87-32.32L154.87-32.32Q155.02-31.88 155.02-31.45L155.02-31.45Q155.02-30.52 154.82-30.52L154.82-30.52Q154.38-30.52 153.07-30.1 151.75-29.69 151.65-29.35L151.65-29.35Q151.5-28.76 151.41-27.71 151.31-26.66 151.31-25.93L151.31-25.93 151.31-25.2 151.31-7.13Q151.31-4.35 151.7-2.83L151.7-2.83Q151.8-2.49 153.04-2.05 154.29-1.61 154.73-1.61L154.73-1.61Q154.92-1.61 154.92-0.68L154.92-0.68Q154.92-0.1 154.82 0.2L154.82 0.2Q154.48 0.2 151.89 0 149.31-0.2 148.04-0.2L148.04-0.2Q146.72-0.2 144.18-0.02 141.64 0.15 140.96 0.2L140.96 0.2Q140.76 0 140.76-0.59L140.76-0.59Q140.76-1.61 140.91-1.61L140.91-1.61Q141.45-1.61 142.71-2.03 143.98-2.44 144.13-2.83L144.13-2.83Q144.47-4.15 144.47-6.74L144.47-6.74ZM164.98-32.18L164.98-32.18Q167.13-32.18 172.55-32.3 177.97-32.42 180.75-32.42L180.75-32.42Q180.8-31.93 182.17-25.2L182.17-25.2Q181.92-24.95 181.04-24.95L181.04-24.95Q180.51-24.95 180.36-25.29L180.36-25.29Q179.43-27.15 177.43-28.47 175.43-29.79 173.52-29.79L173.52-29.79 171.67-29.79Q168.59-29.79 168.49-29.15L168.49-29.15Q168.25-27.98 168.25-25.34L168.25-25.34 168.25-17.82Q168.25-17.53 170.35-17.53L170.35-17.53 172.94-17.53Q175.96-17.53 176.26-17.72L176.26-17.72Q176.5-17.92 176.65-19.14L176.65-19.14Q176.75-19.87 176.94-20.56L176.94-20.56Q176.99-20.9 177.67-20.9L177.67-20.9Q178.5-20.9 178.75-20.65L178.75-20.65 178.75-11.43Q178.55-11.23 177.72-11.23L177.72-11.23Q177.09-11.23 176.94-11.62L176.94-11.62Q176.75-12.3 176.6-12.79 176.45-13.28 176.35-13.53 176.26-13.77 176.13-13.96 176.01-14.16 175.96-14.21 175.92-14.26 175.77-14.33 175.62-14.4 175.57-14.45L175.57-14.45Q174.94-14.84 171.76-14.84L171.76-14.84Q168.25-14.84 168.25-14.4L168.25-14.4 168.25-6.88Q168.25-4.54 168.64-3.42L168.64-3.42Q168.88-2.64 171.96-2.64L171.96-2.64 173.23-2.64Q176.26-2.64 178.7-3.91L178.7-3.91Q179.53-4.35 180.58-5.57 181.63-6.79 182.21-8.3L182.21-8.3Q182.26-8.59 182.9-8.59L182.9-8.59Q184.07-8.59 184.36-8.3L184.36-8.3Q181.97-1.56 181.73 0.1L181.73 0.1Q179.24 0.1 173.82 0 168.4-0.1 165.03-0.1L165.03-0.1 157.9 0.2Q157.7 0 157.7-0.63L157.7-0.63Q157.7-1.61 157.9-1.61L157.9-1.61Q158.48-1.61 159.73-1.95 160.97-2.29 161.12-2.69L161.12-2.69Q161.41-3.81 161.41-6.98L161.41-6.98 161.41-25.44Q161.41-28.13 161.12-29.25L161.12-29.25Q160.97-29.64 159.68-30.13 158.39-30.62 157.85-30.62L157.85-30.62Q157.65-30.62 157.65-31.49L157.65-31.49Q157.65-32.28 157.8-32.42L157.8-32.42Q161.71-32.18 164.98-32.18ZM204.33-32.03L204.33-32.03Q205.3-32.03 211.16-32.32L211.16-32.32Q211.31-31.88 211.31-31.45L211.31-31.45Q211.31-30.52 211.12-30.52L211.12-30.52Q210.68-30.52 209.36-30.1 208.04-29.69 207.94-29.35L207.94-29.35Q207.6-28.03 207.6-25.44L207.6-25.44 207.6-6.93Q207.6-4.54 207.99-3.42L207.99-3.42Q208.23-2.64 211.31-2.64L211.31-2.64 212.58-2.64Q215.61-2.64 218.05-3.91L218.05-3.91Q218.88-4.35 219.93-5.57 220.98-6.79 221.56-8.3L221.56-8.3Q221.66-8.59 222.25-8.59L222.25-8.59Q223.42-8.59 223.71-8.3L223.71-8.3Q221.32-1.56 221.08 0.1L221.08 0.1Q218.29 0.1 212.38 0 206.48-0.1 204.38-0.1L204.38-0.1 197.25 0.2Q197.05 0 197.05-0.63L197.05-0.63Q197.05-1.61 197.25-1.61L197.25-1.61Q197.83-1.61 199.08-1.95 200.32-2.29 200.47-2.69L200.47-2.69Q200.76-3.81 200.76-6.98L200.76-6.98 200.76-25.63Q200.76-28.61 200.37-29.3L200.37-29.3Q200.13-29.69 199.01-30.1 197.88-30.52 197.35-30.52L197.35-30.52Q197.15-30.52 197.15-31.35L197.15-31.35Q197.15-32.23 197.25-32.32L197.25-32.32Q203.99-32.03 204.33-32.03ZM235.28-3.17L235.28-3.17Q236.55-3.17 237.26-3.78 237.97-4.39 237.97-5.27L237.97-5.27 237.97-10.21Q237.87-10.16 237.02-9.89 236.16-9.62 235.92-9.52 235.67-9.42 234.99-9.16 234.31-8.89 234.04-8.67 233.77-8.45 233.38-8.11 232.99-7.76 232.84-7.37 232.69-6.98 232.69-6.49L232.69-6.49Q232.69-4.74 233.45-3.96 234.21-3.17 235.28-3.17ZM237.24-21.92L237.24-21.92Q240.65-21.92 242.48-20.04 244.32-18.16 244.32-13.23L244.32-13.23 244.32-5.32Q244.32-3.66 245.49-3.66L245.49-3.66Q246.32-3.66 247.15-4.3L247.15-4.3Q247.49-4.1 247.49-3.56L247.49-3.56Q247.49-2.34 247.15-1.76L247.15-1.76Q246.46-1.12 244.93-0.42 243.39 0.29 242.02 0.29L242.02 0.29Q240.85 0.29 239.77-0.42 238.7-1.12 238.36-2.05L238.36-2.05Q238.31-2.05 237.97-1.78 237.63-1.51 237.09-1.17 236.55-0.83 235.84-0.49 235.14-0.15 234.16 0.1 233.18 0.34 232.21 0.34L232.21 0.34Q229.52 0.34 227.93-1.15 226.35-2.64 226.35-4.88L226.35-4.88Q226.35-6.2 226.96-7.3 227.57-8.4 228.37-9.11 229.18-9.81 230.55-10.42 231.91-11.04 232.89-11.35 233.87-11.67 235.4-12.08 236.94-12.5 237.53-12.7L237.53-12.7Q237.97-12.84 237.97-13.43L237.97-13.43 237.97-15.19Q237.97-19.19 235.53-19.19L235.53-19.19Q232.69-19.19 232.69-15.92L232.69-15.92Q232.69-14.84 231.82-14.33 230.94-13.82 229.86-13.82L229.86-13.82Q227.62-13.82 226.79-15.28L226.79-15.28Q226.79-17.77 230.08-19.85 233.38-21.92 237.24-21.92ZM264.33-21.83L264.33-21.83Q268.73-21.83 271.9-18.68 275.08-15.53 275.08-11.04L275.08-11.04Q275.08-6.15 271.73-2.88 268.39 0.39 263.6 0.39L263.6 0.39Q261.31 0.39 259.94-0.05 258.57-0.49 257.3-0.49L257.3-0.49Q256.81-0.49 255.79-0.02 254.76 0.44 254.62 0.44 254.47 0.44 253.76-0.02 253.05-0.49 253.05-0.73L253.05-0.73Q253.05-0.88 253.15-1.61 253.25-2.34 253.35-3.59 253.44-4.83 253.44-6.25L253.44-6.25 253.44-25.93Q253.44-27.98 253.15-29.44L253.15-29.44Q252.91-30.22 250.61-30.22L250.61-30.22 250.17-30.22Q249.88-30.22 249.88-31.2L249.88-31.2Q249.88-32.03 250.17-32.03L250.17-32.03Q251.69-32.18 253.22-32.42 254.76-32.67 255.84-32.91 256.91-33.15 257.77-33.4 258.62-33.64 259.11-33.79L259.11-33.79 259.6-33.94 259.69-33.94Q259.89-33.94 260.08-33.64 260.28-33.35 260.33-33.11L260.33-33.11Q259.79-30.91 259.79-28.17L259.79-28.17 259.79-21.04Q259.79-20.9 259.79-20.8 259.79-20.7 259.82-20.53 259.84-20.36 259.91-20.36 259.99-20.36 260.08-20.41L260.08-20.41Q261.84-21.83 264.33-21.83ZM263.8-18.85L263.8-18.85Q261.89-18.85 260.84-17.77 259.79-16.7 259.79-15.53L259.79-15.53 259.79-6.3Q259.79-4.35 260.92-3.3 262.04-2.25 263.75-2.25L263.75-2.25Q265.94-2.25 266.99-4.22 268.04-6.2 268.04-9.42L268.04-9.42Q268.04-18.85 263.8-18.85Z" opacity="1" transform="matrix(1,0,0,1,0,0)" fill="#000000" class="wordmark-text-0" data-fill-palette-color="primary" id="text-0"></path></svg></g></svg></g><g transform="matrix(1,0,0,1,0,61.362188764856484)"><svg viewBox="0 0 395.52 18.304800354487718" height="18.304800354487718" width="395.52"><g transform="matrix(1,0,0,1,0,0)"><svg width="395.52" viewBox="2 -37 1015.45 47" height="18.304800354487718" data-palette-color="#ffffff"><path d="M20.25 0.5L20.25 0.5Q16.45 0.5 13.15-0.9 9.85-2.3 7.35-4.78 4.85-7.25 3.43-10.5 2-13.75 2-17.5L2-17.5Q2-21.25 3.43-24.5 4.85-27.75 7.35-30.23 9.85-32.7 13.15-34.1 16.45-35.5 20.25-35.5L20.25-35.5Q22.6-35.5 24.8-35 27-34.5 28.85-33.5L28.85-33.5Q29.6-33.1 29.98-32.43 30.35-31.75 30.35-31.05L30.35-31.05Q30.35-29.85 29.55-28.9 28.75-27.95 27.5-27.95L27.5-27.95Q27.1-27.95 26.68-28.05 26.25-28.15 25.85-28.35L25.85-28.35Q24.6-28.9 23.2-29.2 21.8-29.5 20.25-29.5L20.25-29.5Q17-29.5 14.33-27.88 11.65-26.25 10.08-23.53 8.5-20.8 8.5-17.5L8.5-17.5Q8.5-14.25 10.08-11.5 11.65-8.75 14.33-7.13 17-5.5 20.25-5.5L20.25-5.5Q21.75-5.5 23.55-5.8 25.35-6.1 26.5-6.6L26.5-6.6 26.05-5.1 26.05-13.65 26.9-12.9 21.35-12.9Q20.05-12.9 19.18-13.75 18.3-14.6 18.3-15.9L18.3-15.9Q18.3-17.2 19.18-18.05 20.05-18.9 21.35-18.9L21.35-18.9 29.55-18.9Q30.85-18.9 31.7-18.03 32.55-17.15 32.55-15.85L32.55-15.85 32.55-5.25Q32.55-4.25 32.08-3.6 31.6-2.95 31-2.55L31-2.55Q28.7-1.15 25.98-0.33 23.25 0.5 20.25 0.5ZM41.6-35L41.6-35 58.35-35Q59.65-35 60.52-34.18 61.4-33.35 61.4-32.05L61.4-32.05Q61.4-30.8 60.52-30.03 59.65-29.25 58.35-29.25L58.35-29.25 44.35-29.25 44.8-30.1 44.8-20.35 44.4-20.75 56.1-20.75Q57.4-20.75 58.27-19.93 59.15-19.1 59.15-17.8L59.15-17.8Q59.15-16.55 58.27-15.78 57.4-15 56.1-15L56.1-15 44.55-15 44.8-15.4 44.8-5.3 44.4-5.75 58.35-5.75Q59.65-5.75 60.52-4.88 61.4-4 61.4-2.85L61.4-2.85Q61.4-1.6 60.52-0.8 59.65 0 58.35 0L58.35 0 41.6 0Q40.3 0 39.42-0.88 38.55-1.75 38.55-3.05L38.55-3.05 38.55-31.95Q38.55-33.25 39.42-34.13 40.3-35 41.6-35ZM80.95-27.25L80.95-27.25Q84.65-27.25 86.57-25.7 88.5-24.15 89.22-21.58 89.95-19 89.95-15.85L89.95-15.85 89.95-3.05Q89.95-1.75 89.1-0.88 88.25 0 86.95 0L86.95 0Q85.65 0 84.8-0.88 83.95-1.75 83.95-3.05L83.95-3.05 83.95-15.85Q83.95-17.5 83.52-18.82 83.1-20.15 82-20.95 80.9-21.75 78.85-21.75L78.85-21.75Q76.85-21.75 75.47-20.95 74.1-20.15 73.37-18.82 72.65-17.5 72.65-15.85L72.65-15.85 72.65-3.05Q72.65-1.75 71.8-0.88 70.95 0 69.65 0L69.65 0Q68.35 0 67.5-0.88 66.65-1.75 66.65-3.05L66.65-3.05 66.65-23.7Q66.65-25 67.5-25.88 68.35-26.75 69.65-26.75L69.65-26.75Q70.95-26.75 71.8-25.88 72.65-25 72.65-23.7L72.65-23.7 72.65-21.55 71.9-21.7Q72.35-22.55 73.2-23.53 74.05-24.5 75.2-25.35 76.35-26.2 77.8-26.73 79.25-27.25 80.95-27.25ZM122.14-13.35L122.14-13.35Q122.14-9.25 120.32-6.13 118.49-3 115.42-1.25 112.34 0.5 108.54 0.5L108.54 0.5Q104.74 0.5 101.67-1.25 98.59-3 96.77-6.13 94.94-9.25 94.94-13.35L94.94-13.35Q94.94-17.45 96.77-20.58 98.59-23.7 101.67-25.48 104.74-27.25 108.54-27.25L108.54-27.25Q112.34-27.25 115.42-25.48 118.49-23.7 120.32-20.58 122.14-17.45 122.14-13.35ZM116.14-13.35L116.14-13.35Q116.14-15.9 115.12-17.78 114.09-19.65 112.37-20.7 110.64-21.75 108.54-21.75L108.54-21.75Q106.44-21.75 104.72-20.7 102.99-19.65 101.97-17.78 100.94-15.9 100.94-13.35L100.94-13.35Q100.94-10.85 101.97-8.97 102.99-7.1 104.72-6.05 106.44-5 108.54-5L108.54-5Q110.64-5 112.37-6.05 114.09-7.1 115.12-8.97 116.14-10.85 116.14-13.35ZM141.19-27.25L141.19-27.25Q145.19-27.25 147.09-25.33 148.99-23.4 149.59-20.35L149.59-20.35 148.74-20.8 149.14-21.6Q149.74-22.75 150.99-24.08 152.24-25.4 154.02-26.33 155.79-27.25 157.99-27.25L157.99-27.25Q161.59-27.25 163.47-25.7 165.34-24.15 166.04-21.58 166.74-19 166.74-15.85L166.74-15.85 166.74-3.05Q166.74-1.75 165.89-0.88 165.04 0 163.74 0L163.74 0Q162.44 0 161.59-0.88 160.74-1.75 160.74-3.05L160.74-3.05 160.74-15.85Q160.74-17.5 160.34-18.82 159.94-20.15 158.89-20.95 157.84-21.75 155.89-21.75L155.89-21.75Q153.99-21.75 152.64-20.95 151.29-20.15 150.62-18.82 149.94-17.5 149.94-15.85L149.94-15.85 149.94-3.05Q149.94-1.75 149.09-0.88 148.24 0 146.94 0L146.94 0Q145.64 0 144.79-0.88 143.94-1.75 143.94-3.05L143.94-3.05 143.94-15.85Q143.94-17.5 143.54-18.82 143.14-20.15 142.09-20.95 141.04-21.75 139.09-21.75L139.09-21.75Q137.19-21.75 135.84-20.95 134.49-20.15 133.82-18.82 133.14-17.5 133.14-15.85L133.14-15.85 133.14-3.05Q133.14-1.75 132.29-0.88 131.44 0 130.14 0L130.14 0Q128.84 0 127.99-0.88 127.14-1.75 127.14-3.05L127.14-3.05 127.14-23.7Q127.14-25 127.99-25.88 128.84-26.75 130.14-26.75L130.14-26.75Q131.44-26.75 132.29-25.88 133.14-25 133.14-23.7L133.14-23.7 133.14-21.55 132.39-21.7Q132.84-22.55 133.64-23.53 134.44-24.5 135.59-25.35 136.74-26.2 138.14-26.73 139.54-27.25 141.19-27.25ZM178.89-23.7L178.89-3.05Q178.89-1.75 178.04-0.88 177.19 0 175.89 0L175.89 0Q174.59 0 173.74-0.88 172.89-1.75 172.89-3.05L172.89-3.05 172.89-23.7Q172.89-25 173.74-25.88 174.59-26.75 175.89-26.75L175.89-26.75Q177.19-26.75 178.04-25.88 178.89-25 178.89-23.7L178.89-23.7ZM175.84-30L175.84-30Q174.14-30 173.44-30.55 172.74-31.1 172.74-32.5L172.74-32.5 172.74-33.45Q172.74-34.9 173.51-35.43 174.29-35.95 175.89-35.95L175.89-35.95Q177.64-35.95 178.34-35.4 179.04-34.85 179.04-33.45L179.04-33.45 179.04-32.5Q179.04-31.05 178.29-30.53 177.54-30 175.84-30ZM196.69-27.25L196.69-27.25Q199.54-27.25 201.66-26.65 203.79-26.05 204.96-24.98 206.14-23.9 206.14-22.4L206.14-22.4Q206.14-21.4 205.54-20.53 204.94-19.65 203.79-19.65L203.79-19.65Q202.99-19.65 202.46-19.88 201.94-20.1 201.54-20.45 201.14-20.8 200.59-21.1L200.59-21.1Q200.09-21.4 199.06-21.58 198.04-21.75 197.54-21.75L197.54-21.75Q194.99-21.75 193.21-20.65 191.44-19.55 190.49-17.68 189.54-15.8 189.54-13.35L189.54-13.35Q189.54-10.95 190.51-9.08 191.49-7.2 193.21-6.1 194.94-5 197.19-5L197.19-5Q198.44-5 199.34-5.15 200.24-5.3 200.84-5.6L200.84-5.6Q201.54-6 202.09-6.45 202.64-6.9 203.74-6.9L203.74-6.9Q205.04-6.9 205.74-6.08 206.44-5.25 206.44-4.05L206.44-4.05Q206.44-2.8 205.04-1.78 203.64-0.75 201.36-0.13 199.09 0.5 196.44 0.5L196.44 0.5Q192.49 0.5 189.59-1.33 186.69-3.15 185.11-6.3 183.54-9.45 183.54-13.35L183.54-13.35Q183.54-17.45 185.21-20.58 186.89-23.7 189.86-25.48 192.84-27.25 196.69-27.25ZM209.23-4.15L209.23-4.15Q208.73-4.85 208.78-5.95 208.83-7.05 210.08-7.85L210.08-7.85Q210.88-8.35 211.78-8.28 212.68-8.2 213.53-7.35L213.53-7.35Q214.98-5.9 216.58-5.1 218.18-4.3 220.58-4.3L220.58-4.3Q221.33-4.35 222.23-4.53 223.13-4.7 223.81-5.33 224.48-5.95 224.48-7.25L224.48-7.25Q224.48-8.35 223.73-9 222.98-9.65 221.76-10.1 220.53-10.55 219.03-10.95L219.03-10.95Q217.48-11.4 215.86-11.95 214.23-12.5 212.88-13.38 211.53-14.25 210.68-15.7 209.83-17.15 209.83-19.35L209.83-19.35Q209.83-21.85 211.23-23.6 212.63-25.35 214.86-26.3 217.08-27.25 219.53-27.25L219.53-27.25Q221.08-27.25 222.78-26.88 224.48-26.5 226.03-25.68 227.58-24.85 228.63-23.5L228.63-23.5Q229.18-22.75 229.28-21.7 229.38-20.65 228.33-19.8L228.33-19.8Q227.58-19.2 226.58-19.28 225.58-19.35 224.93-19.95L224.93-19.95Q224.08-21.05 222.66-21.7 221.23-22.35 219.38-22.35L219.38-22.35Q218.63-22.35 217.76-22.18 216.88-22 216.23-21.43 215.58-20.85 215.58-19.6L215.58-19.6Q215.58-18.45 216.33-17.78 217.08-17.1 218.36-16.68 219.63-16.25 221.08-15.85L221.08-15.85Q222.58-15.45 224.13-14.9 225.68-14.35 226.98-13.45 228.28-12.55 229.08-11.13 229.88-9.7 229.88-7.5L229.88-7.5Q229.88-4.95 228.38-3.15 226.88-1.35 224.63-0.43 222.38 0.5 220.03 0.5L220.03 0.5Q217.08 0.5 214.13-0.53 211.18-1.55 209.23-4.15ZM259.58 0.5L259.58 0.5Q256.03 0.5 253.2-1.05 250.38-2.6 248.75-5.1 247.13-7.6 247.13-10.45L247.13-10.45Q247.13-12.95 248-15.03 248.88-17.1 250.65-18.7 252.43-20.3 255.18-21.4L255.18-21.4 259.08-17.35Q255.58-16.6 254.4-15.08 253.23-13.55 253.23-11.35L253.23-11.35Q253.23-9.85 253.98-8.43 254.73-7 256.43-6.08 258.13-5.15 260.98-5.15L260.98-5.15Q263.33-5.15 265.2-6.23 267.08-7.3 268.45-9.08 269.83-10.85 270.7-13.03 271.58-15.2 271.88-17.45L271.88-17.45Q271.98-18.25 272.5-18.7 273.03-19.15 274.28-19.15L274.28-19.15Q275.58-19.15 276.33-18.1 277.08-17.05 276.88-15.65L276.88-15.65Q276.43-12.65 275.15-9.78 273.88-6.9 271.75-4.58 269.63-2.25 266.6-0.88 263.58 0.5 259.58 0.5ZM277.38 0.1L277.38 0.1Q276.78 0.1 276.35-0.05 275.93-0.2 275.68-0.4L275.68-0.4Q272.08-3.5 269.1-6.13 266.13-8.75 263.63-11.15 261.13-13.55 258.93-16.05L258.93-16.05Q257.18-18.05 255.73-19.65 254.28-21.25 253.4-22.78 252.53-24.3 252.53-26.15L252.53-26.15Q252.53-28.6 253.85-30.73 255.18-32.85 257.63-34.18 260.08-35.5 263.43-35.5L263.43-35.5Q266.88-35.5 269.65-34.35 272.43-33.2 273.38-31.3L273.38-31.3Q273.43-31.25 273.63-30.68 273.83-30.1 273.83-29.35L273.83-29.35Q273.83-28.4 273.13-27.7 272.43-27 271.23-27L271.23-27Q270.43-27 269.98-27.3 269.53-27.6 269.28-27.9L269.28-27.9Q268.18-29.35 266.75-29.93 265.33-30.5 263.43-30.5L263.43-30.5Q261.18-30.5 260-29.3 258.83-28.1 258.83-26.45L258.83-26.45Q258.83-24.9 259.93-23.38 261.03-21.85 262.45-20.5 263.88-19.15 264.83-18.1L264.83-18.1Q266.38-16.45 268.3-14.58 270.23-12.7 272.18-10.93 274.13-9.15 275.8-7.63 277.48-6.1 278.53-5.1L278.53-5.1Q279.18-4.5 279.5-3.9 279.83-3.3 279.83-2.45L279.83-2.45Q279.83-1.8 279.25-0.85 278.68 0.1 277.38 0.1ZM325.37-35L325.37-35Q326.57-35 327.32-34.2 328.07-33.4 328.07-32.2L328.07-32.2 328.07-3.05Q328.07-1.75 327.2-0.88 326.32 0 325.02 0L325.02 0Q324.37 0 323.7-0.23 323.02-0.45 322.67-0.85L322.67-0.85 303.02-25.8 304.32-26.6 304.32-2.8Q304.32-1.6 303.55-0.8 302.77 0 301.52 0L301.52 0Q300.32 0 299.57-0.8 298.82-1.6 298.82-2.8L298.82-2.8 298.82-31.95Q298.82-33.25 299.7-34.13 300.57-35 301.87-35L301.87-35Q302.57-35 303.32-34.73 304.07-34.45 304.42-33.9L304.42-33.9 323.47-9.6 322.62-9 322.62-32.2Q322.62-33.4 323.37-34.2 324.12-35 325.37-35ZM362.12-35L362.12-35Q363.32-35 364.07-34.2 364.82-33.4 364.82-32.2L364.82-32.2 364.82-3.05Q364.82-1.75 363.95-0.88 363.07 0 361.77 0L361.77 0Q361.12 0 360.45-0.23 359.77-0.45 359.42-0.85L359.42-0.85 339.77-25.8 341.07-26.6 341.07-2.8Q341.07-1.6 340.3-0.8 339.52 0 338.27 0L338.27 0Q337.07 0 336.32-0.8 335.57-1.6 335.57-2.8L335.57-2.8 335.57-31.95Q335.57-33.25 336.45-34.13 337.32-35 338.62-35L338.62-35Q339.32-35 340.07-34.73 340.82-34.45 341.17-33.9L341.17-33.9 360.22-9.6 359.37-9 359.37-32.2Q359.37-33.4 360.12-34.2 360.87-35 362.12-35ZM392.57-31.95L392.57-3.05Q392.57-1.75 391.62-0.88 390.67 0 389.42 0L389.42 0Q388.02 0 387.17-0.88 386.32-1.75 386.32-3.05L386.32-3.05 386.32-31.95Q386.32-33.25 387.22-34.13 388.12-35 389.52-35L389.52-35Q390.72-35 391.64-34.13 392.57-33.25 392.57-31.95L392.57-31.95ZM413.86-27.25L413.86-27.25Q417.56-27.25 419.49-25.7 421.41-24.15 422.14-21.58 422.86-19 422.86-15.85L422.86-15.85 422.86-3.05Q422.86-1.75 422.01-0.88 421.16 0 419.86 0L419.86 0Q418.56 0 417.71-0.88 416.86-1.75 416.86-3.05L416.86-3.05 416.86-15.85Q416.86-17.5 416.44-18.82 416.01-20.15 414.91-20.95 413.81-21.75 411.76-21.75L411.76-21.75Q409.76-21.75 408.39-20.95 407.01-20.15 406.29-18.82 405.56-17.5 405.56-15.85L405.56-15.85 405.56-3.05Q405.56-1.75 404.71-0.88 403.86 0 402.56 0L402.56 0Q401.26 0 400.41-0.88 399.56-1.75 399.56-3.05L399.56-3.05 399.56-23.7Q399.56-25 400.41-25.88 401.26-26.75 402.56-26.75L402.56-26.75Q403.86-26.75 404.71-25.88 405.56-25 405.56-23.7L405.56-23.7 405.56-21.55 404.81-21.7Q405.26-22.55 406.11-23.53 406.96-24.5 408.11-25.35 409.26-26.2 410.71-26.73 412.16-27.25 413.86-27.25ZM429.66-26.25L429.66-26.25 441.51-26.25Q442.71-26.25 443.51-25.45 444.31-24.65 444.31-23.45L444.31-23.45Q444.31-22.3 443.51-21.53 442.71-20.75 441.51-20.75L441.51-20.75 429.66-20.75Q428.46-20.75 427.66-21.55 426.86-22.35 426.86-23.55L426.86-23.55Q426.86-24.7 427.66-25.48 428.46-26.25 429.66-26.25ZM435.01-32.5L435.01-32.5Q436.31-32.5 437.14-31.63 437.96-30.75 437.96-29.45L437.96-29.45 437.96-7.2Q437.96-6.5 438.24-6.05 438.51-5.6 438.99-5.4 439.46-5.2 440.01-5.2L440.01-5.2Q440.61-5.2 441.11-5.43 441.61-5.65 442.26-5.65L442.26-5.65Q442.96-5.65 443.54-5 444.11-4.35 444.11-3.2L444.11-3.2Q444.11-1.8 442.59-0.9 441.06 0 439.31 0L439.31 0Q438.26 0 436.99-0.18 435.71-0.35 434.59-1.03 433.46-1.7 432.71-3.1 431.96-4.5 431.96-6.95L431.96-6.95 431.96-29.45Q431.96-30.75 432.84-31.63 433.71-32.5 435.01-32.5ZM461.91 0.5L461.91 0.5Q457.66 0.5 454.53-1.28 451.41-3.05 449.73-6.1 448.06-9.15 448.06-13L448.06-13Q448.06-17.5 449.88-20.68 451.71-23.85 454.66-25.55 457.61-27.25 460.91-27.25L460.91-27.25Q463.46-27.25 465.73-26.2 468.01-25.15 469.76-23.33 471.51-21.5 472.53-19.1 473.56-16.7 473.56-14L473.56-14Q473.51-12.8 472.61-12.05 471.71-11.3 470.51-11.3L470.51-11.3 451.41-11.3 449.91-16.3 468.26-16.3 467.16-15.3 467.16-16.65Q467.06-18.1 466.13-19.25 465.21-20.4 463.83-21.08 462.46-21.75 460.91-21.75L460.91-21.75Q459.41-21.75 458.11-21.35 456.81-20.95 455.86-20 454.91-19.05 454.36-17.45 453.81-15.85 453.81-13.4L453.81-13.4Q453.81-10.7 454.93-8.83 456.06-6.95 457.83-5.98 459.61-5 461.61-5L461.61-5Q463.46-5 464.56-5.3 465.66-5.6 466.33-6.03 467.01-6.45 467.56-6.75L467.56-6.75Q468.46-7.2 469.26-7.2L469.26-7.2Q470.36-7.2 471.08-6.45 471.81-5.7 471.81-4.7L471.81-4.7Q471.81-3.35 470.41-2.25L470.41-2.25Q469.11-1.15 466.76-0.33 464.41 0.5 461.91 0.5ZM485.06-33.95L485.06-3.05Q485.06-1.75 484.18-0.88 483.31 0 482.01 0L482.01 0Q480.76 0 479.91-0.88 479.06-1.75 479.06-3.05L479.06-3.05 479.06-33.95Q479.06-35.25 479.93-36.13 480.81-37 482.11-37L482.11-37Q483.41-37 484.23-36.13 485.06-35.25 485.06-33.95L485.06-33.95ZM498.55-33.95L498.55-3.05Q498.55-1.75 497.68-0.88 496.8 0 495.5 0L495.5 0Q494.25 0 493.4-0.88 492.55-1.75 492.55-3.05L492.55-3.05 492.55-33.95Q492.55-35.25 493.43-36.13 494.3-37 495.6-37L495.6-37Q496.9-37 497.73-36.13 498.55-35.25 498.55-33.95L498.55-33.95ZM511.2-23.7L511.2-3.05Q511.2-1.75 510.35-0.88 509.5 0 508.2 0L508.2 0Q506.9 0 506.05-0.88 505.2-1.75 505.2-3.05L505.2-3.05 505.2-23.7Q505.2-25 506.05-25.88 506.9-26.75 508.2-26.75L508.2-26.75Q509.5-26.75 510.35-25.88 511.2-25 511.2-23.7L511.2-23.7ZM508.15-30L508.15-30Q506.45-30 505.75-30.55 505.05-31.1 505.05-32.5L505.05-32.5 505.05-33.45Q505.05-34.9 505.83-35.43 506.6-35.95 508.2-35.95L508.2-35.95Q509.95-35.95 510.65-35.4 511.35-34.85 511.35-33.45L511.35-33.45 511.35-32.5Q511.35-31.05 510.6-30.53 509.85-30 508.15-30ZM528.2-27.25L528.2-27.25Q530.3-27.25 532.05-26.6 533.8-25.95 535.07-24.95 536.35-23.95 537.07-22.93 537.8-21.9 537.8-21.2L537.8-21.2 536.5-20.55 536.5-24.2Q536.5-25.5 537.35-26.38 538.2-27.25 539.5-27.25L539.5-27.25Q540.8-27.25 541.65-26.4 542.5-25.55 542.5-24.2L542.5-24.2 542.5-1.95Q542.5 2.4 540.62 5.03 538.75 7.65 535.7 8.83 532.65 10 529.15 10L529.15 10Q528.15 10 526.55 9.75 524.95 9.5 523.5 9.15 522.05 8.8 521.3 8.5L521.3 8.5Q519.8 7.85 519.22 6.88 518.65 5.9 519 4.8L519 4.8Q519.45 3.35 520.45 2.83 521.45 2.3 522.55 2.7L522.55 2.7Q523.05 2.85 524.2 3.3 525.35 3.75 526.72 4.13 528.1 4.5 529.15 4.5L529.15 4.5Q532.9 4.5 534.7 3 536.5 1.5 536.5-1.15L536.5-1.15 536.5-5.5 537.1-5.05Q537.1-4.4 536.42-3.48 535.75-2.55 534.57-1.65 533.4-0.75 531.8-0.13 530.2 0.5 528.4 0.5L528.4 0.5Q524.85 0.5 522-1.28 519.15-3.05 517.5-6.18 515.85-9.3 515.85-13.35L515.85-13.35Q515.85-17.45 517.5-20.58 519.15-23.7 521.95-25.48 524.75-27.25 528.2-27.25ZM529.15-21.75L529.15-21.75Q526.9-21.75 525.2-20.65 523.5-19.55 522.55-17.65 521.6-15.75 521.6-13.35L521.6-13.35Q521.6-11 522.55-9.1 523.5-7.2 525.2-6.1 526.9-5 529.15-5L529.15-5Q531.45-5 533.15-6.1 534.85-7.2 535.8-9.1 536.75-11 536.75-13.35L536.75-13.35Q536.75-15.75 535.8-17.65 534.85-19.55 533.15-20.65 531.45-21.75 529.15-21.75ZM560.34 0.5L560.34 0.5Q556.09 0.5 552.97-1.28 549.84-3.05 548.17-6.1 546.49-9.15 546.49-13L546.49-13Q546.49-17.5 548.32-20.68 550.14-23.85 553.09-25.55 556.04-27.25 559.34-27.25L559.34-27.25Q561.89-27.25 564.17-26.2 566.44-25.15 568.19-23.33 569.94-21.5 570.97-19.1 571.99-16.7 571.99-14L571.99-14Q571.94-12.8 571.04-12.05 570.14-11.3 568.94-11.3L568.94-11.3 549.84-11.3 548.34-16.3 566.69-16.3 565.59-15.3 565.59-16.65Q565.49-18.1 564.57-19.25 563.64-20.4 562.27-21.08 560.89-21.75 559.34-21.75L559.34-21.75Q557.84-21.75 556.54-21.35 555.24-20.95 554.29-20 553.34-19.05 552.79-17.45 552.24-15.85 552.24-13.4L552.24-13.4Q552.24-10.7 553.37-8.83 554.49-6.95 556.27-5.98 558.04-5 560.04-5L560.04-5Q561.89-5 562.99-5.3 564.09-5.6 564.77-6.03 565.44-6.45 565.99-6.75L565.99-6.75Q566.89-7.2 567.69-7.2L567.69-7.2Q568.79-7.2 569.52-6.45 570.24-5.7 570.24-4.7L570.24-4.7Q570.24-3.35 568.84-2.25L568.84-2.25Q567.54-1.15 565.19-0.33 562.84 0.5 560.34 0.5ZM591.29-27.25L591.29-27.25Q594.99-27.25 596.92-25.7 598.84-24.15 599.57-21.58 600.29-19 600.29-15.85L600.29-15.85 600.29-3.05Q600.29-1.75 599.44-0.88 598.59 0 597.29 0L597.29 0Q595.99 0 595.14-0.88 594.29-1.75 594.29-3.05L594.29-3.05 594.29-15.85Q594.29-17.5 593.87-18.82 593.44-20.15 592.34-20.95 591.24-21.75 589.19-21.75L589.19-21.75Q587.19-21.75 585.82-20.95 584.44-20.15 583.72-18.82 582.99-17.5 582.99-15.85L582.99-15.85 582.99-3.05Q582.99-1.75 582.14-0.88 581.29 0 579.99 0L579.99 0Q578.69 0 577.84-0.88 576.99-1.75 576.99-3.05L576.99-3.05 576.99-23.7Q576.99-25 577.84-25.88 578.69-26.75 579.99-26.75L579.99-26.75Q581.29-26.75 582.14-25.88 582.99-25 582.99-23.7L582.99-23.7 582.99-21.55 582.24-21.7Q582.69-22.55 583.54-23.53 584.39-24.5 585.54-25.35 586.69-26.2 588.14-26.73 589.59-27.25 591.29-27.25ZM618.44-27.25L618.44-27.25Q621.29-27.25 623.41-26.65 625.54-26.05 626.71-24.98 627.89-23.9 627.89-22.4L627.89-22.4Q627.89-21.4 627.29-20.53 626.69-19.65 625.54-19.65L625.54-19.65Q624.74-19.65 624.21-19.88 623.69-20.1 623.29-20.45 622.89-20.8 622.34-21.1L622.34-21.1Q621.84-21.4 620.81-21.58 619.79-21.75 619.29-21.75L619.29-21.75Q616.74-21.75 614.96-20.65 613.19-19.55 612.24-17.68 611.29-15.8 611.29-13.35L611.29-13.35Q611.29-10.95 612.26-9.08 613.24-7.2 614.96-6.1 616.69-5 618.94-5L618.94-5Q620.19-5 621.09-5.15 621.99-5.3 622.59-5.6L622.59-5.6Q623.29-6 623.84-6.45 624.39-6.9 625.49-6.9L625.49-6.9Q626.79-6.9 627.49-6.08 628.19-5.25 628.19-4.05L628.19-4.05Q628.19-2.8 626.79-1.78 625.39-0.75 623.11-0.13 620.84 0.5 618.19 0.5L618.19 0.5Q614.24 0.5 611.34-1.33 608.44-3.15 606.86-6.3 605.29-9.45 605.29-13.35L605.29-13.35Q605.29-17.45 606.96-20.58 608.64-23.7 611.61-25.48 614.59-27.25 618.44-27.25ZM644.89 0.5L644.89 0.5Q640.64 0.5 637.51-1.28 634.39-3.05 632.71-6.1 631.04-9.15 631.04-13L631.04-13Q631.04-17.5 632.86-20.68 634.69-23.85 637.64-25.55 640.59-27.25 643.89-27.25L643.89-27.25Q646.44-27.25 648.71-26.2 650.99-25.15 652.74-23.33 654.49-21.5 655.51-19.1 656.54-16.7 656.54-14L656.54-14Q656.49-12.8 655.59-12.05 654.69-11.3 653.49-11.3L653.49-11.3 634.39-11.3 632.89-16.3 651.24-16.3 650.14-15.3 650.14-16.65Q650.04-18.1 649.11-19.25 648.19-20.4 646.81-21.08 645.44-21.75 643.89-21.75L643.89-21.75Q642.39-21.75 641.09-21.35 639.79-20.95 638.84-20 637.89-19.05 637.34-17.45 636.79-15.85 636.79-13.4L636.79-13.4Q636.79-10.7 637.91-8.83 639.04-6.95 640.81-5.98 642.59-5 644.59-5L644.59-5Q646.44-5 647.54-5.3 648.64-5.6 649.31-6.03 649.99-6.45 650.54-6.75L650.54-6.75Q651.44-7.2 652.24-7.2L652.24-7.2Q653.34-7.2 654.06-6.45 654.79-5.7 654.79-4.7L654.79-4.7Q654.79-3.35 653.39-2.25L653.39-2.25Q652.09-1.15 649.74-0.33 647.39 0.5 644.89 0.5ZM689.28-37L689.28-37Q690.38-37 691.43-36.7 692.48-36.4 693.18-35.73 693.88-35.05 693.88-33.95L693.88-33.95Q693.88-32.7 693.16-31.98 692.43-31.25 691.48-31.25L691.48-31.25Q691.03-31.25 690.13-31.48 689.23-31.7 688.38-31.7L688.38-31.7Q687.13-31.7 686.46-31.15 685.78-30.6 685.53-29.88 685.28-29.15 685.28-28.6L685.28-28.6 685.28-3.05Q685.28-1.75 684.43-0.88 683.58 0 682.28 0L682.28 0Q680.98 0 680.13-0.88 679.28-1.75 679.28-3.05L679.28-3.05 679.28-28.55Q679.28-32.1 681.78-34.55 684.28-37 689.28-37ZM676.58-26.25L689.83-26.25Q691.03-26.25 691.83-25.48 692.63-24.7 692.63-23.5L692.63-23.5Q692.63-22.3 691.83-21.53 691.03-20.75 689.83-20.75L689.83-20.75 676.58-20.75Q675.38-20.75 674.58-21.53 673.78-22.3 673.78-23.5L673.78-23.5Q673.78-24.7 674.58-25.48 675.38-26.25 676.58-26.25L676.58-26.25ZM722.08-13.35L722.08-13.35Q722.08-9.25 720.25-6.13 718.43-3 715.35-1.25 712.28 0.5 708.48 0.5L708.48 0.5Q704.68 0.5 701.6-1.25 698.53-3 696.7-6.13 694.88-9.25 694.88-13.35L694.88-13.35Q694.88-17.45 696.7-20.58 698.53-23.7 701.6-25.48 704.68-27.25 708.48-27.25L708.48-27.25Q712.28-27.25 715.35-25.48 718.43-23.7 720.25-20.58 722.08-17.45 722.08-13.35ZM716.08-13.35L716.08-13.35Q716.08-15.9 715.05-17.78 714.03-19.65 712.3-20.7 710.58-21.75 708.48-21.75L708.48-21.75Q706.38-21.75 704.65-20.7 702.93-19.65 701.9-17.78 700.88-15.9 700.88-13.35L700.88-13.35Q700.88-10.85 701.9-8.97 702.93-7.1 704.65-6.05 706.38-5 708.48-5L708.48-5Q710.58-5 712.3-6.05 714.03-7.1 715.05-8.97 716.08-10.85 716.08-13.35ZM730.08 0L730.08 0Q728.78 0 727.93-0.88 727.08-1.75 727.08-3.05L727.08-3.05 727.08-23.7Q727.08-25 727.93-25.88 728.78-26.75 730.08-26.75L730.08-26.75Q731.38-26.75 732.23-25.88 733.08-25 733.08-23.7L733.08-23.7 733.08-19 732.73-22.35Q733.28-23.55 734.15-24.48 735.03-25.4 736.13-26.03 737.23-26.65 738.48-26.95 739.73-27.25 740.98-27.25L740.98-27.25Q742.48-27.25 743.5-26.4 744.53-25.55 744.53-24.4L744.53-24.4Q744.53-22.75 743.68-22.03 742.83-21.3 741.83-21.3L741.83-21.3Q740.88-21.3 740.1-21.65 739.33-22 738.33-22L738.33-22Q737.43-22 736.5-21.58 735.58-21.15 734.8-20.25 734.03-19.35 733.55-18.03 733.08-16.7 733.08-14.9L733.08-14.9 733.08-3.05Q733.08-1.75 732.23-0.88 731.38 0 730.08 0ZM776.82-27.25L776.82-27.25Q780.42-27.25 782.3-25.7 784.17-24.15 784.87-21.58 785.57-19 785.57-15.85L785.57-15.85 785.57-3.05Q785.57-1.75 784.72-0.88 783.87 0 782.57 0L782.57 0Q781.27 0 780.42-0.88 779.57-1.75 779.57-3.05L779.57-3.05 779.57-15.85Q779.57-17.5 779.17-18.82 778.77-20.15 777.72-20.95 776.67-21.75 774.72-21.75L774.72-21.75Q772.82-21.75 771.47-20.95 770.12-20.15 769.45-18.82 768.77-17.5 768.77-15.85L768.77-15.85 768.77-3.05Q768.77-1.75 767.92-0.88 767.07 0 765.77 0L765.77 0Q764.47 0 763.62-0.88 762.77-1.75 762.77-3.05L762.77-3.05 762.77-33.95Q762.77-35.25 763.62-36.13 764.47-37 765.77-37L765.77-37Q767.07-37 767.92-36.13 768.77-35.25 768.77-33.95L768.77-33.95 768.77-21.55 768.02-21.7Q768.47-22.55 769.27-23.53 770.07-24.5 771.22-25.35 772.37-26.2 773.77-26.73 775.17-27.25 776.82-27.25ZM804.42 0.5L804.42 0.5Q800.17 0.5 797.04-1.28 793.92-3.05 792.24-6.1 790.57-9.15 790.57-13L790.57-13Q790.57-17.5 792.39-20.68 794.22-23.85 797.17-25.55 800.12-27.25 803.42-27.25L803.42-27.25Q805.97-27.25 808.24-26.2 810.52-25.15 812.27-23.33 814.02-21.5 815.04-19.1 816.07-16.7 816.07-14L816.07-14Q816.02-12.8 815.12-12.05 814.22-11.3 813.02-11.3L813.02-11.3 793.92-11.3 792.42-16.3 810.77-16.3 809.67-15.3 809.67-16.65Q809.57-18.1 808.64-19.25 807.72-20.4 806.34-21.08 804.97-21.75 803.42-21.75L803.42-21.75Q801.92-21.75 800.62-21.35 799.32-20.95 798.37-20 797.42-19.05 796.87-17.45 796.32-15.85 796.32-13.4L796.32-13.4Q796.32-10.7 797.44-8.83 798.57-6.95 800.34-5.98 802.12-5 804.12-5L804.12-5Q805.97-5 807.07-5.3 808.17-5.6 808.84-6.03 809.52-6.45 810.07-6.75L810.07-6.75Q810.97-7.2 811.77-7.2L811.77-7.2Q812.87-7.2 813.59-6.45 814.32-5.7 814.32-4.7L814.32-4.7Q814.32-3.35 812.92-2.25L812.92-2.25Q811.62-1.15 809.27-0.33 806.92 0.5 804.42 0.5ZM842.92-27.25L842.92-27.25Q844.22-27.25 845.07-26.4 845.92-25.55 845.92-24.2L845.92-24.2 845.92-3.05Q845.92-1.75 845.07-0.88 844.22 0 842.92 0L842.92 0Q841.62 0 840.77-0.88 839.92-1.75 839.92-3.05L839.92-3.05 839.92-5.5 841.02-5.05Q841.02-4.4 840.32-3.48 839.62-2.55 838.42-1.65 837.22-0.75 835.59-0.13 833.97 0.5 832.07 0.5L832.07 0.5Q828.62 0.5 825.82-1.28 823.02-3.05 821.39-6.18 819.77-9.3 819.77-13.35L819.77-13.35Q819.77-17.45 821.39-20.58 823.02-23.7 825.77-25.48 828.52-27.25 831.87-27.25L831.87-27.25Q834.02-27.25 835.82-26.6 837.62-25.95 838.94-24.95 840.27-23.95 840.99-22.93 841.72-21.9 841.72-21.2L841.72-21.2 839.92-20.55 839.92-24.2Q839.92-25.5 840.77-26.38 841.62-27.25 842.92-27.25ZM832.82-5L832.82-5Q835.02-5 836.67-6.1 838.32-7.2 839.24-9.1 840.17-11 840.17-13.35L840.17-13.35Q840.17-15.75 839.24-17.65 838.32-19.55 836.67-20.65 835.02-21.75 832.82-21.75L832.82-21.75Q830.67-21.75 829.02-20.65 827.37-19.55 826.44-17.65 825.52-15.75 825.52-13.35L825.52-13.35Q825.52-11 826.44-9.1 827.37-7.2 829.02-6.1 830.67-5 832.82-5ZM858.91-33.95L858.91-3.05Q858.91-1.75 858.04-0.88 857.16 0 855.86 0L855.86 0Q854.61 0 853.76-0.88 852.91-1.75 852.91-3.05L852.91-3.05 852.91-33.95Q852.91-35.25 853.79-36.13 854.66-37 855.96-37L855.96-37Q857.26-37 858.09-36.13 858.91-35.25 858.91-33.95L858.91-33.95ZM866.06-26.25L866.06-26.25 877.91-26.25Q879.11-26.25 879.91-25.45 880.71-24.65 880.71-23.45L880.71-23.45Q880.71-22.3 879.91-21.53 879.11-20.75 877.91-20.75L877.91-20.75 866.06-20.75Q864.86-20.75 864.06-21.55 863.26-22.35 863.26-23.55L863.26-23.55Q863.26-24.7 864.06-25.48 864.86-26.25 866.06-26.25ZM871.41-32.5L871.41-32.5Q872.71-32.5 873.54-31.63 874.36-30.75 874.36-29.45L874.36-29.45 874.36-7.2Q874.36-6.5 874.64-6.05 874.91-5.6 875.39-5.4 875.86-5.2 876.41-5.2L876.41-5.2Q877.01-5.2 877.51-5.43 878.01-5.65 878.66-5.65L878.66-5.65Q879.36-5.65 879.94-5 880.51-4.35 880.51-3.2L880.51-3.2Q880.51-1.8 878.99-0.9 877.46 0 875.71 0L875.71 0Q874.66 0 873.39-0.18 872.11-0.35 870.99-1.03 869.86-1.7 869.11-3.1 868.36-4.5 868.36-6.95L868.36-6.95 868.36-29.45Q868.36-30.75 869.24-31.63 870.11-32.5 871.41-32.5ZM900.26-27.25L900.26-27.25Q903.86-27.25 905.73-25.7 907.61-24.15 908.31-21.58 909.01-19 909.01-15.85L909.01-15.85 909.01-3.05Q909.01-1.75 908.16-0.88 907.31 0 906.01 0L906.01 0Q904.71 0 903.86-0.88 903.01-1.75 903.01-3.05L903.01-3.05 903.01-15.85Q903.01-17.5 902.61-18.82 902.21-20.15 901.16-20.95 900.11-21.75 898.16-21.75L898.16-21.75Q896.26-21.75 894.91-20.95 893.56-20.15 892.88-18.82 892.21-17.5 892.21-15.85L892.21-15.85 892.21-3.05Q892.21-1.75 891.36-0.88 890.51 0 889.21 0L889.21 0Q887.91 0 887.06-0.88 886.21-1.75 886.21-3.05L886.21-3.05 886.21-33.95Q886.21-35.25 887.06-36.13 887.91-37 889.21-37L889.21-37Q890.51-37 891.36-36.13 892.21-35.25 892.21-33.95L892.21-33.95 892.21-21.55 891.46-21.7Q891.91-22.55 892.71-23.53 893.51-24.5 894.66-25.35 895.81-26.2 897.21-26.73 898.61-27.25 900.26-27.25ZM927.16-27.25L927.16-27.25Q930.01-27.25 932.13-26.65 934.26-26.05 935.43-24.98 936.61-23.9 936.61-22.4L936.61-22.4Q936.61-21.4 936.01-20.53 935.41-19.65 934.26-19.65L934.26-19.65Q933.46-19.65 932.93-19.88 932.41-20.1 932.01-20.45 931.61-20.8 931.06-21.1L931.06-21.1Q930.56-21.4 929.53-21.58 928.51-21.75 928.01-21.75L928.01-21.75Q925.46-21.75 923.68-20.65 921.91-19.55 920.96-17.68 920.01-15.8 920.01-13.35L920.01-13.35Q920.01-10.95 920.98-9.08 921.96-7.2 923.68-6.1 925.41-5 927.66-5L927.66-5Q928.91-5 929.81-5.15 930.71-5.3 931.31-5.6L931.31-5.6Q932.01-6 932.56-6.45 933.11-6.9 934.21-6.9L934.21-6.9Q935.51-6.9 936.21-6.08 936.91-5.25 936.91-4.05L936.91-4.05Q936.91-2.8 935.51-1.78 934.11-0.75 931.83-0.13 929.56 0.5 926.91 0.5L926.91 0.5Q922.96 0.5 920.06-1.33 917.16-3.15 915.58-6.3 914.01-9.45 914.01-13.35L914.01-13.35Q914.01-17.45 915.68-20.58 917.36-23.7 920.33-25.48 923.31-27.25 927.16-27.25ZM962.9-27.25L962.9-27.25Q964.2-27.25 965.05-26.4 965.9-25.55 965.9-24.2L965.9-24.2 965.9-3.05Q965.9-1.75 965.05-0.88 964.2 0 962.9 0L962.9 0Q961.6 0 960.75-0.88 959.9-1.75 959.9-3.05L959.9-3.05 959.9-5.5 961-5.05Q961-4.4 960.3-3.48 959.6-2.55 958.4-1.65 957.2-0.75 955.58-0.13 953.95 0.5 952.05 0.5L952.05 0.5Q948.6 0.5 945.8-1.28 943-3.05 941.38-6.18 939.75-9.3 939.75-13.35L939.75-13.35Q939.75-17.45 941.38-20.58 943-23.7 945.75-25.48 948.5-27.25 951.85-27.25L951.85-27.25Q954-27.25 955.8-26.6 957.6-25.95 958.93-24.95 960.25-23.95 960.98-22.93 961.7-21.9 961.7-21.2L961.7-21.2 959.9-20.55 959.9-24.2Q959.9-25.5 960.75-26.38 961.6-27.25 962.9-27.25ZM952.8-5L952.8-5Q955-5 956.65-6.1 958.3-7.2 959.23-9.1 960.15-11 960.15-13.35L960.15-13.35Q960.15-15.75 959.23-17.65 958.3-19.55 956.65-20.65 955-21.75 952.8-21.75L952.8-21.75Q950.65-21.75 949-20.65 947.35-19.55 946.43-17.65 945.5-15.75 945.5-13.35L945.5-13.35Q945.5-11 946.43-9.1 947.35-7.2 949-6.1 950.65-5 952.8-5ZM975.4 0L975.4 0Q974.1 0 973.25-0.88 972.4-1.75 972.4-3.05L972.4-3.05 972.4-23.7Q972.4-25 973.25-25.88 974.1-26.75 975.4-26.75L975.4-26.75Q976.7-26.75 977.55-25.88 978.4-25 978.4-23.7L978.4-23.7 978.4-19 978.05-22.35Q978.6-23.55 979.48-24.48 980.35-25.4 981.45-26.03 982.55-26.65 983.8-26.95 985.05-27.25 986.3-27.25L986.3-27.25Q987.8-27.25 988.83-26.4 989.85-25.55 989.85-24.4L989.85-24.4Q989.85-22.75 989-22.03 988.15-21.3 987.15-21.3L987.15-21.3Q986.2-21.3 985.43-21.65 984.65-22 983.65-22L983.65-22Q982.75-22 981.83-21.58 980.9-21.15 980.13-20.25 979.35-19.35 978.88-18.03 978.4-16.7 978.4-14.9L978.4-14.9 978.4-3.05Q978.4-1.75 977.55-0.88 976.7 0 975.4 0ZM997.65-35L997.65-35 1014.4-35Q1015.7-35 1016.57-34.18 1017.45-33.35 1017.45-32.05L1017.45-32.05Q1017.45-30.8 1016.57-30.03 1015.7-29.25 1014.4-29.25L1014.4-29.25 1000.4-29.25 1000.85-30.1 1000.85-20.35 1000.45-20.75 1012.15-20.75Q1013.45-20.75 1014.32-19.93 1015.2-19.1 1015.2-17.8L1015.2-17.8Q1015.2-16.55 1014.32-15.78 1013.45-15 1012.15-15L1012.15-15 1000.6-15 1000.85-15.4 1000.85-5.3 1000.45-5.75 1014.4-5.75Q1015.7-5.75 1016.57-4.88 1017.45-4 1017.45-2.85L1017.45-2.85Q1017.45-1.6 1016.57-0.8 1015.7 0 1014.4 0L1014.4 0 997.65 0Q996.35 0 995.47-0.88 994.6-1.75 994.6-3.05L994.6-3.05 994.6-31.95Q994.6-33.25 995.47-34.13 996.35-35 997.65-35Z" opacity="1" transform="matrix(1,0,0,1,0,0)" fill="#000000" class="slogan-text-1" data-fill-palette-color="secondary" id="text-1"></path></svg></g></svg></g></svg></g></svg></g><g transform="matrix(1,0,0,1,134.63497557400225,0)"><svg viewBox="0 0 128.2276488519954 110.09977896293367" height="110.09977896293367" width="128.2276488519954"><g><svg xmlns="http://www.w3.org/2000/svg" xmlns:xlink="http://www.w3.org/1999/xlink" version="1.1" x="7.999999999999993" y="0" viewBox="0 2.414999999999999 99.47099999999999 97.58500000000001" enable-background="new 0 0 99.471 100" xml:space="preserve" width="112.22764885199543" height="110.09977896293367" class="icon-icon-0" data-fill-palette-color="accent" id="icon-0"><g fill="#ffffff" data-fill-palette-color="accent"><path d="M74.913 89.033c-1.077-0.834-2.158-1.696-3.254-2.57-0.91-0.724-1.823-1.456-2.743-2.173-5.508-4.304-11.232-8.228-17.605-8.798-0.528-0.049-1.06-0.076-1.595-0.076-0.539 0-1.065 0.068-1.594 0.116-6.392 0.579-12.139 4.479-17.66 8.798 0.193 0.152 0.387 0.306 0.579 0.459 0.673 0.535 1.333 1.048 1.999 1.572 5.489-4.256 10.843-7.762 16.677-7.762 5.813 0 11.153 3.487 16.624 7.726 1.106 0.852 2.218 1.735 3.333 2.631 0.886 0.703 1.772 1.413 2.664 2.11C78.324 95.748 84.569 100 91.616 100c2.729 0 5.336-0.65 7.854-1.707v-3.479c-2.556 1.229-5.154 2-7.854 2C85.777 96.814 80.417 93.299 74.913 89.033z" fill="#000000" data-fill-palette-color="accent"></path><path d="M91.652 75.416c-7.051 0-13.312 4.251-19.313 8.938 0.184 0.146 0.368 0.291 0.551 0.437 0.681 0.546 1.354 1.062 2.026 1.599 1.99-1.541 3.968-2.979 5.95-4.189v8.561c1.063 0.695 2.126 1.34 3.188 1.883V80.486c1.966-0.918 3.961-1.547 6.003-1.766v15.854c0.49 0.059 0.981 0.112 1.478 0.112 0.571 0 1.144-0.055 1.711-0.131V78.699c2.122 0.229 4.187 0.902 6.225 1.878v-3.474C96.962 76.059 94.367 75.416 91.652 75.416z" fill="#000000" data-fill-palette-color="accent"></path><path d="M24.463 89.068c-5.48 4.248-10.832 7.746-16.654 7.746C5.125 96.814 2.544 96 0 94.7v3.513C2.504 99.318 5.092 100 7.807 100c7.027 0 13.259-4.229 19.232-8.896-0.211-0.168-0.426-0.334-0.637-0.506C25.752 90.076 25.111 89.582 24.463 89.068z" fill="#000000" data-fill-palette-color="accent"></path><path d="M66.335 89.088c-1.955 1.51-3.891 2.911-5.838 4.109v-8.424c-1.066-0.701-2.13-1.342-3.188-1.893v11.833c0 0.065 0.027 0.12 0.036 0.183-1.978 0.932-3.982 1.571-6.035 1.797V80.857c-0.558-0.076-1.11-0.129-1.667-0.129-0.511 0-1.017 0.056-1.521 0.117v15.877c-2.062-0.218-4.073-0.844-6.053-1.771 0.011-0.08 0.047-0.152 0.047-0.236V82.807c-1.062 0.541-2.125 1.187-3.188 1.885v8.547c-3.062-1.875-6.098-4.288-9.213-6.774C22.91 81.033 15.874 75.417 7.776 75.417c-2.701 0-5.278 0.601-7.774 1.572v3.438c2.023-0.898 4.073-1.525 6.181-1.736v15.893H6.18c0.527 0.068 1.059 0.12 1.59 0.12 0.535 0 1.065-0.052 1.598-0.12V78.699c2.057 0.222 4.062 0.852 6.042 1.783-0.011 0.072-0.043 0.142-0.043 0.222v11.894c1.059-0.551 2.122-1.19 3.188-1.891v-8.506c3.046 1.871 6.07 4.275 9.172 6.752C34.534 94.384 41.573 100 49.675 100c7.021 0 13.257-4.219 19.237-8.878-0.219-0.175-0.439-0.351-0.659-0.524C67.606 90.085 66.972 89.594 66.335 89.088z" fill="#000000" data-fill-palette-color="accent"></path><path d="M84.187 13.561c3.075 0 5.572-2.497 5.572-5.573 0-3.072-2.497-5.573-5.572-5.573-3.076 0-5.569 2.5-5.569 5.573C78.618 11.063 81.111 13.561 84.187 13.561z" fill="#000000" data-fill-palette-color="accent"></path><path d="M72.121 38.5c1.773 0 3.209-1.437 3.209-3.209V20.25h1.26v19.334 2.666 24.667c0 1.772 1.437 3.209 3.209 3.209 1.771 0 3.209-1.437 3.209-3.209V42.25h2.362v24.667c0 1.772 1.437 3.209 3.209 3.209 1.771 0 3.209-1.437 3.209-3.209V42.25v-2.666V20.25h1.26v15.041c0 1.772 1.437 3.209 3.209 3.209s3.209-1.437 3.209-3.209V21.587c0-3.274-1.659-6.212-5.211-6.212h-2.467H76.59h-2.467c-3.879 0-5.211 3.375-5.211 6.212v13.704C68.912 37.063 70.349 38.5 72.121 38.5z" fill="#000000" data-fill-palette-color="accent"></path><path d="M43.228 24.839c2.462 0 4.46-2 4.46-4.462 0-2.459-1.998-4.462-4.46-4.462-2.463 0-4.459 2.001-4.459 4.462C38.769 22.839 40.765 24.839 43.228 24.839z" fill="#000000" data-fill-palette-color="accent"></path><path d="M33.567 44.806c1.42 0 2.569-1.15 2.569-2.569V30.194h1.009v15.479 2.134 19.749c0 1.419 1.15 2.569 2.569 2.569 1.418 0 2.569-1.15 2.569-2.569V47.808h1.892v19.749c0 1.419 1.15 2.569 2.569 2.569 1.419 0 2.569-1.15 2.569-2.569V47.808v-2.134V30.194h1.008v12.042c0 1.419 1.15 2.569 2.57 2.569 1.418 0 2.568-1.15 2.568-2.569V31.265c0-2.622-1.328-4.974-4.172-4.974h-1.975H37.145 35.17c-3.105 0-4.172 2.702-4.172 4.974v10.972C30.998 43.655 32.149 44.806 33.567 44.806z" fill="#000000" data-fill-palette-color="accent"></path><path d="M7.896 40.884c1.59 0 2.88-1.291 2.88-2.881 0-1.588-1.29-2.881-2.88-2.881-1.59 0-2.879 1.292-2.879 2.881C5.017 39.593 6.306 40.884 7.896 40.884z" fill="#000000" data-fill-palette-color="accent"></path><path d="M1.659 53.776c0.917 0 1.658-0.742 1.658-1.658v-7.775h0.651v9.994 1.378 12.752c0 0.917 0.743 1.659 1.659 1.659 0.916 0 1.659-0.742 1.659-1.659V58.108h1.221v10.358c0 0.917 0.742 1.659 1.659 1.659s1.659-0.742 1.659-1.659V55.715v-1.378-9.994h0.651v7.775c0 0.916 0.743 1.658 1.659 1.658 0.916 0 1.659-0.742 1.659-1.658v-7.085c0-1.692-0.857-3.211-2.694-3.211h-1.275H3.969 2.694C0.688 41.822 0 43.567 0 45.033v7.085C0 53.034 0.743 53.776 1.659 53.776z" fill="#000000" data-fill-palette-color="accent"></path></g></svg></g></svg></g><g><rect width="58.10185557400227" height="4.476832742156278" y="104.6229462207774" x="262.86262442599764" fill="#000000" data-fill-palette-color="secondary"></rect><rect width="58.10185557400227" height="4.476832742156278" y="104.6229462207774" x="76.53311999999998" fill="#000000" data-fill-palette-color="secondary"></rect></g></svg></g><defs></defs></svg><rect width="395.5199999999999" height="216.59951811426222" fill="none" stroke="none" visibility="hidden"></rect></g></svg></g></svg>