<svg width="997" height="546" viewBox="0 0 997 546" fill="none" xmlns="http://www.w3.org/2000/svg">
<g clip-path="url(#clip0_59_353)">
<g clip-path="url(#clip1_59_353)">
<path d="M987.032 305.547H9.97002C4.46373 305.547 0 308.06 0 311.161C0 314.262 4.46373 316.775 9.97002 316.775H987.032C992.538 316.775 997.002 314.262 997.002 311.161C997.002 308.06 992.538 305.547 987.032 305.547Z" fill="#0080FF"/>
<g clip-path="url(#clip2_59_353)">
<g clip-path="url(#clip3_59_353)">
<g clip-path="url(#clip4_59_353)">
<g clip-path="url(#clip5_59_353)">
<path d="M2.5835 412.157C2.5835 395.522 8.2454 381.192 19.5692 369.168C30.893 357.144 44.6313 351.132 60.7841 351.132C73.629 351.132 87.1258 352.846 101.275 356.275C101.854 356.395 102.675 360.838 103.737 369.603C104.8 378.391 105.331 383.618 105.331 385.284C105.331 386.226 104.268 386.697 102.144 386.697C99.681 386.697 97.8581 386.395 96.675 385.791C96.0714 383.546 95.1298 381.252 93.8501 378.91C92.5463 376.544 90.5906 373.888 87.983 370.943C85.3995 367.997 81.814 365.607 77.2265 363.772C72.6149 361.961 67.4238 361.055 61.6533 361.055C40.4302 361.055 29.8186 376.725 29.8186 408.065C29.8186 416.926 30.9655 425.159 33.2592 432.765C35.553 440.37 39.6213 446.938 45.4643 452.467C51.3073 458.02 58.5869 460.797 67.3031 460.797C72.4942 460.797 76.2728 459.843 78.639 457.936C79.9187 456.873 80.5585 455.111 80.5585 452.648V441.493V440.262C80.5585 434.25 80.148 429.71 79.3271 426.644C78.3855 423.457 74.4982 421.863 67.6653 421.863C67.1824 421.863 66.9168 420.898 66.8685 418.966C66.8202 417.01 67.0254 415.803 67.4842 415.344C69.6089 415.465 72.4097 415.61 75.8865 415.779C79.3633 415.948 82.5504 416.093 85.4478 416.214C88.321 416.334 91.1218 416.395 93.8501 416.395C95.6127 416.395 103.568 416.045 117.717 415.344C118.055 416.407 118.224 417.578 118.224 418.857C118.224 420.982 117.995 422.045 117.536 422.045C114.832 422.045 111.705 422.926 108.156 424.688C106.273 425.63 105.331 430.29 105.331 438.668V448.918C105.331 451.042 105.512 452.636 105.874 453.698C106.212 454.761 106.381 455.412 106.381 455.654C106.381 457.658 105.15 459.312 102.687 460.616C98.3169 462.837 94.9245 464.455 92.5101 465.469C90.0956 466.459 85.7979 467.581 79.6169 468.837C73.4117 470.068 66.4822 470.684 58.8284 470.684C43.2551 470.684 29.9876 464.877 19.026 453.264C8.06432 441.65 2.5835 427.948 2.5835 412.157ZM153.97 352.544C159.137 352.544 168.264 352.399 181.35 352.11C194.437 351.82 204.348 351.675 211.084 351.675C211.205 352.858 212.907 361.574 216.191 377.824C215.611 378.427 214.259 378.729 212.135 378.729C210.831 378.729 210.01 378.319 209.672 377.498C207.426 373.007 203.889 369.168 199.06 365.981C194.207 362.794 189.487 361.2 184.899 361.2H178.163C170.751 361.2 166.924 361.973 166.682 363.518C166.103 366.343 165.813 370.943 165.813 377.317V404.552C165.813 405.252 168.348 405.602 173.419 405.602H182.763C190.078 405.602 194.086 405.373 194.787 404.914C195.39 404.431 195.873 402.717 196.235 399.771C196.453 398.009 196.803 396.294 197.286 394.628C197.406 393.807 198.288 393.397 199.929 393.397C201.933 393.397 203.225 393.699 203.805 394.302V427.694C203.346 428.177 202.115 428.419 200.11 428.419C198.565 428.419 197.624 427.948 197.286 427.006C196.803 425.364 196.392 423.952 196.054 422.769C195.692 421.586 195.39 420.692 195.149 420.089C194.907 419.509 194.642 418.99 194.352 418.532C194.062 418.049 193.857 417.747 193.736 417.626C193.616 417.505 193.386 417.361 193.048 417.192C192.686 417.023 192.445 416.878 192.324 416.757C190.803 415.815 186.203 415.344 178.525 415.344C170.05 415.344 165.813 415.876 165.813 416.938V444.173C165.813 449.823 166.284 454 167.226 456.704C167.805 458.587 171.813 459.529 179.25 459.529H183.849C191.141 459.529 197.744 457.996 203.66 454.93C205.664 453.867 207.933 451.863 210.469 448.918C213.004 445.972 214.972 442.676 216.372 439.03C216.493 438.33 217.326 437.98 218.871 437.98C221.696 437.98 223.458 438.33 224.159 439.03C218.388 455.304 215.201 465.444 214.597 469.453C208.585 469.453 199.036 469.332 185.95 469.09C172.863 468.849 162.252 468.728 154.115 468.728L128.329 469.815C127.846 469.332 127.604 468.33 127.604 466.809C127.604 464.442 127.846 463.259 128.329 463.259C129.729 463.259 131.938 462.849 134.956 462.028C137.95 461.207 139.628 460.314 139.99 459.348C140.691 456.644 141.041 451.465 141.041 443.811V376.955C141.041 370.46 140.691 365.86 139.99 363.156C139.628 362.214 137.89 361.152 134.775 359.969C131.636 358.786 129.427 358.194 128.148 358.194C127.665 358.194 127.423 357.144 127.423 355.043C127.423 353.136 127.604 352.013 127.966 351.675C137.383 352.255 146.051 352.544 153.97 352.544ZM332.012 417.988V376.411C332.012 369.699 331.252 365.462 329.731 363.699C328.668 362.395 326.459 361.212 323.103 360.15C319.747 359.088 317.357 358.556 315.932 358.556C315.449 358.556 315.16 357.591 315.063 355.659C314.942 353.703 315.051 352.496 315.389 352.037C326.23 352.979 334.016 353.45 338.749 353.45C341.694 353.45 345.727 353.245 350.845 352.834C355.988 352.399 359.26 352.134 360.66 352.037C361.143 352.979 361.384 354.029 361.384 355.188C361.384 357.434 361.083 358.556 360.479 358.556C354.008 358.556 349.119 360.5 345.811 364.387C344.169 366.391 343.348 370.701 343.348 377.317V444.499C343.348 448.749 343.578 457.006 344.036 469.271C343.578 469.73 342.105 469.96 339.618 469.96C338.218 469.96 336.395 468.607 334.149 465.903L262.186 376.411V444.173C262.186 450.644 262.657 454.821 263.599 456.704C264.661 458.708 267.136 460.278 271.023 461.412C274.91 462.523 277.735 463.078 279.498 463.078C279.86 463.078 280.065 464.08 280.114 466.084C280.186 468.088 280.102 469.332 279.86 469.815C278.798 469.815 275.321 469.573 269.43 469.09C263.538 468.607 259.06 468.366 255.993 468.366C252.927 468.366 249.027 468.583 244.295 469.018C239.587 469.428 236.17 469.694 234.046 469.815C233.708 469.453 233.539 468.39 233.539 466.628C233.539 464.382 233.708 463.259 234.046 463.259C235.229 463.259 236.581 463.139 238.102 462.897C239.647 462.656 241.603 461.98 243.969 460.869C246.311 459.758 248.013 458.31 249.076 456.523C250.259 454.64 250.85 450.342 250.85 443.63V374.13C250.85 367.997 249.969 363.808 248.207 361.562C247.603 360.741 245.539 360.041 242.013 359.462C238.464 358.858 235.869 358.556 234.227 358.556C233.768 358.556 233.478 357.591 233.358 355.659C233.237 353.703 233.406 352.496 233.865 352.037C235.748 352.134 239.49 352.399 245.092 352.834C250.693 353.245 255.027 353.45 258.094 353.45C262.102 353.45 267.884 352.979 275.442 352.037C277.446 356.045 281.357 361.852 287.176 369.458C293.019 377.039 300.54 386.431 309.739 397.634C318.938 408.837 326.242 418.037 331.65 425.232C331.892 424.411 332.012 421.996 332.012 417.988ZM469.419 417.988V376.411C469.419 369.699 468.647 365.462 467.102 363.699C466.063 362.395 463.854 361.212 460.474 360.15C457.118 359.088 454.74 358.556 453.339 358.556C452.856 358.556 452.554 357.591 452.434 355.659C452.313 353.703 452.434 352.496 452.796 352.037C463.637 352.979 471.411 353.45 476.12 353.45C479.089 353.45 483.134 353.245 488.252 352.834C493.371 352.399 496.642 352.134 498.067 352.037C498.526 352.979 498.755 354.029 498.755 355.188C498.755 357.434 498.465 358.556 497.886 358.556C491.415 358.556 486.526 360.5 483.218 364.387C481.552 366.391 480.719 370.701 480.719 377.317V444.499C480.719 448.749 480.961 457.006 481.443 469.271C480.961 469.73 479.488 469.96 477.025 469.96C475.6 469.96 473.778 468.607 471.556 465.903L399.557 376.411V444.173C399.557 450.644 400.028 454.821 400.969 456.704C402.032 458.708 404.507 460.278 408.394 461.412C412.305 462.523 415.142 463.078 416.905 463.078C417.243 463.078 417.448 464.08 417.521 466.084C417.569 468.088 417.484 469.332 417.267 469.815C416.205 469.815 412.716 469.573 406.8 469.09C400.909 468.607 396.43 468.366 393.364 468.366C390.298 468.366 386.41 468.583 381.702 469.018C376.994 469.428 373.577 469.694 371.453 469.815C371.091 469.453 370.909 468.39 370.909 466.628C370.909 464.382 371.091 463.259 371.453 463.259C372.636 463.259 373.988 463.139 375.509 462.897C377.054 462.656 378.998 461.98 381.34 460.869C383.706 459.758 385.42 458.31 386.483 456.523C387.666 454.64 388.257 450.342 388.257 443.63V374.13C388.257 367.997 387.364 363.808 385.577 361.562C384.998 360.741 382.946 360.041 379.42 359.462C375.871 358.858 373.276 358.556 371.634 358.556C371.151 358.556 370.849 357.591 370.728 355.659C370.608 353.703 370.789 352.496 371.272 352.037C373.155 352.134 376.897 352.399 382.499 352.834C388.1 353.245 392.434 353.45 395.501 353.45C399.509 353.45 405.279 352.979 412.812 352.037C414.816 356.045 418.74 361.852 424.583 369.458C430.426 377.039 437.947 386.431 447.146 397.634C456.345 408.837 463.649 418.037 469.057 425.232C469.299 424.411 469.419 421.996 469.419 417.988ZM521.391 444.68V376.773C521.391 369.24 520.92 364.641 519.978 362.975C519.399 362.033 517.745 361.067 515.017 360.077C512.312 359.063 510.308 358.556 509.005 358.556C508.546 358.556 508.316 357.554 508.316 355.55C508.316 353.426 508.437 352.255 508.679 352.037C510.441 352.134 513.266 352.339 517.153 352.653C521.041 352.943 523.962 353.112 525.918 353.16C527.849 353.232 530.65 353.208 534.32 353.088C536.662 353.088 544.908 352.737 559.056 352.037C559.418 353.1 559.6 354.15 559.6 355.188C559.6 357.434 559.358 358.556 558.875 358.556C557.813 358.556 555.7 359.063 552.537 360.077C549.35 361.067 547.636 361.973 547.394 362.794C547.032 364.218 546.743 366.198 546.525 368.733C546.284 371.268 546.163 373.417 546.163 375.18V377.824V443.268C546.163 449.98 546.634 455.171 547.576 458.841C547.817 459.662 549.435 460.604 552.429 461.666C555.447 462.728 557.487 463.259 558.549 463.259C559.008 463.259 559.237 464.382 559.237 466.628C559.237 468.028 559.117 469.09 558.875 469.815C558.054 469.815 554.517 469.573 548.264 469.09C542.034 468.607 537.386 468.366 534.32 468.366C531.133 468.366 526.473 468.583 520.34 469.018C514.208 469.428 510.32 469.694 508.679 469.815C508.196 469.332 507.954 468.378 507.954 466.954C507.954 464.491 508.135 463.259 508.497 463.259C509.801 463.259 511.974 462.752 515.017 461.738C518.083 460.748 519.797 459.783 520.159 458.841C520.98 455.654 521.391 450.934 521.391 444.68ZM595.672 352.544C600.863 352.544 610.001 352.399 623.088 352.11C636.174 351.82 646.073 351.675 652.786 351.675C652.906 352.858 654.621 361.574 657.928 377.824C657.325 378.427 655.961 378.729 653.836 378.729C652.556 378.729 651.735 378.319 651.373 377.498C649.128 373.007 645.591 369.168 640.762 365.981C635.933 362.794 631.212 361.2 626.601 361.2H619.901C612.464 361.2 608.625 361.973 608.384 363.518C607.804 366.343 607.514 370.943 607.514 377.317V404.552C607.514 405.252 610.05 405.602 615.12 405.602H624.5C631.792 405.602 635.8 405.373 636.524 404.914C637.104 404.431 637.575 402.717 637.937 399.771C638.178 398.009 638.528 396.294 638.987 394.628C639.108 393.807 639.989 393.397 641.631 393.397C643.635 393.397 644.939 393.699 645.542 394.302V427.694C645.059 428.177 643.816 428.419 641.812 428.419C640.291 428.419 639.349 427.948 638.987 427.006C638.528 425.364 638.118 423.952 637.756 422.769C637.393 421.586 637.092 420.692 636.85 420.089C636.633 419.509 636.367 418.99 636.053 418.532C635.764 418.049 635.558 417.747 635.438 417.626C635.341 417.505 635.112 417.361 634.75 417.192C634.387 417.023 634.146 416.878 634.025 416.757C632.504 415.815 627.905 415.344 620.227 415.344C611.752 415.344 607.514 415.876 607.514 416.938V444.173C607.514 449.823 607.985 454 608.927 456.704C609.506 458.587 613.514 459.529 620.951 459.529H625.551C632.866 459.529 639.47 457.996 645.361 454.93C647.365 453.867 649.635 451.863 652.17 448.918C654.705 445.972 656.673 442.676 658.073 439.03C658.194 438.33 659.027 437.98 660.572 437.98C663.397 437.98 665.16 438.33 665.86 439.03C660.089 455.304 656.914 465.444 656.335 469.453C650.323 469.453 640.774 469.332 627.687 469.09C614.601 468.849 603.989 468.728 595.853 468.728L570.03 469.815C569.547 469.332 569.306 468.33 569.306 466.809C569.306 464.442 569.547 463.259 570.03 463.259C571.43 463.259 573.64 462.849 576.658 462.028C579.652 461.207 581.33 460.314 581.692 459.348C582.392 456.644 582.742 451.465 582.742 443.811V376.955C582.742 370.46 582.392 365.86 581.692 363.156C581.33 362.214 579.591 361.152 576.477 359.969C573.362 358.786 571.153 358.194 569.849 358.194C569.366 358.194 569.125 357.144 569.125 355.043C569.125 353.136 569.306 352.013 569.668 351.675C579.108 352.255 587.776 352.544 595.672 352.544ZM738.185 353.088C740.527 353.088 748.773 352.737 762.921 352.037C763.283 353.1 763.464 354.15 763.464 355.188C763.464 357.434 763.235 358.556 762.776 358.556C761.714 358.556 759.589 359.063 756.402 360.077C753.215 361.067 751.501 361.973 751.259 362.794C750.438 365.981 750.028 370.701 750.028 376.955V443.992C750.028 449.763 750.499 454 751.441 456.704C752.02 458.587 756.028 459.529 763.464 459.529H768.064C775.38 459.529 781.983 457.996 787.875 454.93C789.879 453.867 792.148 451.863 794.683 448.918C797.219 445.972 799.186 442.676 800.587 439.03C800.828 438.33 801.661 437.98 803.086 437.98C805.911 437.98 807.673 438.33 808.373 439.03C802.603 455.304 799.428 465.444 798.848 469.453C792.112 469.453 781.609 469.332 767.34 469.09C753.094 468.849 743.437 468.728 738.366 468.728L712.544 469.815C712.061 469.332 711.819 468.33 711.819 466.809C711.819 464.442 712.061 463.259 712.544 463.259C713.944 463.259 716.153 462.849 719.171 462.028C722.165 461.207 723.843 460.314 724.205 459.348C724.906 456.644 725.256 451.465 725.256 443.811V376.266C725.256 369.071 724.785 364.641 723.843 362.975C723.264 362.033 721.622 361.067 718.918 360.077C716.189 359.063 714.185 358.556 712.906 358.556C712.423 358.556 712.181 357.554 712.181 355.55C712.181 353.426 712.302 352.255 712.544 352.037C728.817 352.737 737.364 353.088 738.185 353.088ZM850.276 457.61C853.343 457.61 855.733 456.873 857.447 455.4C859.162 453.928 860.019 452.129 860.019 450.004V432.113C859.777 432.234 858.63 432.62 856.578 433.272C854.502 433.924 853.174 434.37 852.594 434.612C851.991 434.853 850.868 435.288 849.226 435.916C847.584 436.568 846.437 437.159 845.786 437.69C845.134 438.221 844.337 438.898 843.395 439.718C842.454 440.563 841.802 441.457 841.439 442.398C841.077 443.34 840.896 444.402 840.896 445.586C840.896 449.811 841.814 452.865 843.649 454.748C845.484 456.656 847.693 457.61 850.276 457.61ZM857.375 389.703C865.608 389.703 871.934 391.972 876.353 396.512C880.795 401.051 883.017 409.272 883.017 421.175V449.823C883.017 453.831 884.429 455.835 887.254 455.835C889.258 455.835 891.262 455.062 893.266 453.517C894.087 454 894.497 454.893 894.497 456.197C894.497 459.143 894.087 461.316 893.266 462.716C891.6 464.261 888.92 465.879 885.226 467.569C881.507 469.284 877.994 470.141 874.687 470.141C871.862 470.141 869.145 469.284 866.538 467.569C863.954 465.879 862.252 463.911 861.431 461.666C861.311 461.666 860.84 461.992 860.019 462.644C859.198 463.296 858.135 464.032 856.832 464.853C855.528 465.674 854.019 466.495 852.305 467.316C850.614 468.137 848.586 468.849 846.22 469.453C843.854 470.032 841.5 470.322 839.158 470.322C832.663 470.322 827.496 468.523 823.657 464.925C819.842 461.328 817.935 456.825 817.935 451.416C817.935 448.229 818.671 445.308 820.144 442.652C821.617 439.996 823.319 437.811 825.251 436.097C827.206 434.407 829.838 432.825 833.146 431.352C836.43 429.855 839.254 428.733 841.621 427.984C843.987 427.212 847.017 426.33 850.711 425.34C854.429 424.326 857.001 423.578 858.425 423.095C859.488 422.757 860.019 421.876 860.019 420.451V414.077C860.019 404.419 857.073 399.59 851.182 399.59C844.325 399.59 840.896 403.538 840.896 411.433C840.896 414.041 839.846 415.96 837.745 417.192C835.621 418.423 833.254 419.039 830.647 419.039C825.238 419.039 821.532 417.276 819.528 413.751C819.528 407.739 823.5 402.222 831.444 397.2C839.411 392.202 848.055 389.703 857.375 389.703ZM955.486 390.029C966.11 390.029 975.249 393.832 982.903 401.437C990.581 409.043 994.42 418.266 994.42 429.107C994.42 440.914 990.376 450.765 982.287 458.66C974.223 466.555 964.408 470.503 952.843 470.503C947.314 470.503 942.895 469.972 939.587 468.909C936.28 467.847 933.092 467.316 930.026 467.316C928.843 467.316 927.02 467.883 924.557 469.018C922.07 470.129 920.658 470.684 920.32 470.684C919.958 470.684 918.92 470.129 917.205 469.018C915.491 467.883 914.634 467.026 914.634 466.447C914.634 466.084 914.755 465.022 914.996 463.259C915.237 461.497 915.479 459.107 915.72 456.088C915.938 453.095 916.046 449.883 916.046 446.455V375.18C916.046 370.23 915.696 365.993 914.996 362.468C914.417 360.584 911.35 359.643 905.797 359.643H904.203C903.503 359.643 903.153 358.46 903.153 356.094C903.153 354.09 903.503 353.088 904.203 353.088C907.873 352.725 911.555 352.255 915.25 351.675C918.968 351.072 922.131 350.48 924.738 349.901C927.322 349.321 929.652 348.729 931.728 348.126C933.781 347.546 935.398 347.076 936.581 346.713L938.356 346.17H938.682C939.165 346.17 939.636 346.532 940.094 347.257C940.577 347.957 940.879 348.597 941 349.176C939.696 354.488 939.044 360.452 939.044 367.067V392.89C939.044 393.228 939.044 393.518 939.044 393.759C939.044 394.001 939.08 394.327 939.153 394.737C939.201 395.147 939.31 395.353 939.479 395.353C939.672 395.353 939.877 395.292 940.094 395.172C944.344 391.743 949.474 390.029 955.486 390.029ZM953.567 400.821C948.955 400.821 945.382 402.125 942.847 404.733C940.312 407.316 939.044 410.021 939.044 412.845V446.274C939.044 450.982 940.408 454.604 943.137 457.139C945.841 459.674 949.257 460.942 953.386 460.942C958.674 460.942 962.585 458.563 965.12 453.807C967.655 449.026 968.923 442.749 968.923 434.974C968.923 412.206 963.804 400.821 953.567 400.821Z" fill="#0080FF"/>
</g>
</g>
<g clip-path="url(#clip6_59_353)">
<g clip-path="url(#clip7_59_353)">
<path d="M20.3567 536.711C17.882 536.711 15.5701 536.255 13.4211 535.343C11.272 534.431 9.38342 533.168 7.75533 531.553C6.12725 529.944 4.85083 528.082 3.92607 525.965C2.99481 523.849 2.52917 521.569 2.52917 519.127C2.52917 516.685 2.99481 514.406 3.92607 512.289C4.85083 510.173 6.12725 508.307 7.75533 506.692C9.38342 505.083 11.272 503.823 13.4211 502.911C15.5701 502 17.882 501.544 20.3567 501.544C21.8871 501.544 23.3687 501.707 24.8014 502.032C26.2341 502.358 27.5529 502.846 28.7576 503.498C29.2461 503.758 29.614 504.106 29.8615 504.543C30.1024 504.986 30.2229 505.435 30.2229 505.891C30.2229 506.672 29.9624 507.372 29.4414 507.991C28.9205 508.61 28.2529 508.919 27.4389 508.919C27.1784 508.919 26.9114 508.887 26.6379 508.821C26.3578 508.756 26.0876 508.659 25.8271 508.528C25.013 508.17 24.1502 507.893 23.2384 507.698C22.3267 507.503 21.3661 507.405 20.3567 507.405C18.2402 507.405 16.3126 507.933 14.5738 508.988C12.8284 510.049 11.4446 511.465 10.4221 513.237C9.39319 515.015 8.87871 516.978 8.87871 519.127C8.87871 521.244 9.39319 523.197 10.4221 524.988C11.4446 526.779 12.8284 528.202 14.5738 529.257C16.3126 530.319 18.2402 530.849 20.3567 530.849C21.3336 530.849 22.4081 530.752 23.5803 530.556C24.7526 530.361 25.7131 530.101 26.462 529.775L26.0225 531.24V522.888L26.8528 523.621H21.4313C20.5847 523.621 19.8781 523.344 19.3115 522.79C18.7384 522.237 18.4519 521.537 18.4519 520.69C18.4519 519.844 18.7384 519.144 19.3115 518.59C19.8781 518.036 20.5847 517.76 21.4313 517.76H29.4414C30.288 517.76 30.9881 518.043 31.5417 518.609C32.0952 519.183 32.372 519.892 32.372 520.739V531.094C32.372 531.745 32.219 532.282 31.9129 532.705C31.6003 533.129 31.2486 533.471 30.8579 533.731C29.36 534.643 27.7254 535.366 25.9541 535.9C24.1762 536.44 22.3104 536.711 20.3567 536.711ZM41.2125 502.032H57.5748C58.4214 502.032 59.128 502.299 59.6945 502.833C60.2676 503.374 60.5542 504.067 60.5542 504.914C60.5542 505.728 60.2676 506.386 59.6945 506.887C59.128 507.395 58.4214 507.649 57.5748 507.649H43.8988L44.3384 506.819V516.343L43.9477 515.952H55.3769C56.2235 515.952 56.93 516.219 57.4966 516.753C58.0697 517.294 58.3563 517.988 58.3563 518.834C58.3563 519.648 58.0697 520.306 57.4966 520.807C56.93 521.315 56.2235 521.569 55.3769 521.569H44.0942L44.3384 521.179V531.045L43.9477 530.605H57.5748C58.4214 530.605 59.128 530.889 59.6945 531.455C60.2676 532.028 60.5542 532.689 60.5542 533.438C60.5542 534.252 60.2676 534.92 59.6945 535.441C59.128 535.962 58.4214 536.222 57.5748 536.222H41.2125C40.3659 536.222 39.6561 535.936 39.083 535.363C38.5164 534.796 38.2331 534.089 38.2331 533.243V505.012C38.2331 504.165 38.5164 503.455 39.083 502.882C39.6561 502.316 40.3659 502.032 41.2125 502.032ZM79.6516 509.603C82.0612 509.603 83.8912 510.108 85.1415 511.117C86.3984 512.126 87.2613 513.468 87.7302 515.142C88.2056 516.822 88.4433 518.688 88.4433 520.739V533.243C88.4433 534.089 88.1665 534.796 87.613 535.363C87.0594 535.936 86.3593 536.222 85.5127 536.222C84.6661 536.222 83.9661 535.936 83.4125 535.363C82.859 534.796 82.5822 534.089 82.5822 533.243V520.739C82.5822 519.664 82.4422 518.697 82.1621 517.838C81.8886 516.972 81.3937 516.278 80.6773 515.757C79.961 515.236 78.9353 514.976 77.6002 514.976C76.2978 514.976 75.1972 515.236 74.2985 515.757C73.4063 516.278 72.7225 516.972 72.2471 517.838C71.7782 518.697 71.5438 519.664 71.5438 520.739V533.243C71.5438 534.089 71.267 534.796 70.7134 535.363C70.1599 535.936 69.4598 536.222 68.6132 536.222C67.7666 536.222 67.0665 535.936 66.513 535.363C65.9594 534.796 65.6826 534.089 65.6826 533.243V513.071C65.6826 512.224 65.9594 511.514 66.513 510.941C67.0665 510.375 67.7666 510.091 68.6132 510.091C69.4598 510.091 70.1599 510.375 70.7134 510.941C71.267 511.514 71.5438 512.224 71.5438 513.071V515.171L70.8111 515.024C71.1042 514.471 71.5275 513.875 72.081 513.237C72.6346 512.605 73.2858 512.012 74.0347 511.459C74.7836 510.905 75.6303 510.456 76.5745 510.111C77.5188 509.772 78.5445 509.603 79.6516 509.603ZM119.888 523.181C119.888 525.851 119.296 528.202 118.11 530.234C116.919 532.272 115.323 533.861 113.324 535.001C111.318 536.141 109.078 536.711 106.603 536.711C104.128 536.711 101.891 536.141 99.892 535.001C97.8862 533.861 96.2907 532.272 95.1054 530.234C93.9137 528.202 93.3178 525.851 93.3178 523.181C93.3178 520.511 93.9137 518.157 95.1054 516.119C96.2907 514.087 97.8862 512.491 99.892 511.332C101.891 510.179 104.128 509.603 106.603 509.603C109.078 509.603 111.318 510.179 113.324 511.332C115.323 512.491 116.919 514.087 118.11 516.119C119.296 518.157 119.888 520.511 119.888 523.181ZM114.027 523.181C114.027 521.521 113.695 520.078 113.031 518.854C112.36 517.636 111.464 516.685 110.344 516.001C109.218 515.318 107.971 514.976 106.603 514.976C105.235 514.976 103.992 515.318 102.871 516.001C101.745 516.685 100.849 517.636 100.185 518.854C99.5143 520.078 99.1789 521.521 99.1789 523.181C99.1789 524.809 99.5143 526.235 100.185 527.46C100.849 528.678 101.745 529.628 102.871 530.312C103.992 530.996 105.235 531.338 106.603 531.338C107.971 531.338 109.218 530.996 110.344 530.312C111.464 529.628 112.36 528.678 113.031 527.46C113.695 526.235 114.027 524.809 114.027 523.181ZM138.497 509.603C141.102 509.603 143.023 510.228 144.261 511.478C145.498 512.735 146.312 514.357 146.703 516.343L145.872 515.904L146.263 515.122C146.654 514.373 147.256 513.566 148.07 512.7C148.884 511.84 149.871 511.107 151.03 510.502C152.183 509.902 153.476 509.603 154.908 509.603C157.253 509.603 159.037 510.108 160.261 511.117C161.479 512.126 162.316 513.468 162.772 515.142C163.228 516.822 163.456 518.688 163.456 520.739V533.243C163.456 534.089 163.179 534.796 162.625 535.363C162.072 535.936 161.372 536.222 160.525 536.222C159.679 536.222 158.978 535.936 158.425 535.363C157.871 534.796 157.595 534.089 157.595 533.243V520.739C157.595 519.664 157.464 518.697 157.204 517.838C156.943 516.972 156.471 516.278 155.787 515.757C155.104 515.236 154.127 514.976 152.857 514.976C151.62 514.976 150.561 515.236 149.682 515.757C148.803 516.278 148.145 516.972 147.709 517.838C147.266 518.697 147.045 519.664 147.045 520.739V533.243C147.045 534.089 146.768 534.796 146.214 535.363C145.661 535.936 144.961 536.222 144.114 536.222C143.267 536.222 142.567 535.936 142.014 535.363C141.46 534.796 141.184 534.089 141.184 533.243V520.739C141.184 519.664 141.053 518.697 140.793 517.838C140.532 516.972 140.06 516.278 139.376 515.757C138.693 515.236 137.716 514.976 136.446 514.976C135.208 514.976 134.15 515.236 133.271 515.757C132.392 516.278 131.734 516.972 131.298 517.838C130.855 518.697 130.634 519.664 130.634 520.739V533.243C130.634 534.089 130.357 534.796 129.803 535.363C129.25 535.936 128.55 536.222 127.703 536.222C126.856 536.222 126.156 535.936 125.603 535.363C125.049 534.796 124.772 534.089 124.772 533.243V513.071C124.772 512.224 125.049 511.514 125.603 510.941C126.156 510.375 126.856 510.091 127.703 510.091C128.55 510.091 129.25 510.375 129.803 510.941C130.357 511.514 130.634 512.224 130.634 513.071V515.171L129.901 515.024C130.194 514.471 130.601 513.875 131.122 513.237C131.643 512.605 132.278 512.012 133.027 511.459C133.776 510.905 134.606 510.456 135.518 510.111C136.43 509.772 137.423 509.603 138.497 509.603ZM175.324 513.071V533.243C175.324 534.089 175.048 534.796 174.494 535.363C173.941 535.936 173.241 536.222 172.394 536.222C171.547 536.222 170.847 535.936 170.294 535.363C169.74 534.796 169.463 534.089 169.463 533.243V513.071C169.463 512.224 169.74 511.514 170.294 510.941C170.847 510.375 171.547 510.091 172.394 510.091C173.241 510.091 173.941 510.375 174.494 510.941C175.048 511.514 175.324 512.224 175.324 513.071ZM172.345 506.917C171.238 506.917 170.457 506.737 170.001 506.379C169.545 506.021 169.317 505.386 169.317 504.474V503.546C169.317 502.602 169.568 501.957 170.069 501.612C170.577 501.274 171.352 501.104 172.394 501.104C173.534 501.104 174.331 501.283 174.787 501.642C175.243 502 175.471 502.635 175.471 503.546V504.474C175.471 505.419 175.227 506.06 174.738 506.399C174.25 506.744 173.452 506.917 172.345 506.917ZM192.712 509.603C194.568 509.603 196.187 509.798 197.567 510.189C198.955 510.58 200.029 511.124 200.791 511.82C201.559 512.524 201.944 513.364 201.944 514.341C201.944 514.992 201.748 515.601 201.358 516.167C200.967 516.74 200.397 517.027 199.648 517.027C199.127 517.027 198.694 516.952 198.349 516.802C198.01 516.659 197.711 516.473 197.45 516.246C197.19 516.018 196.88 515.806 196.522 515.611C196.197 515.415 195.698 515.259 195.028 515.142C194.363 515.031 193.868 514.976 193.543 514.976C191.882 514.976 190.472 515.334 189.313 516.05C188.16 516.766 187.275 517.734 186.656 518.951C186.037 520.176 185.728 521.586 185.728 523.181C185.728 524.744 186.044 526.135 186.675 527.352C187.314 528.577 188.193 529.547 189.313 530.263C190.44 530.98 191.736 531.338 193.201 531.338C194.015 531.338 194.715 531.289 195.301 531.191C195.887 531.094 196.376 530.947 196.766 530.752C197.222 530.491 197.629 530.214 197.987 529.921C198.346 529.628 198.883 529.482 199.599 529.482C200.446 529.482 201.097 529.749 201.553 530.283C202.009 530.823 202.237 531.484 202.237 532.266C202.237 533.08 201.781 533.819 200.869 534.483C199.957 535.154 198.759 535.691 197.274 536.095C195.796 536.505 194.194 536.711 192.468 536.711C189.896 536.711 187.665 536.115 185.777 534.923C183.888 533.738 182.429 532.119 181.401 530.068C180.378 528.017 179.867 525.721 179.867 523.181C179.867 520.511 180.411 518.157 181.498 516.119C182.592 514.087 184.106 512.491 186.041 511.332C187.981 510.179 190.205 509.603 192.712 509.603ZM204.962 532.168C204.637 531.712 204.49 531.126 204.523 530.41C204.555 529.694 204.978 529.075 205.792 528.554C206.313 528.228 206.867 528.088 207.453 528.134C208.039 528.186 208.609 528.489 209.163 529.042C210.107 529.987 211.1 530.719 212.142 531.24C213.184 531.761 214.486 532.022 216.049 532.022C216.538 531.989 217.075 531.914 217.661 531.797C218.247 531.686 218.762 531.426 219.205 531.016C219.641 530.612 219.859 529.987 219.859 529.14C219.859 528.424 219.615 527.854 219.127 527.43C218.638 527.007 217.997 526.649 217.202 526.356C216.401 526.063 215.512 525.786 214.535 525.526C213.526 525.233 212.494 524.907 211.439 524.549C210.377 524.191 209.407 523.725 208.528 523.152C207.649 522.585 206.932 521.83 206.379 520.886C205.825 519.941 205.548 518.753 205.548 517.32C205.548 515.692 206.004 514.308 206.916 513.168C207.828 512.029 209.01 511.15 210.462 510.531C211.908 509.912 213.428 509.603 215.024 509.603C216.033 509.603 217.091 509.723 218.199 509.964C219.306 510.212 220.364 510.603 221.373 511.137C222.383 511.677 223.229 512.387 223.913 513.266C224.271 513.755 224.483 514.341 224.548 515.024C224.613 515.708 224.304 516.327 223.62 516.88C223.132 517.271 222.562 517.441 221.911 517.388C221.259 517.343 220.722 517.125 220.299 516.734C219.745 516.018 219.006 515.448 218.081 515.024C217.15 514.601 216.082 514.389 214.877 514.389C214.389 514.389 213.861 514.445 213.295 514.556C212.722 514.673 212.223 514.917 211.8 515.288C211.377 515.666 211.165 516.262 211.165 517.076C211.165 517.825 211.409 518.417 211.898 518.854C212.386 519.297 213.047 519.655 213.881 519.928C214.708 520.208 215.594 520.479 216.538 520.739C217.515 521 218.508 521.309 219.517 521.667C220.527 522.025 221.455 522.497 222.301 523.083C223.148 523.67 223.832 524.425 224.353 525.35C224.874 526.281 225.134 527.463 225.134 528.896C225.134 530.556 224.646 531.973 223.669 533.145C222.692 534.317 221.471 535.203 220.006 535.802C218.54 536.408 217.043 536.711 215.512 536.711C213.591 536.711 211.67 536.375 209.749 535.704C207.828 535.04 206.232 533.861 204.962 532.168ZM254.147 536.711C251.835 536.711 249.757 536.206 247.914 535.196C246.078 534.187 244.629 532.868 243.567 531.24C242.512 529.612 241.985 527.87 241.985 526.014C241.985 524.386 242.268 522.895 242.835 521.54C243.408 520.192 244.271 518.997 245.423 517.955C246.583 516.913 248.058 516.034 249.848 515.318L253.658 519.274C251.379 519.762 249.855 520.501 249.087 521.491C248.325 522.488 247.944 523.702 247.944 525.135C247.944 526.112 248.188 527.063 248.676 527.987C249.165 528.919 249.962 529.684 251.07 530.283C252.177 530.889 253.658 531.191 255.514 531.191C257.045 531.191 258.419 530.84 259.637 530.136C260.861 529.44 261.919 528.512 262.811 527.352C263.71 526.2 264.443 524.913 265.009 523.494C265.582 522.081 265.967 520.641 266.162 519.176C266.227 518.655 266.429 518.248 266.768 517.955C267.113 517.662 267.692 517.515 268.506 517.515C269.353 517.515 270.02 517.857 270.509 518.541C270.997 519.225 271.176 520.023 271.046 520.934C270.753 522.888 270.19 524.799 269.356 526.669C268.529 528.544 267.422 530.237 266.035 531.748C264.654 533.266 262.977 534.47 261.004 535.363C259.037 536.261 256.752 536.711 254.147 536.711ZM271.535 536.32C271.144 536.32 270.808 536.271 270.528 536.173C270.255 536.076 270.037 535.962 269.874 535.831C267.53 533.813 265.387 531.947 263.446 530.234C261.512 528.528 259.731 526.893 258.103 525.33C256.475 523.767 254.944 522.172 253.512 520.544C252.372 519.241 251.33 518.069 250.386 517.027C249.441 515.985 248.683 514.966 248.11 513.969C247.543 512.98 247.26 511.882 247.26 510.677C247.26 509.082 247.69 507.591 248.549 506.203C249.415 504.823 250.646 503.699 252.242 502.833C253.837 501.974 255.726 501.544 257.908 501.544C260.154 501.544 262.18 501.918 263.984 502.667C265.794 503.416 267.009 504.409 267.627 505.647C267.66 505.679 267.741 505.881 267.871 506.252C268.002 506.63 268.067 507.063 268.067 507.552C268.067 508.17 267.839 508.707 267.383 509.163C266.927 509.619 266.308 509.847 265.527 509.847C265.006 509.847 264.599 509.749 264.306 509.554C264.013 509.359 263.785 509.163 263.622 508.968C262.906 508.024 262.082 507.363 261.151 506.985C260.226 506.614 259.145 506.428 257.908 506.428C256.442 506.428 255.325 506.819 254.557 507.6C253.795 508.382 253.414 509.31 253.414 510.384C253.414 511.394 253.772 512.393 254.489 513.383C255.205 514.38 256.025 515.318 256.95 516.197C257.881 517.076 258.656 517.857 259.275 518.541C260.285 519.616 261.414 520.762 262.665 521.98C263.922 523.204 265.185 524.392 266.455 525.545C267.725 526.704 268.904 527.779 269.991 528.769C271.085 529.765 271.974 530.589 272.658 531.24C273.081 531.631 273.397 532.022 273.606 532.412C273.82 532.803 273.928 533.275 273.928 533.829C273.928 534.252 273.739 534.773 273.361 535.392C272.99 536.01 272.381 536.32 271.535 536.32ZM318.414 502.032C319.195 502.032 319.83 502.293 320.319 502.814C320.807 503.335 321.051 503.986 321.051 504.768V533.243C321.051 534.089 320.768 534.796 320.201 535.363C319.628 535.936 318.918 536.222 318.072 536.222C317.649 536.222 317.219 536.147 316.782 535.997C316.34 535.854 316.004 535.652 315.776 535.392L296.581 511.019L297.851 510.238V533.487C297.851 534.268 297.6 534.92 297.099 535.441C296.591 535.962 295.93 536.222 295.116 536.222C294.334 536.222 293.699 535.962 293.211 535.441C292.723 534.92 292.478 534.268 292.478 533.487V505.012C292.478 504.165 292.765 503.455 293.338 502.882C293.905 502.316 294.611 502.032 295.458 502.032C295.914 502.032 296.386 502.12 296.874 502.296C297.363 502.478 297.721 502.749 297.949 503.107L316.558 526.844L315.727 527.43V504.768C315.727 503.986 315.972 503.335 316.46 502.814C316.948 502.293 317.6 502.032 318.414 502.032ZM354.313 502.032C355.095 502.032 355.729 502.293 356.218 502.814C356.706 503.335 356.951 503.986 356.951 504.768V533.243C356.951 534.089 356.667 534.796 356.101 535.363C355.528 535.936 354.818 536.222 353.971 536.222C353.548 536.222 353.118 536.147 352.682 535.997C352.239 535.854 351.903 535.652 351.676 535.392L332.48 511.019L333.75 510.238V533.487C333.75 534.268 333.5 534.92 332.998 535.441C332.49 535.962 331.829 536.222 331.015 536.222C330.234 536.222 329.599 535.962 329.11 535.441C328.622 534.92 328.378 534.268 328.378 533.487V505.012C328.378 504.165 328.664 503.455 329.237 502.882C329.804 502.316 330.51 502.032 331.357 502.032C331.813 502.032 332.285 502.12 332.773 502.296C333.262 502.478 333.62 502.749 333.848 503.107L352.457 526.844L351.627 527.43V504.768C351.627 503.986 351.871 503.335 352.359 502.814C352.848 502.293 353.499 502.032 354.313 502.032ZM384.058 505.012V533.243C384.058 534.089 383.749 534.796 383.13 535.363C382.511 535.936 381.795 536.222 380.981 536.222C380.069 536.222 379.337 535.936 378.783 535.363C378.23 534.796 377.953 534.089 377.953 533.243V505.012C377.953 504.165 378.246 503.455 378.832 502.882C379.418 502.316 380.167 502.032 381.079 502.032C381.86 502.032 382.551 502.316 383.15 502.882C383.755 503.455 384.058 504.165 384.058 505.012ZM404.855 509.603C407.265 509.603 409.098 510.108 410.355 511.117C411.605 512.126 412.468 513.468 412.944 515.142C413.413 516.822 413.647 518.688 413.647 520.739V533.243C413.647 534.089 413.37 534.796 412.817 535.363C412.263 535.936 411.563 536.222 410.716 536.222C409.87 536.222 409.17 535.936 408.616 535.363C408.063 534.796 407.786 534.089 407.786 533.243V520.739C407.786 519.664 407.649 518.697 407.376 517.838C407.096 516.972 406.597 516.278 405.881 515.757C405.165 515.236 404.139 514.976 402.804 514.976C401.501 514.976 400.404 515.236 399.512 515.757C398.613 516.278 397.929 516.972 397.461 517.838C396.985 518.697 396.747 519.664 396.747 520.739V533.243C396.747 534.089 396.471 534.796 395.917 535.363C395.364 535.936 394.664 536.222 393.817 536.222C392.97 536.222 392.27 535.936 391.717 535.363C391.163 534.796 390.886 534.089 390.886 533.243V513.071C390.886 512.224 391.163 511.514 391.717 510.941C392.27 510.375 392.97 510.091 393.817 510.091C394.664 510.091 395.364 510.375 395.917 510.941C396.471 511.514 396.747 512.224 396.747 513.071V515.171L396.015 515.024C396.308 514.471 396.731 513.875 397.285 513.237C397.838 512.605 398.49 512.012 399.238 511.459C399.987 510.905 400.834 510.456 401.778 510.111C402.723 509.772 403.748 509.603 404.855 509.603ZM420.29 510.58H431.865C432.647 510.58 433.298 510.84 433.819 511.361C434.34 511.882 434.6 512.533 434.6 513.315C434.6 514.064 434.34 514.689 433.819 515.191C433.298 515.698 432.647 515.952 431.865 515.952H420.29C419.508 515.952 418.857 515.692 418.336 515.171C417.815 514.65 417.554 513.999 417.554 513.217C417.554 512.468 417.815 511.84 418.336 511.332C418.857 510.83 419.508 510.58 420.29 510.58ZM425.516 504.474C426.362 504.474 427.056 504.758 427.596 505.324C428.13 505.897 428.397 506.607 428.397 507.454V529.189C428.397 529.645 428.489 530.019 428.671 530.312C428.847 530.605 429.091 530.817 429.404 530.947C429.71 531.077 430.042 531.143 430.4 531.143C430.791 531.143 431.149 531.068 431.475 530.918C431.8 530.775 432.175 530.703 432.598 530.703C433.054 530.703 433.471 530.915 433.848 531.338C434.22 531.761 434.405 532.347 434.405 533.096C434.405 534.008 433.91 534.757 432.92 535.343C431.924 535.929 430.856 536.222 429.716 536.222C429.032 536.222 428.277 536.164 427.45 536.046C426.616 535.936 425.835 535.659 425.105 535.216C424.37 534.78 423.757 534.106 423.269 533.194C422.781 532.282 422.536 531.029 422.536 529.433V507.454C422.536 506.607 422.823 505.897 423.396 505.324C423.963 504.758 424.669 504.474 425.516 504.474ZM451.793 536.711C449.025 536.711 446.622 536.131 444.584 534.972C442.552 533.819 440.989 532.25 439.895 530.263C438.807 528.277 438.264 526.03 438.264 523.523C438.264 520.593 438.856 518.092 440.042 516.021C441.233 513.956 442.79 512.371 444.711 511.264C446.632 510.156 448.667 509.603 450.816 509.603C452.477 509.603 454.046 509.945 455.525 510.629C457.009 511.312 458.322 512.247 459.461 513.432C460.601 514.624 461.503 516.001 462.167 517.564C462.838 519.127 463.173 520.788 463.173 522.546C463.141 523.328 462.831 523.963 462.245 524.451C461.659 524.939 460.975 525.184 460.194 525.184H441.536L440.071 520.299H457.996L456.922 521.276V519.958C456.856 519.013 456.521 518.167 455.915 517.418C455.316 516.669 454.567 516.073 453.669 515.63C452.776 515.194 451.826 514.976 450.816 514.976C449.839 514.976 448.928 515.106 448.081 515.366C447.234 515.627 446.502 516.066 445.883 516.685C445.264 517.304 444.776 518.134 444.418 519.176C444.06 520.218 443.881 521.537 443.881 523.132C443.881 524.891 444.245 526.379 444.975 527.597C445.711 528.821 446.655 529.749 447.808 530.381C448.967 531.019 450.198 531.338 451.5 531.338C452.705 531.338 453.665 531.24 454.382 531.045C455.098 530.849 455.674 530.612 456.111 530.332C456.554 530.058 456.954 529.824 457.312 529.628C457.898 529.335 458.452 529.189 458.973 529.189C459.689 529.189 460.282 529.433 460.751 529.921C461.226 530.41 461.464 530.98 461.464 531.631C461.464 532.51 461.008 533.308 460.096 534.024C459.25 534.741 458.061 535.366 456.531 535.9C455 536.44 453.421 536.711 451.793 536.711ZM474.407 503.058V533.243C474.407 534.089 474.121 534.796 473.548 535.363C472.981 535.936 472.274 536.222 471.428 536.222C470.614 536.222 469.93 535.936 469.376 535.363C468.823 534.796 468.546 534.089 468.546 533.243V503.058C468.546 502.211 468.829 501.502 469.396 500.928C469.969 500.362 470.679 500.079 471.525 500.079C472.372 500.079 473.062 500.362 473.596 500.928C474.137 501.502 474.407 502.211 474.407 503.058ZM487.585 503.058V533.243C487.585 534.089 487.302 534.796 486.735 535.363C486.162 535.936 485.452 536.222 484.606 536.222C483.791 536.222 483.108 535.936 482.554 535.363C482.001 534.796 481.724 534.089 481.724 533.243V503.058C481.724 502.211 482.01 501.502 482.583 500.928C483.15 500.362 483.857 500.079 484.703 500.079C485.55 500.079 486.243 500.362 486.784 500.928C487.318 501.502 487.585 502.211 487.585 503.058ZM499.942 513.071V533.243C499.942 534.089 499.665 534.796 499.112 535.363C498.558 535.936 497.858 536.222 497.012 536.222C496.165 536.222 495.465 535.936 494.911 535.363C494.358 534.796 494.081 534.089 494.081 533.243V513.071C494.081 512.224 494.358 511.514 494.911 510.941C495.465 510.375 496.165 510.091 497.012 510.091C497.858 510.091 498.558 510.375 499.112 510.941C499.665 511.514 499.942 512.224 499.942 513.071ZM496.963 506.917C495.856 506.917 495.074 506.737 494.618 506.379C494.162 506.021 493.934 505.386 493.934 504.474V503.546C493.934 502.602 494.188 501.957 494.696 501.612C495.198 501.274 495.97 501.104 497.012 501.104C498.151 501.104 498.949 501.283 499.405 501.642C499.861 502 500.089 502.635 500.089 503.546V504.474C500.089 505.419 499.844 506.06 499.356 506.399C498.868 506.744 498.07 506.917 496.963 506.917ZM516.549 509.603C517.916 509.603 519.17 509.815 520.309 510.238C521.449 510.661 522.432 511.198 523.26 511.85C524.093 512.501 524.744 513.159 525.213 513.823C525.689 514.494 525.926 515.057 525.926 515.513L524.656 516.148V512.582C524.656 511.736 524.933 511.026 525.487 510.453C526.04 509.886 526.74 509.603 527.587 509.603C528.434 509.603 529.134 509.88 529.687 510.433C530.241 510.987 530.518 511.703 530.518 512.582V534.317C530.518 537.15 529.905 539.423 528.681 541.136C527.463 542.842 525.861 544.079 523.875 544.848C521.889 545.61 519.756 545.991 517.477 545.991C516.825 545.991 515.979 545.909 514.937 545.746C513.895 545.584 512.902 545.388 511.957 545.16C511.013 544.932 510.297 544.721 509.808 544.525C508.831 544.102 508.154 543.575 507.776 542.943C507.405 542.305 507.334 541.627 507.562 540.911C507.855 539.967 508.327 539.325 508.978 538.987C509.629 538.641 510.313 538.599 511.029 538.86C511.355 538.957 511.892 539.153 512.641 539.446C513.39 539.739 514.211 540.009 515.103 540.257C516.002 540.497 516.793 540.618 517.477 540.618C519.919 540.618 521.726 540.13 522.898 539.153C524.07 538.176 524.656 536.825 524.656 535.099V530.849L525.243 531.289C525.243 531.712 525.021 532.224 524.578 532.823C524.142 533.428 523.54 534.024 522.771 534.61C522.009 535.196 521.107 535.691 520.065 536.095C519.023 536.505 517.916 536.711 516.744 536.711C514.432 536.711 512.348 536.131 510.492 534.972C508.636 533.819 507.171 532.224 506.096 530.185C505.022 528.153 504.484 525.819 504.484 523.181C504.484 520.511 505.022 518.157 506.096 516.119C507.171 514.087 508.62 512.491 510.443 511.332C512.267 510.179 514.302 509.603 516.549 509.603ZM517.477 514.976C516.011 514.976 514.725 515.334 513.618 516.05C512.511 516.766 511.648 517.743 511.029 518.981C510.411 520.218 510.101 521.618 510.101 523.181C510.101 524.712 510.411 526.095 511.029 527.333C511.648 528.57 512.511 529.547 513.618 530.263C514.725 530.98 516.011 531.338 517.477 531.338C518.974 531.338 520.277 530.98 521.384 530.263C522.491 529.547 523.354 528.57 523.973 527.333C524.591 526.095 524.901 524.712 524.901 523.181C524.901 521.618 524.591 520.218 523.973 518.981C523.354 517.743 522.491 516.766 521.384 516.05C520.277 515.334 518.974 514.976 517.477 514.976ZM547.945 536.711C545.177 536.711 542.777 536.131 540.745 534.972C538.707 533.819 537.144 532.25 536.056 530.263C534.962 528.277 534.415 526.03 534.415 523.523C534.415 520.593 535.011 518.092 536.203 516.021C537.388 513.956 538.941 512.371 540.862 511.264C542.784 510.156 544.819 509.603 546.968 509.603C548.628 509.603 550.201 509.945 551.686 510.629C553.164 511.312 554.473 512.247 555.613 513.432C556.753 514.624 557.658 516.001 558.328 517.564C558.993 519.127 559.325 520.788 559.325 522.546C559.292 523.328 558.983 523.963 558.397 524.451C557.811 524.939 557.127 525.184 556.346 525.184H537.688L536.222 520.299H554.148L553.073 521.276V519.958C553.008 519.013 552.676 518.167 552.077 517.418C551.471 516.669 550.722 516.073 549.83 515.63C548.931 515.194 547.977 514.976 546.968 514.976C545.991 514.976 545.079 515.106 544.233 515.366C543.386 515.627 542.653 516.066 542.035 516.685C541.416 517.304 540.928 518.134 540.569 519.176C540.211 520.218 540.032 521.537 540.032 523.132C540.032 524.891 540.4 526.379 541.136 527.597C541.865 528.821 542.81 529.749 543.969 530.381C545.122 531.019 546.349 531.338 547.652 531.338C548.856 531.338 549.817 531.24 550.533 531.045C551.25 530.849 551.829 530.612 552.272 530.332C552.708 530.058 553.106 529.824 553.464 529.628C554.05 529.335 554.603 529.189 555.124 529.189C555.841 529.189 556.437 529.433 556.912 529.921C557.381 530.41 557.615 530.98 557.615 531.631C557.615 532.51 557.16 533.308 556.248 534.024C555.401 534.741 554.213 535.366 552.682 535.9C551.152 536.44 549.573 536.711 547.945 536.711ZM578.178 509.603C580.588 509.603 582.421 510.108 583.678 511.117C584.928 512.126 585.791 513.468 586.266 515.142C586.735 516.822 586.97 518.688 586.97 520.739V533.243C586.97 534.089 586.693 534.796 586.139 535.363C585.586 535.936 584.886 536.222 584.039 536.222C583.193 536.222 582.493 535.936 581.939 535.363C581.385 534.796 581.109 534.089 581.109 533.243V520.739C581.109 519.664 580.972 518.697 580.698 517.838C580.418 516.972 579.92 516.278 579.204 515.757C578.488 515.236 577.462 514.976 576.127 514.976C574.824 514.976 573.727 515.236 572.835 515.757C571.936 516.278 571.252 516.972 570.783 517.838C570.308 518.697 570.07 519.664 570.07 520.739V533.243C570.07 534.089 569.794 534.796 569.24 535.363C568.686 535.936 567.986 536.222 567.14 536.222C566.293 536.222 565.593 535.936 565.04 535.363C564.486 534.796 564.209 534.089 564.209 533.243V513.071C564.209 512.224 564.486 511.514 565.04 510.941C565.593 510.375 566.293 510.091 567.14 510.091C567.986 510.091 568.686 510.375 569.24 510.941C569.794 511.514 570.07 512.224 570.07 513.071V515.171L569.338 515.024C569.631 514.471 570.054 513.875 570.608 513.237C571.161 512.605 571.812 512.012 572.561 511.459C573.31 510.905 574.157 510.456 575.101 510.111C576.045 509.772 577.071 509.603 578.178 509.603ZM604.7 509.603C606.556 509.603 608.174 509.798 609.555 510.189C610.942 510.58 612.016 511.124 612.778 511.82C613.547 512.524 613.931 513.364 613.931 514.341C613.931 514.992 613.736 515.601 613.345 516.167C612.954 516.74 612.384 517.027 611.635 517.027C611.114 517.027 610.681 516.952 610.336 516.802C609.997 516.659 609.698 516.473 609.437 516.246C609.177 516.018 608.868 515.806 608.509 515.611C608.184 515.415 607.686 515.259 607.015 515.142C606.351 515.031 605.856 514.976 605.53 514.976C603.869 514.976 602.459 515.334 601.3 516.05C600.148 516.766 599.262 517.734 598.643 518.951C598.025 520.176 597.715 521.586 597.715 523.181C597.715 524.744 598.031 526.135 598.663 527.352C599.301 528.577 600.18 529.547 601.3 530.263C602.427 530.98 603.723 531.338 605.188 531.338C606.002 531.338 606.702 531.289 607.288 531.191C607.874 531.094 608.363 530.947 608.754 530.752C609.209 530.491 609.617 530.214 609.975 529.921C610.333 529.628 610.87 529.482 611.586 529.482C612.433 529.482 613.084 529.749 613.54 530.283C613.996 530.823 614.224 531.484 614.224 532.266C614.224 533.08 613.768 533.819 612.856 534.483C611.945 535.154 610.746 535.691 609.262 536.095C607.783 536.505 606.181 536.711 604.455 536.711C601.883 536.711 599.653 536.115 597.764 534.923C595.875 533.738 594.417 532.119 593.388 530.068C592.365 528.017 591.854 525.721 591.854 523.181C591.854 520.511 592.398 518.157 593.485 516.119C594.58 514.087 596.094 512.491 598.028 511.332C599.968 510.179 602.192 509.603 604.7 509.603ZM630.537 536.711C627.77 536.711 625.367 536.131 623.328 534.972C621.296 533.819 619.733 532.25 618.639 530.263C617.552 528.277 617.008 526.03 617.008 523.523C617.008 520.593 617.601 518.092 618.786 516.021C619.978 513.956 621.534 512.371 623.455 511.264C625.376 510.156 627.411 509.603 629.561 509.603C631.221 509.603 632.791 509.945 634.269 510.629C635.754 511.312 637.066 512.247 638.206 513.432C639.345 514.624 640.247 516.001 640.912 517.564C641.582 519.127 641.918 520.788 641.918 522.546C641.885 523.328 641.576 523.963 640.99 524.451C640.404 524.939 639.72 525.184 638.938 525.184H620.28L618.815 520.299H636.74L635.666 521.276V519.958C635.601 519.013 635.265 518.167 634.66 517.418C634.061 516.669 633.312 516.073 632.413 515.63C631.521 515.194 630.57 514.976 629.561 514.976C628.584 514.976 627.672 515.106 626.825 515.366C625.979 515.627 625.246 516.066 624.627 516.685C624.009 517.304 623.52 518.134 623.162 519.176C622.804 520.218 622.625 521.537 622.625 523.132C622.625 524.891 622.99 526.379 623.719 527.597C624.455 528.821 625.399 529.749 626.552 530.381C627.711 531.019 628.942 531.338 630.244 531.338C631.449 531.338 632.41 531.24 633.126 531.045C633.842 530.849 634.419 530.612 634.855 530.332C635.298 530.058 635.698 529.824 636.057 529.628C636.643 529.335 637.196 529.189 637.717 529.189C638.434 529.189 639.026 529.433 639.495 529.921C639.971 530.41 640.208 530.98 640.208 531.631C640.208 532.51 639.752 533.308 638.841 534.024C637.994 534.741 636.806 535.366 635.275 535.9C633.745 536.44 632.166 536.711 630.537 536.711ZM673.9 500.079C674.616 500.079 675.316 500.176 676 500.372C676.684 500.567 677.254 500.883 677.71 501.319C678.165 501.762 678.393 502.342 678.393 503.058C678.393 503.872 678.159 504.514 677.69 504.982C677.215 505.458 676.668 505.696 676.049 505.696C675.756 505.696 675.316 505.621 674.73 505.471C674.144 505.328 673.574 505.256 673.021 505.256C672.207 505.256 671.581 505.435 671.145 505.793C670.702 506.151 670.399 506.565 670.237 507.034C670.074 507.509 669.992 507.926 669.992 508.284V533.243C669.992 534.089 669.716 534.796 669.162 535.363C668.609 535.936 667.909 536.222 667.062 536.222C666.215 536.222 665.515 535.936 664.962 535.363C664.408 534.796 664.131 534.089 664.131 533.243V508.333C664.131 506.021 664.945 504.067 666.573 502.472C668.202 500.876 670.644 500.079 673.9 500.079ZM661.494 510.58H674.437C675.219 510.58 675.87 510.83 676.391 511.332C676.912 511.84 677.172 512.485 677.172 513.266C677.172 514.048 676.912 514.689 676.391 515.191C675.87 515.698 675.219 515.952 674.437 515.952H661.494C660.712 515.952 660.061 515.698 659.54 515.191C659.019 514.689 658.759 514.048 658.759 513.266C658.759 512.485 659.019 511.84 659.54 511.332C660.061 510.83 660.712 510.58 661.494 510.58ZM705.941 523.181C705.941 525.851 705.345 528.202 704.153 530.234C702.968 532.272 701.372 533.861 699.366 535.001C697.367 536.141 695.13 536.711 692.655 536.711C690.181 536.711 687.94 536.141 685.935 535.001C683.935 533.861 682.34 532.272 681.148 530.234C679.963 528.202 679.37 525.851 679.37 523.181C679.37 520.511 679.963 518.157 681.148 516.119C682.34 514.087 683.935 512.491 685.935 511.332C687.94 510.179 690.181 509.603 692.655 509.603C695.13 509.603 697.367 510.179 699.366 511.332C701.372 512.491 702.968 514.087 704.153 516.119C705.345 518.157 705.941 520.511 705.941 523.181ZM700.079 523.181C700.079 521.521 699.744 520.078 699.073 518.854C698.409 517.636 697.514 516.685 696.387 516.001C695.267 515.318 694.023 514.976 692.655 514.976C691.288 514.976 690.041 515.318 688.914 516.001C687.794 516.685 686.899 517.636 686.228 518.854C685.563 520.078 685.231 521.521 685.231 523.181C685.231 524.809 685.563 526.235 686.228 527.46C686.899 528.678 687.794 529.628 688.914 530.312C690.041 530.996 691.288 531.338 692.655 531.338C694.023 531.338 695.267 530.996 696.387 530.312C697.514 529.628 698.409 528.678 699.073 527.46C699.744 526.235 700.079 524.809 700.079 523.181ZM713.755 536.222C712.909 536.222 712.209 535.936 711.655 535.363C711.102 534.796 710.825 534.089 710.825 533.243V513.071C710.825 512.224 711.102 511.514 711.655 510.941C712.209 510.375 712.909 510.091 713.755 510.091C714.602 510.091 715.302 510.375 715.856 510.941C716.409 511.514 716.686 512.224 716.686 513.071V517.662L716.344 514.389C716.702 513.608 717.165 512.914 717.731 512.309C718.304 511.71 718.949 511.205 719.665 510.795C720.382 510.391 721.147 510.091 721.961 509.896C722.775 509.701 723.589 509.603 724.403 509.603C725.38 509.603 726.2 509.88 726.865 510.433C727.536 510.987 727.871 511.638 727.871 512.387C727.871 513.461 727.594 514.233 727.041 514.702C726.487 515.177 725.885 515.415 725.233 515.415C724.615 515.415 724.051 515.301 723.543 515.073C723.042 514.845 722.466 514.731 721.814 514.731C721.228 514.731 720.632 514.868 720.027 515.142C719.428 515.422 718.874 515.855 718.366 516.441C717.865 517.027 717.458 517.75 717.145 518.609C716.839 519.476 716.686 520.495 716.686 521.667V533.243C716.686 534.089 716.409 534.796 715.856 535.363C715.302 535.936 714.602 536.222 713.755 536.222ZM759.413 509.603C761.758 509.603 763.542 510.108 764.767 511.117C765.984 512.126 766.821 513.468 767.277 515.142C767.733 516.822 767.961 518.688 767.961 520.739V533.243C767.961 534.089 767.684 534.796 767.131 535.363C766.577 535.936 765.877 536.222 765.03 536.222C764.184 536.222 763.484 535.936 762.93 535.363C762.377 534.796 762.1 534.089 762.1 533.243V520.739C762.1 519.664 761.97 518.697 761.709 517.838C761.449 516.972 760.976 516.278 760.293 515.757C759.609 515.236 758.632 514.976 757.362 514.976C756.125 514.976 755.066 515.236 754.187 515.757C753.308 516.278 752.65 516.972 752.214 517.838C751.771 518.697 751.55 519.664 751.55 520.739V533.243C751.55 534.089 751.273 534.796 750.719 535.363C750.166 535.936 749.466 536.222 748.619 536.222C747.773 536.222 747.073 535.936 746.519 535.363C745.965 534.796 745.689 534.089 745.689 533.243V503.058C745.689 502.211 745.965 501.502 746.519 500.928C747.073 500.362 747.773 500.079 748.619 500.079C749.466 500.079 750.166 500.362 750.719 500.928C751.273 501.502 751.55 502.211 751.55 503.058V515.171L750.817 515.024C751.11 514.471 751.517 513.875 752.038 513.237C752.559 512.605 753.194 512.012 753.943 511.459C754.692 510.905 755.522 510.456 756.434 510.111C757.346 509.772 758.339 509.603 759.413 509.603ZM786.375 536.711C783.607 536.711 781.204 536.131 779.165 534.972C777.134 533.819 775.571 532.25 774.477 530.263C773.389 528.277 772.845 526.03 772.845 523.523C772.845 520.593 773.438 518.092 774.623 516.021C775.815 513.956 777.371 512.371 779.292 511.264C781.214 510.156 783.249 509.603 785.398 509.603C787.058 509.603 788.628 509.945 790.106 510.629C791.591 511.312 792.903 512.247 794.043 513.432C795.183 514.624 796.084 516.001 796.749 517.564C797.419 519.127 797.755 520.788 797.755 522.546C797.722 523.328 797.413 523.963 796.827 524.451C796.241 524.939 795.557 525.184 794.776 525.184H776.118L774.652 520.299H792.578L791.503 521.276V519.958C791.438 519.013 791.103 518.167 790.497 517.418C789.898 516.669 789.149 516.073 788.25 515.63C787.358 515.194 786.407 514.976 785.398 514.976C784.421 514.976 783.509 515.106 782.663 515.366C781.816 515.627 781.083 516.066 780.465 516.685C779.846 517.304 779.358 518.134 778.999 519.176C778.641 520.218 778.462 521.537 778.462 523.132C778.462 524.891 778.827 526.379 779.556 527.597C780.292 528.821 781.236 529.749 782.389 530.381C783.548 531.019 784.779 531.338 786.082 531.338C787.286 531.338 788.247 531.24 788.963 531.045C789.68 530.849 790.256 530.612 790.692 530.332C791.135 530.058 791.536 529.824 791.894 529.628C792.48 529.335 793.033 529.189 793.554 529.189C794.271 529.189 794.863 529.433 795.332 529.921C795.808 530.41 796.045 530.98 796.045 531.631C796.045 532.51 795.59 533.308 794.678 534.024C793.831 534.741 792.643 535.366 791.112 535.9C789.582 536.44 788.003 536.711 786.375 536.711ZM823.983 509.603C824.83 509.603 825.53 509.88 826.084 510.433C826.637 510.987 826.914 511.703 826.914 512.582V533.243C826.914 534.089 826.637 534.796 826.084 535.363C825.53 535.936 824.83 536.222 823.983 536.222C823.137 536.222 822.437 535.936 821.883 535.363C821.33 534.796 821.053 534.089 821.053 533.243V530.849L822.127 531.289C822.127 531.712 821.899 532.224 821.444 532.823C820.988 533.428 820.369 534.024 819.588 534.61C818.806 535.196 817.885 535.691 816.823 536.095C815.768 536.505 814.622 536.711 813.385 536.711C811.138 536.711 809.103 536.131 807.279 534.972C805.456 533.819 804.013 532.224 802.952 530.185C801.897 528.153 801.369 525.819 801.369 523.181C801.369 520.511 801.897 518.157 802.952 516.119C804.013 514.087 805.439 512.491 807.23 511.332C809.021 510.179 811.008 509.603 813.189 509.603C814.589 509.603 815.875 509.815 817.048 510.238C818.22 510.661 819.236 511.198 820.095 511.85C820.962 512.501 821.629 513.159 822.098 513.823C822.573 514.494 822.811 515.057 822.811 515.513L821.053 516.148V512.582C821.053 511.736 821.33 511.026 821.883 510.453C822.437 509.886 823.137 509.603 823.983 509.603ZM814.117 531.338C815.55 531.338 816.803 530.98 817.878 530.263C818.953 529.547 819.789 528.57 820.389 527.333C820.994 526.095 821.297 524.712 821.297 523.181C821.297 521.618 820.994 520.218 820.389 518.981C819.789 517.743 818.953 516.766 817.878 516.05C816.803 515.334 815.55 514.976 814.117 514.976C812.717 514.976 811.48 515.334 810.405 516.05C809.331 516.766 808.49 517.743 807.885 518.981C807.286 520.218 806.986 521.618 806.986 523.181C806.986 524.712 807.286 526.095 807.885 527.333C808.49 528.57 809.331 529.547 810.405 530.263C811.48 530.98 812.717 531.338 814.117 531.338ZM839.603 503.058V533.243C839.603 534.089 839.32 534.796 838.753 535.363C838.18 535.936 837.47 536.222 836.624 536.222C835.81 536.222 835.126 535.936 834.572 535.363C834.019 534.796 833.742 534.089 833.742 533.243V503.058C833.742 502.211 834.029 501.502 834.602 500.928C835.168 500.362 835.875 500.079 836.722 500.079C837.568 500.079 838.262 500.362 838.802 500.928C839.336 501.502 839.603 502.211 839.603 503.058ZM846.588 510.58H858.163C858.945 510.58 859.596 510.84 860.117 511.361C860.638 511.882 860.899 512.533 860.899 513.315C860.899 514.064 860.638 514.689 860.117 515.191C859.596 515.698 858.945 515.952 858.163 515.952H846.588C845.806 515.952 845.155 515.692 844.634 515.171C844.113 514.65 843.853 513.999 843.853 513.217C843.853 512.468 844.113 511.84 844.634 511.332C845.155 510.83 845.806 510.58 846.588 510.58ZM851.814 504.474C852.66 504.474 853.354 504.758 853.895 505.324C854.429 505.897 854.696 506.607 854.696 507.454V529.189C854.696 529.645 854.787 530.019 854.969 530.312C855.145 530.605 855.389 530.817 855.702 530.947C856.008 531.077 856.34 531.143 856.698 531.143C857.089 531.143 857.447 531.068 857.773 530.918C858.098 530.775 858.473 530.703 858.896 530.703C859.352 530.703 859.769 530.915 860.146 531.338C860.518 531.761 860.703 532.347 860.703 533.096C860.703 534.008 860.208 534.757 859.218 535.343C858.222 535.929 857.154 536.222 856.014 536.222C855.331 536.222 854.575 536.164 853.748 536.046C852.914 535.936 852.133 535.659 851.404 535.216C850.668 534.78 850.056 534.106 849.567 533.194C849.079 532.282 848.834 531.029 848.834 529.433V507.454C848.834 506.607 849.121 505.897 849.694 505.324C850.261 504.758 850.967 504.474 851.814 504.474ZM879.996 509.603C882.34 509.603 884.122 510.108 885.339 511.117C886.564 512.126 887.404 513.468 887.86 515.142C888.316 516.822 888.544 518.688 888.544 520.739V533.243C888.544 534.089 888.267 534.796 887.713 535.363C887.16 535.936 886.46 536.222 885.613 536.222C884.766 536.222 884.066 535.936 883.513 535.363C882.959 534.796 882.682 534.089 882.682 533.243V520.739C882.682 519.664 882.552 518.697 882.292 517.838C882.031 516.972 881.559 516.278 880.875 515.757C880.191 515.236 879.215 514.976 877.945 514.976C876.707 514.976 875.649 515.236 874.77 515.757C873.891 516.278 873.23 516.972 872.787 517.838C872.351 518.697 872.132 519.664 872.132 520.739V533.243C872.132 534.089 871.856 534.796 871.302 535.363C870.748 535.936 870.048 536.222 869.202 536.222C868.355 536.222 867.655 535.936 867.102 535.363C866.548 534.796 866.271 534.089 866.271 533.243V503.058C866.271 502.211 866.548 501.502 867.102 500.928C867.655 500.362 868.355 500.079 869.202 500.079C870.048 500.079 870.748 500.362 871.302 500.928C871.856 501.502 872.132 502.211 872.132 503.058V515.171L871.4 515.024C871.693 514.471 872.1 513.875 872.621 513.237C873.142 512.605 873.777 512.012 874.526 511.459C875.275 510.905 876.105 510.456 877.017 510.111C877.928 509.772 878.922 509.603 879.996 509.603ZM906.273 509.603C908.129 509.603 909.748 509.798 911.128 510.189C912.515 510.58 913.59 511.124 914.352 511.82C915.12 512.524 915.505 513.364 915.505 514.341C915.505 514.992 915.309 515.601 914.918 516.167C914.528 516.74 913.958 517.027 913.209 517.027C912.688 517.027 912.255 516.952 911.91 516.802C911.571 516.659 911.272 516.473 911.011 516.246C910.751 516.018 910.441 515.806 910.083 515.611C909.757 515.415 909.259 515.259 908.589 515.142C907.924 515.031 907.429 514.976 907.104 514.976C905.443 514.976 904.033 515.334 902.874 516.05C901.721 516.766 900.836 517.734 900.217 518.951C899.598 520.176 899.289 521.586 899.289 523.181C899.289 524.744 899.605 526.135 900.236 527.352C900.875 528.577 901.754 529.547 902.874 530.263C904.001 530.98 905.296 531.338 906.762 531.338C907.576 531.338 908.276 531.289 908.862 531.191C909.448 531.094 909.937 530.947 910.327 530.752C910.783 530.491 911.19 530.214 911.548 529.921C911.907 529.628 912.444 529.482 913.16 529.482C914.007 529.482 914.658 529.749 915.114 530.283C915.57 530.823 915.798 531.484 915.798 532.266C915.798 533.08 915.342 533.819 914.43 534.483C913.518 535.154 912.32 535.691 910.835 536.095C909.357 536.505 907.755 536.711 906.029 536.711C903.457 536.711 901.226 536.115 899.338 534.923C897.449 533.738 895.99 532.119 894.961 530.068C893.939 528.017 893.428 525.721 893.428 523.181C893.428 520.511 893.972 518.157 895.059 516.119C896.153 514.087 897.667 512.491 899.601 511.332C901.542 510.179 903.766 509.603 906.273 509.603ZM941.186 509.603C942.033 509.603 942.733 509.88 943.286 510.433C943.84 510.987 944.117 511.703 944.117 512.582V533.243C944.117 534.089 943.84 534.796 943.286 535.363C942.733 535.936 942.033 536.222 941.186 536.222C940.339 536.222 939.639 535.936 939.086 535.363C938.532 534.796 938.256 534.089 938.256 533.243V530.849L939.33 531.289C939.33 531.712 939.102 532.224 938.646 532.823C938.19 533.428 937.572 534.024 936.79 534.61C936.009 535.196 935.09 535.691 934.035 536.095C932.974 536.505 931.825 536.711 930.587 536.711C928.34 536.711 926.305 536.131 924.482 534.972C922.658 533.819 921.219 532.224 920.164 530.185C919.103 528.153 918.572 525.819 918.572 523.181C918.572 520.511 919.103 518.157 920.164 516.119C921.219 514.087 922.642 512.491 924.433 511.332C926.224 510.179 928.21 509.603 930.392 509.603C931.792 509.603 933.078 509.815 934.25 510.238C935.423 510.661 936.442 511.198 937.308 511.85C938.168 512.501 938.835 513.159 939.31 513.823C939.779 514.494 940.014 515.057 940.014 515.513L938.256 516.148V512.582C938.256 511.736 938.532 511.026 939.086 510.453C939.639 509.886 940.339 509.603 941.186 509.603ZM931.32 531.338C932.753 531.338 934.006 530.98 935.081 530.263C936.155 529.547 936.995 528.57 937.601 527.333C938.2 526.095 938.5 524.712 938.5 523.181C938.5 521.618 938.2 520.218 937.601 518.981C936.995 517.743 936.155 516.766 935.081 516.05C934.006 515.334 932.753 514.976 931.32 514.976C929.92 514.976 928.682 515.334 927.608 516.05C926.533 516.766 925.696 517.743 925.097 518.981C924.492 520.218 924.189 521.618 924.189 523.181C924.189 524.712 924.492 526.095 925.097 527.333C925.696 528.57 926.533 529.547 927.608 530.263C928.682 530.98 929.92 531.338 931.32 531.338ZM953.397 536.222C952.55 536.222 951.85 535.936 951.296 535.363C950.743 534.796 950.466 534.089 950.466 533.243V513.071C950.466 512.224 950.743 511.514 951.296 510.941C951.85 510.375 952.55 510.091 953.397 510.091C954.243 510.091 954.943 510.375 955.497 510.941C956.05 511.514 956.327 512.224 956.327 513.071V517.662L955.985 514.389C956.344 513.608 956.809 512.914 957.382 512.309C957.949 511.71 958.59 511.205 959.307 510.795C960.023 510.391 960.788 510.091 961.602 509.896C962.416 509.701 963.23 509.603 964.044 509.603C965.021 509.603 965.845 509.88 966.516 510.433C967.18 510.987 967.512 511.638 967.512 512.387C967.512 513.461 967.235 514.233 966.682 514.702C966.128 515.177 965.526 515.415 964.875 515.415C964.256 515.415 963.696 515.301 963.194 515.073C962.687 514.845 962.107 514.731 961.456 514.731C960.87 514.731 960.277 514.868 959.678 515.142C959.072 515.422 958.519 515.855 958.017 516.441C957.509 517.027 957.102 517.75 956.796 518.609C956.484 519.476 956.327 520.495 956.327 521.667V533.243C956.327 534.089 956.05 534.796 955.497 535.363C954.943 535.936 954.243 536.222 953.397 536.222ZM975.132 502.032H991.494C992.341 502.032 993.047 502.299 993.614 502.833C994.187 503.374 994.473 504.067 994.473 504.914C994.473 505.728 994.187 506.386 993.614 506.887C993.047 507.395 992.341 507.649 991.494 507.649H977.818L978.258 506.819V516.343L977.867 515.952H989.296C990.143 515.952 990.849 516.219 991.416 516.753C991.989 517.294 992.275 517.988 992.275 518.834C992.275 519.648 991.989 520.306 991.416 520.807C990.849 521.315 990.143 521.569 989.296 521.569H978.013L978.258 521.179V531.045L977.867 530.605H991.494C992.341 530.605 993.047 530.889 993.614 531.455C994.187 532.028 994.473 532.689 994.473 533.438C994.473 534.252 994.187 534.92 993.614 535.441C993.047 535.962 992.341 536.222 991.494 536.222H975.132C974.285 536.222 973.575 535.936 973.002 535.363C972.435 534.796 972.152 534.089 972.152 533.243V505.012C972.152 504.165 972.435 503.455 973.002 502.882C973.575 502.316 974.285 502.032 975.132 502.032Z" fill="#0080FF"/>
</g>
</g>
</g>
</g>
<g clip-path="url(#clip8_59_353)">
<g clip-path="url(#clip9_59_353)">
<path d="M569.75 245.117C566.702 242.757 563.643 240.317 560.541 237.844C557.966 235.795 555.382 233.724 552.779 231.695C537.192 219.515 520.994 208.411 502.959 206.798C501.465 206.659 499.96 206.583 498.446 206.583C496.92 206.583 495.432 206.775 493.935 206.911C475.846 208.549 459.583 219.586 443.96 231.808C444.506 232.238 445.055 232.674 445.598 233.107C447.503 234.621 449.37 236.072 451.255 237.555C466.788 225.511 481.939 215.59 498.449 215.59C514.899 215.59 530.01 225.458 545.492 237.453C548.622 239.864 551.769 242.363 554.924 244.899C557.431 246.888 559.939 248.897 562.463 250.87C579.402 264.119 597.075 276.152 617.017 276.152C624.74 276.152 632.117 274.312 639.243 271.321V261.476C632.009 264.954 624.657 267.136 617.017 267.136C600.493 267.136 585.325 257.189 569.75 245.117Z" fill="#0080FF"/>
<path d="M617.119 206.583C597.165 206.583 579.448 218.612 562.466 231.876C562.986 232.289 563.507 232.699 564.025 233.112C565.952 234.658 567.857 236.118 569.758 237.637C575.39 233.277 580.987 229.207 586.596 225.783V250.01C589.604 251.976 592.612 253.802 595.618 255.338V220.93C601.181 218.332 606.827 216.552 612.605 215.932V260.797C613.992 260.964 615.381 261.114 616.788 261.114C618.404 261.114 620.025 260.958 621.63 260.743V215.873C627.635 216.521 633.478 218.425 639.245 221.187V211.356C632.145 208.402 624.802 206.583 617.119 206.583Z" fill="#0080FF"/>
<path d="M426.983 245.216C411.476 257.237 396.33 267.136 379.855 267.136C372.259 267.136 364.956 264.832 357.756 261.154V271.095C364.842 274.222 372.166 276.152 379.849 276.152C399.735 276.152 417.37 264.184 434.273 250.977C433.676 250.502 433.068 250.032 432.47 249.546C430.631 248.068 428.817 246.67 426.983 245.216Z" fill="#0080FF"/>
<path d="M545.475 245.272C539.943 249.546 534.464 253.51 528.954 256.9V233.062C525.938 231.078 522.927 229.264 519.933 227.705V261.19C519.933 261.374 520.009 261.53 520.035 261.708C514.437 264.346 508.766 266.154 502.957 266.794V221.98C501.377 221.765 499.815 221.615 498.239 221.615C496.793 221.615 495.361 221.773 493.935 221.946V266.876C488.1 266.259 482.409 264.487 476.806 261.864C476.837 261.638 476.939 261.434 476.939 261.196V227.498C473.933 229.029 470.925 230.857 467.917 232.832V257.019C459.252 251.713 450.661 244.885 441.846 237.85C422.589 222.478 402.678 206.585 379.761 206.585C372.118 206.585 364.825 208.286 357.762 211.034V220.763C363.487 218.222 369.288 216.448 375.253 215.85V260.825H375.245C376.736 261.018 378.242 261.165 379.744 261.165C381.258 261.165 382.758 261.018 384.267 260.825V215.873C390.088 216.501 395.761 218.284 401.365 220.919C401.333 221.122 401.243 221.321 401.243 221.547V255.205C404.24 253.646 407.248 251.838 410.264 249.854V225.783C418.884 231.078 427.442 237.881 436.22 244.89C455.483 260.259 475.402 276.152 498.33 276.152C518.198 276.152 535.845 264.213 552.768 251.028C552.148 250.533 551.525 250.035 550.903 249.546C549.072 248.094 547.278 246.704 545.475 245.272Z" fill="#0080FF"/>
<path d="M595.994 31.5416C604.696 31.5416 611.762 24.4755 611.762 15.7708C611.762 7.07748 604.696 0 595.994 0C587.289 0 580.234 7.07465 580.234 15.7708C580.234 24.4726 587.289 31.5416 595.994 31.5416Z" fill="#0080FF"/>
<path d="M561.849 102.116C566.866 102.116 570.93 98.049 570.93 93.0345V50.4706H574.495V105.183V112.728V182.532C574.495 187.546 578.562 191.613 583.576 191.613C588.588 191.613 592.657 187.546 592.657 182.532V112.728H599.342V182.532C599.342 187.546 603.408 191.613 608.423 191.613C613.434 191.613 617.504 187.546 617.504 182.532V112.728V105.183V50.4706H621.069V93.0345C621.069 98.049 625.136 102.116 630.15 102.116C635.165 102.116 639.231 98.049 639.231 93.0345V54.2541C639.231 44.9892 634.536 36.675 624.485 36.675H617.504H574.495H567.514C556.537 36.675 552.768 46.2258 552.768 54.2541V93.0345C552.768 98.049 556.834 102.116 561.849 102.116Z" fill="#0080FF"/>
<path d="M480.086 63.4568C487.053 63.4568 492.707 57.7971 492.707 50.83C492.707 43.8713 487.053 38.2031 480.086 38.2031C473.116 38.2031 467.467 43.8657 467.467 50.83C467.467 57.7971 473.116 63.4568 480.086 63.4568Z" fill="#0080FF"/>
<path d="M452.746 119.961C456.765 119.961 460.016 116.706 460.016 112.691V78.6106H462.872V122.414V128.453V184.34C462.872 188.355 466.126 191.61 470.142 191.61C474.154 191.61 477.411 188.355 477.411 184.34V128.456H482.766V184.343C482.766 188.358 486.02 191.613 490.035 191.613C494.051 191.613 497.305 188.358 497.305 184.343V128.456V122.417V78.6106H500.158V112.688C500.158 116.703 503.412 119.958 507.431 119.958C511.443 119.958 514.698 116.703 514.698 112.688V81.6414C514.698 74.2215 510.94 67.5657 502.891 67.5657H497.302H462.872H457.283C448.496 67.5657 445.476 75.212 445.476 81.6414V112.691C445.476 116.703 448.734 119.961 452.746 119.961Z" fill="#0080FF"/>
<path d="M380.101 108.862C384.6 108.862 388.251 105.208 388.251 100.709C388.251 96.2152 384.6 92.5562 380.101 92.5562C375.602 92.5562 371.954 96.2123 371.954 100.709C371.954 105.208 375.602 108.862 380.101 108.862Z" fill="#0080FF"/>
<path d="M362.451 145.345C365.046 145.345 367.143 143.245 367.143 140.653V118.65H368.985V146.932V150.832V186.918C368.985 189.513 371.088 191.613 373.68 191.613C376.272 191.613 378.375 189.513 378.375 186.918V157.603H381.83V186.915C381.83 189.51 383.93 191.61 386.525 191.61C389.12 191.61 391.22 189.51 391.22 186.915V150.832V146.932V118.65H393.062V140.653C393.062 143.245 395.164 145.345 397.757 145.345C400.349 145.345 402.451 143.245 402.451 140.653V120.603C402.451 115.815 400.026 111.516 394.828 111.516H391.22H368.988H365.38C359.703 111.516 357.756 116.454 357.756 120.603V140.653C357.756 143.245 359.859 145.345 362.451 145.345Z" fill="#0080FF"/>
</g>
</g>
<path d="M805.042 262.415H659.311V273.644H805.042V262.415Z" fill="#0080FF"/>
<path d="M337.691 262.415H191.96V273.644H337.691V262.415Z" fill="#0080FF"/>
</g>
</g>
<defs>
<clipPath id="clip0_59_353">
<rect width="997.002" height="545.99" fill="white"/>
</clipPath>
<clipPath id="clip1_59_353">
<rect width="997.002" height="545.99" fill="white"/>
</clipPath>
<clipPath id="clip2_59_353">
<rect width="992.042" height="199.82" fill="white" transform="translate(2.4801 346.17)"/>
</clipPath>
<clipPath id="clip3_59_353">
<rect width="992.042" height="199.82" fill="white" transform="translate(2.4801 346.17)"/>
</clipPath>
<clipPath id="clip4_59_353">
<rect width="992.042" height="124.514" fill="white" transform="translate(2.4801 346.17)"/>
</clipPath>
<clipPath id="clip5_59_353">
<rect width="992.042" height="124.514" fill="white" transform="translate(2.4801 346.17)"/>
</clipPath>
<clipPath id="clip6_59_353">
<rect width="992.042" height="45.912" fill="white" transform="translate(2.4801 500.079)"/>
</clipPath>
<clipPath id="clip7_59_353">
<rect width="992.042" height="45.912" fill="white" transform="translate(2.4801 500.079)"/>
</clipPath>
<clipPath id="clip8_59_353">
<rect width="321.62" height="276.152" fill="white" transform="translate(337.691)"/>
</clipPath>
<clipPath id="clip9_59_353">
<rect width="281.489" height="276.152" fill="white" transform="translate(357.756)"/>
</clipPath>
</defs>
</svg>
