<svg xmlns="http://www.w3.org/2000/svg" xml:space="preserve" width="1313.5836" height="300" viewBox="0 0 1313.5836 299.99999"><path d="M157.926 465.424c33.744 15.115 43.814 32.289 43.814 59.163v59.596h-88.354v-59.596c0-26.874 10.081-44.048 43.822-59.163h.718" style="fill:#c69a58;fill-opacity:1;fill-rule:nonzero;stroke:none;stroke-width:.141112" transform="matrix(2.52611 0 0 -2.52611 -286.426 1475.713)"/><path d="M157.898 468.198c31.759 14.225 41.405 30.391 41.405 55.68v57.893h-83.247v-57.893c0-25.289 9.41-41.455 41.17-55.68h.672" style="fill:#970022;fill-opacity:1;fill-rule:nonzero;stroke:none;stroke-width:.141112" transform="matrix(2.52611 0 0 -2.52611 -286.426 1475.713)"/><path d="M140.042 498.366c.659-1.017 1.952-2.445 3.595-2.958 1.184-.365 2.353-.18 3.432.438a5.636 5.636 0 0 0 1.087-1.12c-.447-.186-.824-.496-.939-.986a4.639 4.639 0 0 1-.135-1.082c0-1.312.653-2.462 1.939-3.545.022-.11.035-.22.035-.22.062-.532.138-1.194.52-1.776.122-.2.311-.48.585-.712.202-.75.762-1.653 2.312-2.17.434-.272.955-.504 1.488-.718l.731-.308-.233.2c.161-.14.487-.39.69-.452.92-.3 2.066-.257 2.396-.237.055.003.112.01.161.015 1.743.224 3.033 1.334 4.157 2.581.404.446.882.993 1.028 1.593.155.644.065 1.314.065 1.964 0 .8-.013 1.561.08 2.356.07.604.172 1.145.776 1.44.762.369 1.466.019 2.162-.3.332-.15.672-.3 1.012-.426.388-.146.725-.133 1.002-.476.179-.226.368-.288.642-.313.42-.033.515-.075.815-.394.31-.32.631-.522 1.012-.756.402-.254.82-.504 1.304-.614.302-.065.707 0 .98.158.265.155.33.437.534.648.26.272.635.395.95.585.21.13.46.17.643.336.219.198.236.466.356.717.27.552.995.426 1.32.955.303.496.17 1.236-.194 1.664-.237.274-.556.456-.783.738-.129.157-.302.258-.388.443-.088.192-.055.414-.171.598-.206.33-.676.554-.823.949-.37 1.018.024 2.281-.412 3.265-.194.439-.532.526-.427 1.08.138.732.122 1.583.482 2.252.417.774 1.25-1.077 1.414-1.275.34-.395.697-.83 1.094-1.168.473-.41.926-.68 1.566-.662.497.011.905.092 1.184.555.41.678-.172 1.263-.392 1.89-.282.816-.608 1.623-.748 2.483-.107.633-.258 1.275.131 1.864.158.234.487.188.673.41.19.22.19.619.568.66.318.032.551-.326.814-.438.522-.219.931.023 1.17.495.072.149.053.364.16.486.106.118.372.165.511.24.466.25.634.894.466 1.374-.195.535-.755.826-1.043 1.293-.212.34-.079.654-.048 1.047.041.492.048 1.03-.073 1.504-.075.275-.213.485-.393.715-.24.314-.165.373-.103.775.034.222-.045.809.103.98.182.211.696-.228.939-.305.588-.185 1.418-.284 2.023-.122.403.109.782.267.978.654.404.795-.152 1.572-.784 2.019-.398.278-.249.45.194.559.592.14 1.13.11 1.704.42.43.232.66.515.742 1.012.052.298.05.481.293.682.64.526 1.756.478 1.385 1.63-.187.577-.985 1.185-.77 1.84.183.539.946.838.812 1.494-.199.975-1.304 1.177-2.077 1.338a47.7 47.7 0 0 0-2.338.558s-.796.218-.819.226l-.65.339-1.177.566s-1.8.54-1.87.551l-.044.026s-.048.013-.006.006c-.052.027-.117.065-.117.065l-.546.305c-.025.01-1.254.405-1.254.405l-.98.318-.104.058-.354.165c-.008 0-.54.21-.54.21l-.253.088c-1.826.66-3.522.926-5.217.82l-.559-.006c-.659.008-1.56.02-2.649-.29 0-.006-1.027-.417-1.027-.417l-.4-.18c-.012-.005-.162-.05-.162-.05s-.75-.244-.75-.25l-.384-.17-.5-.2c-.519-.118-1.296-.101-2.047-.083-.802.016-1.638.034-2.429-.103-.989-.156-1.716-.58-2.297-.924l-.837-.427-.114-.022-.627-.162c.019.007-.146-.045-.146-.045l-.82-.316c.066.04-.465-.185-.465-.185l-.509-.198c-.045-.02-.598-.33-.598-.33l-.195-.118a75.46 75.46 0 0 1-.745-.459l-.14-.104-.217-.157c-.054-.04-.07-.045-.109-.096 0 0-.656-.612-.71-.668l-.426-.516-.145-.199c-.452-.52-1.116-1.147-1.596-1.501-.214-.119-.714-.407-.714-.407l-.318-.254-.269-.217c.03.021-.995-.581-.995-.581l-.442-.239c-.04-.018-.064-.04-.105-.06l-.369-.25-.664-.531-.275-.216c-.05-.031-.819-.786-.819-.786l-.126-.158c.043.04-.767-1.023-.767-1.023l-.09-.154c-.521-.765-.795-1.673-1.074-2.557l-.377-1.123c-.107-.203-.779-1.14-.992-1.349 0 0 .066.037.114.06a1.695 1.695 0 0 1-.247-.162l-.189-.177c0-.006-.286-.292-.3-.316l-.206-.157-.884-.865c0-.008-.412-.693-.412-.693l-.147-.274-.334-.482-.738-1.174a10.106 10.106 0 0 1-.188-.435c-.077-.113-.242-.406-.446-1.009a33.248 33.248 0 0 1-.268-.296c-.124-.115-.903-.885-1.019-1.414 0 0-2.73.305-4.831 1.38-2.082 1.067-.977-.644-.369-1.167.585-.501 1.286-1.047 3.129-1.57 0 0-1.332.15-3.402.983-2.058.832-.371-.9.183-1.273a5.83 5.83 0 0 1 2.166-.855s-3.06.172-4.94.801c-1.874.633-.909-.503-.374-.873.965-.663 3.164-.95 3.164-.95s-.625-.07-2.371.326c-1.717.384.175-.988 1.662-1.18 0 0-1.064-.29-1.885-.414-.814-.126.11-.535 1.185-.535.719 0 2.368.19 2.737.305 0 0 1.148-.222 2.27-.29l-.693-.424s-3.801-.44-4.544-.45c-.745-.013-.845-.744.532-.839.98-.069 1.565-.05 2.094 0 0 0-1.24-.738-1.845-1.054-.716-.37-.481-.84.914-.5 1.401.336 3.037.98 3.827 1.338 0 0 1.55.062 2.27.288 0 0-.896-1.433-1.875-2.201-.714-.553.026-.709.89-.48.871.226 2.168.902 2.9 2.16 0 0 .37-.108.71-.108 0 0 .337-1.046 1.749-1.51" style="fill:#d2ae7a;fill-opacity:1;fill-rule:nonzero;stroke:none;stroke-width:.141112" transform="matrix(2.52611 0 0 -2.52611 -286.426 1475.713)"/><path d="M175.705 493.299c.021.027.021.027 0 0M175.705 493.293v.006-.006M174.273 524.778a.156.156 0 0 0 .018.046c-.018-.055-.032-.056-.018-.046M168.034 507.255s-.02 0-.022.006c.022-.02.022-.02.022-.006M170.21 523.175s.512-.223.977-.112c.312.085.921.356 1.225.411.182.048.438-.048.618 0 .498.157 1.416 1.127.324 1.233-.4.041-1.597-.408-1.963-.516-.375-.093-.61-.157-.911-.32-.086-.04-.508-.393-.453-.334 0 0-.287-.238.183-.362M156.618 512.288c.112.148.27.047.405 0 .127-.035.136-.278.202-.402.037-.093.28-.343.305-.418.202-.896 0-2.078-.398-2.767-.123-.207-.309-.326-.443-.327-.17-.016-.222.228-.282.327-.26.363-.065 1.23 0 1.627.067.528-.345 1.363-.082 1.741l.293.22M144.322 511.338c.217.068.53-.05.662 0l.293.11c.343.225.687.157 1.028.127.172-.024.692-.237.857-.252a86.21 86.21 0 0 0 2.941-.364c-.007.007.727.099.548.305.111-.136-.017.11-.298.204l-.104.107c.01.016-.236.205.207.36-.16-.048.294.062.374.168.18.185-.073.388-.073.388-.654.22-1.38-.197-2.363-.096-.475.041-1.158.316-1.836.21-.746-.138-1.83-.547-2.34-.955 0 0-.249-.426.104-.312M152.539 516.663c.672.035.695-.654.714-.582-.078-.488-1.283-.533-1.566-.914-.857-1.105-.494-2.156-2.493-2.26 0 0-.397.09-.245.248.123.138.605.263.785.372.263.152.235.567.405.824.038.064.268.138.318.2.555.753.63 1.516 1.606 1.97.041.02.4.126.476.142" style="fill:#750013;fill-opacity:1;fill-rule:nonzero;stroke:none;stroke-width:.141112" transform="matrix(2.52611 0 0 -2.52611 -286.426 1475.713)"/><path d="M158.927 519.612c.229.131.459 0 .602-.13.09-.066.818-1.808.857-1.988.083-.632.154-2.09-.014-2.566-.248-.659-.848-1.16-.723-2.322.078-.685.379-1.224.654-1.82.043-.094.337-.671.354-.795.116-.632-.223-1.438-.271-1.949-.154-1.257.337-2.402.143-3.607-.087-.52-.256-.782-.535-1.096l-.227-.196c-.065-.12-.178-.167-.287-.254l-.148-.141c-.202-.054-.231-.175-.318-.19-.539-.118-.65.2-.608.125-.549 1.545.364 3.344-.107 4.837-.103.339-.518.68-.564 1.043-.19 1.337 1.058 2.044 1.04 2.94 0 .645-.837 1.475-1.025 2.113-.244.735-.4 2.148-.073 3.078.076.22.368.6.441.893.156.58.391 1.057.474 1.43.027.12.102.29.17.399a.584.584 0 0 0 .165.196M174.865 522.804c.902.113 1.306-.249.888-1.02l-.175-.168c-.079-.024-.315-.338-.365-.38-.434-.322-.848-.526-1.184-.931-.117-.136-.2-.482-.339-.602-.231-.163-1.096-.547-1.328-.58-1.078-.177-2.56.91-2.728 1.541-.138.54 0 1.07.239 1.189.357.189 1.342.091 1.675.124.833.065 1.357.018 2.008.241.387.129.844.534 1.31.586M162.35 521.32c-.31.049-.31.592-1.119.413-.574-.122-.72-.943-1.548-.922l-.4.198c-.359.089-.619-.041-.93.114-1.452.677 1.121 4.145 1.947 4.1.047 0 .471-.16.516-.208.271-.223.271-1.187.508-1.541.184-.241.477-.223.72-.41.264-.197.763-.88.827-1.235 0 0 .138-.594-.52-.51M156.133 521.07c-.556-.314-1.775-.8-2.038-1.338-.14-.287-.14-.528-.257-.871-.015-.042-.169-.097-.215-.207-.589 0-1.117.04-1.63-.1-.41-.112-.994-.548-1.434-.621-.914-.156-1.619.25-2.47.107-.38-.065-.626-.463-.934-.62-.27-.125-.378-.125-.592-.314l-.188-.225a2.574 2.574 0 0 0-.18-.386 2.014 2.014 0 0 1-.3-.861c-.046-.3-.217-.994-.37-1.283-.08-.145-.458-.454-.519-.583-.025-.087-.115-.18 0-.31-.124.14-.103-.141.634-.182.814-.013 2.582.526 2.582.526l.851.456c.165.128.826.63.97.8.619.766 2.274 3.567 3.563 2.838l.232-.17c.305-.516-.077-1.992-.31-2.322l-.294-.35c-.23-.082-.385-.679-.421-.947-.057-.447.074-.844.11-1.096.066-.528.12-1.201-.212-1.857-.065-.12-.261-.349-.205-.703.057-.414.628-.702.716-1.032.048-.17.19-.192 0-.518-.11-.172-.576-.467-.716-.612-.189-.199-.024-.484.098-.604.358-.327.649-.365.924-.738.392-.505.367-.936 1.236-1.023.68-.06 1.643-.097 1.23.83l-.208.341c-.232.606-.66 1.142-.716 1.806-.074.839.597 1.272.312 1.945-.224.528-1.257.464-1.337 1.143-.048.38.344 1.178.419 1.538.067.497-.057.809.101 1.236.099.295.552.64.604 1.012.092.68-.43 1.106-.199 1.853.113.378.704.337.923.62.29.377.13.9.3 1.441.026.054.164.376.193.434-.017.025.122.687.122.687-.077.415-.343.244-.375.26m-6.501-5.418c-.574-.134-.63 1.097-2.001.614-.078-.024-.469-.378-.504-.442-.154-.36-.066-1.29-.248-1.388 0 0-.538-.129-.438.549.164 1.082.374 1.281.918 1.738.069.06.287.21.386.23.65.155 1.854-.094 2.072-.425.183-.28-.21-.887-.185-.876" style="fill:#750013;fill-opacity:1;fill-rule:nonzero;stroke:none;stroke-width:.141112" transform="matrix(2.52611 0 0 -2.52611 -286.426 1475.713)"/><path d="M187.231 523.78c-.103.501-1.467.466-2.012 1.13-.203.273-.055.418 0 .623.15.577 1.395.233 1.693.753.119.223.148.868.078.954-.778.957-2.433.498-3.593.963-.566.228-1.261.698-1.847.914-.735.29-1.31.332-2.055.618-.168.076-.498.316-.671.384-.824.333-1.472.4-2.3.746-.092.041-.352.188-.448.226-.327.146-.443.168-.78.29-1.277.458-2.892.863-4.729.75-.803-.038-1.735.109-2.98-.244-.422-.11-1.023-.48-1.43-.608-.287-.08-.523-.136-.79-.251-.351-.141-.666-.346-1.161-.469-1.399-.31-3.29.033-4.717-.203-1.235-.199-1.96-.985-2.982-1.336-.316-.103-.435-.068-.74-.178-.18-.062-.596-.178-.749-.254-.427-.223-.705-.29-1.178-.487-.243-.11-.522-.33-.757-.44-.35-.171-.364-.222-.654-.42l-.227-.171s-.506-.442-.565-.521c-.193-.202-.394-.491-.569-.714-.522-.603-1.302-1.368-1.95-1.839-.235-.168-.398-.13-.61-.313-.242-.193-.46-.387-.688-.569-.552-.38-1.082-.64-1.672-.964l-.384-.255c-.5-.323-.487-.456-1.006-.785-.333-.232-.483-.584-.799-.85-.207-.156-.444-.662-.58-.875-.639-.944-.889-2.333-1.346-3.496-.13-.341-1.252-1.957-1.534-2.057l-.203-.195c-.16-.137-.16-.178-.308-.32-.334-.294-.67-.466-.921-.824-.206-.278-.333-.6-.517-.918-.297-.48-.777-1.02-1.02-1.546-.11-.192-.17-.383-.25-.569l-.045-.063c-.125-.156-.346-.819-.346-.819-.227-.536-.764-.827-1.483-1.847-.836-.058-3.726.673-5.69 1.61.44-.502 2.641-1.982 5.223-2.262-.173-.252-.183-.512-.492-.593-1.033-.252-2.83.31-5.238 1.153.145-.334 2.26-1.574 5.4-1.768-.47-.544-4.768-.416-8.138.507-.13-.353 4.204-1.318 6.586-1.283-.397-.212-1.476-.45-2.163-.701-1.085.12-2.602.306-2.896.415.066-.219 1.142-.513 2.03-.714-.852-.302-2.123-.48-2.611-.592.355-.083 1.73.134 3.17.483 1.269-.241 3.21-.495 4.27-.446-.27-.131-1.27-.777-2.06-1.245-2.02-.193-4.227-.358-4.699-.414.266-.044 2.046-.068 3.936-.03-1.15-.673-2.388-1.373-2.989-1.644.888.22 2.448.823 4.054 1.678 1.586.058 3.072.19 3.69.41-.217-.458-1.494-2.675-2.695-3.189.52.084 2.186.56 3.18 3.065a3.536 3.536 0 0 1 1.233-.278c.264-.393.901-1.415 2.084-1.48.244-.687 2.43-4.266 5.522-2.873-.89.487-1.433.998-1.874 2.417 1.375.086 4.998-1.903 6.087-6.2-.854.29-1.932.789-2.046 1.215-.231-.995-.39-2.28 1.816-4.496.035-.464.03-1.04.137-1.575.357-.384.778-.662 1.17-.989.025-.624-.058-1.482 1.577-1.964.554-.45 2.341-.947 2.607-1.258.532-.169 1.32-.204 1.909-.169 0 0 .773.129.98.428.382.018.914.03 3.291 2.565.499.594 0 3.872.12 4.668.237.577.336 1.115.652 1.819 0 0 .326.698.929.98.042.026.087.026.134.039 1.364.31 3.147-.972 3.985-1.33.309-.128.474-.062.725-.207.117-.069.29-.344.407-.416.303-.175.594-.119.928-.3.497-.272 1.493-1.718 2.357-1.554.275.065.487.684.72.834.413.252.97.223 1.337.503.41.328.233.695.303 1.14 0 .019.194.222.214.311.2.021.646 0 .92.092.04.015.16.158.207.207.167.18.048.375 0 .525-.072.164-.481.367-.618.505-.3.304-.841.752-1.026 1.123-.099.192.021.233-.114.427-.13.21-.488.429-.593.704-.392.885-.244 2.843-.422 3.117-.154.27-.362.234-.52.477-.345.54.074 2.287.108 2.973.023.556-.516.213-.516.213-.44-1.109-.394-1.6-.513-3.186-.014-.133-.201-.982-.201-1.135-.007-.544.32-1.49.101-2.153-.075-.216-.52-.627-1.129-.615-.232 0-1.373.296-1.64.405-.054.034-.293.31-.31.32-.578.45-.698.027-.725-.195-.017-.238.08-.288.124-.422.023-.127.26-.62.229-.661 0-.05-.206-.587-1.269.042-.806.485-1.602 1.824-1.642 2.057-.11.514.049.898.146 1.077.4.356.877-.137 1.279-.356.1-.052.35-.224.472-.247.239-.045.613.04.66.04 1.563.089 3.177-.474 3.455.571.172.66-.474 1.014-.587 1.275-.148.34-.07.36-.156.726-.013.03-.12.267-.139.3-.165.272-.055.51-.204.812-.163.342-.631.54-.824.827-.261.384-.261.854-.62 1.133-.52.43-2.629 1.054-2.87 1.543-.4.78.083 2.204-.107 3.178-.102.572-.29.883-.637 1.23a.588.588 0 0 0-.15.53c.091.345.279.246.38 1.008.055.425-.043.9 0 1.334 0 .072.202.74.21.827.095 1.147-.059 2.34-.308 3.169-.12.408-.493.758-.621 1.134-.108.324.03.508-.108.832-.108.275-.455.475-.6.701-.277.412-.197 1.113-.62 1.346-.313.167-.426-.069-.41 0-.102-.382-.086-.746.1-1.23.078-.215.465-.517.521-.72.08-.387-.056-.848 0-1.233l.2-.418c.156-1.03-.4-2.395-.822-2.969-.295-.381-1.182-.868-1.228-1.44-.04-.354.1-.365.187-.513.14-.185.561-.437.626-.615.048-.131.098-.107.153-.236l.058-.284c.062-.72-.868-.876-.42-1.732.135-.253.573-.253.826-.42.459-.289 1.346-1.12 1.43-1.837.04-.307 0-1.961-.095-2.153-.209-.462-1.362-.64-1.23-1.544.145-.982 2.741-.71 3.478-1.226.35-.25.422-.78.52-1.245.064-.257-.19-.34-.303-.4-.28-.163-.468-.036-.824-.112-.85-.17-2.2-.552-2.555-1.236-.444-.783.08-1.854-.105-2.76-.185-.814-.794-1.808-1.243-2.468-.272-.404-.62-.795-.745-1.365-.3-1.2-.089-2.637-.188-4.058l-.013-.018s.054-.73-.437-1.266c-.567-.618-2.516-2.449-3.91-2.449-.508.012-.72.181-1.287.593-.353.027-1.164.226-1.633.718-.144.259-1.676 1.814-.71 2.253.904.421 2.361-.489 3.041-.93.28 0 2.258-.098 4.36 2.662-.098 1.44-.22 3.292-.37 3.621-.222.706-1.413 1.96-1.668 2.711-.158.607-.446 1.803-.266 2.629-.073.924-.666 1.118-.904 1.865-.064.188-.15.333-.188.397-.062.262-.125.51-.288.758-.37.554-.72.68-1.05 1.223-.352.567-.283 1.272-.824 1.647-.299.192-.695.216-1.024.405-.243.142-.545.491-.819.611-.327.142-.419.185-.743.332-.161.079-.453.211-.593.283-.148.084-.293.01-.412.112-.4.336-.109.643-.313 1.22-.021.068-.17.075-.203.21-.167.04-.453.31-.68.157-.303-.237-.389-.17-.58-.64-.105-.304-.322-1.22-.528-1.447-.18-.217-.42-.52-.711-.73-.27-.143-.504-.12-.504-.12l-.766-.11-.39-.592s-.42.06-.634.06c-.06-.149-.572-.531-.732-.667-.653-.388-1.05-.116-1.09.02-.035.121-.246.38.201.648 1.507.416 3.351 2.428 3.507 2.868-.194-.299-3.31-2.013-3.89-2.25.619 1.476 4.434 3.62 4.669 3.877-.973-.146-4.228-2.119-4.797-2.978-.535-.875-1.165-.633-1.774-.61-.58.02-.526-.603-.55-.988-.011-.37-.298-1.136-.056-1.271.4-.345 1.44 1.044 1.785.296.178-.832-1.983-.797-1.962-1.466-.098-.361 2-.478 2.38-.858-.675-.498-2.325-.648-2.814-.679a3.473 3.473 0 0 0-.74.014c-.273.046-.635.295-.948.81-.601 1.087.42 1.832.435 2.106.025.297-.122.137-.137.597-.02.451.498.532.626.626.14.099-.042.227-.006.665.267 1.003 1.89 2.149 1.48 2.474-.375.194-1.172-.676-1.474-1.073-1.123-1.442-2.43-.988-2.865-1.006-.993-.052-.814 1.03-.13.958.804.158.739 1.264 1.304 1.145.181-.798-.71-.918-.292-1.097.568-.22.628.53.809.838.164.312.96 1 .88 1.171-.238.08-.83-.34-1.092-.543-.65 1.62.98 2.855 1.067 3.333.538.844 3.54 1.933 3.591 3.219l.088.078s.05.035.144-.122h.008c.012-.077.034-.163.056-.242.01-.105-.008-.206-.008-.206l.019.127c.018-.204.018-.377.018-.335v-.195c.032-.114.185-.17.205-.186a.73.73 0 0 1 .386.248c.027.023.192.191.192.226.294.216.344.242.549.53.52.753-.476 1.85-.205 2.863.195.675.819 1.471.819 1.471.175.383-.093.383-.093.383-.404.073-.675-.353-.616-.302-.51-.477-.659-.7-1.032-1.346 0 0-.305-.28-.397.107-.174.633.545 1.884.77 2.047.425.287.844.412 1.372.623.277.117.665.543.934.61.129.049.267.077.407 0 0 0 .197-.14.104-.61 0 0-.205-.552-.133-.757.051-.138.029-.264.332-.264.75-.022 2.39.156 2.87.415.11.045.222.2.318.292.152.161.115.388 0 .415l-.318.103c.249.03-1.383.047-1.126.095-.282-.048.394.76.312 1.141-.032.187-.357.257-.412.405-.03.092-.203.228 0 .31l.238.098c.08.058.168.151.273.212.518.234 1.44.117 1.85 0 .053-.028.704-.212.928-.828.052-.175.1-.365.202-.518.308-.424 1.21-.576 1.74-.075.106.099.241.344.319.477.52 1.213-.258 2.039-1.24 2.37-.397.139-1.042.185-1.537.31-.352.098-.138.395-.042.484l.148.138c.196.282.811.542 1.03.615.539.199 1.074.4 1.844.092.112-.038.418-.275.505-.302.582-.143.799-.184 1.337.091.217.108.186.135.207.204.186.549-.19.921-.18.856-.104.744 2-.173 2.324.287.314.426.115 1.23.527 1.54.036.027.283.194.3.201.395.083.737-.079 1.054-.2l.333-.16c.664-.275 1.237-.42 1.597-.966.23-.36.193-.875.41-1.242.097-.147.315-.251.424-.401.099-.124.28-.192.394-.262.192-.12.264-.168.51-.249.188-.072.45-.348.621-.413.625-.263 1.375-.22 2.056-.21.4.024.635-.218 1.02-.104.198.071.143.415.019.565-.243.313-.435.236-.837.463-.157.107-.36.416-.514.51-.47.304-1.147.35-1.436.828-.033.073-.092.206-.096.299l-.113.216c-.563 1.15-.753 1.833-.205 2.05.332.13 1.084.056 1.444.206.085.044.243.275.305.309.813.382 2.34.842 3.183.408.25-.122 0-.775.1-1.029.051-.111.245-.295.452-.364 1.754-.47 3.52-.398 4.818-1.005.766-.365 1.361-.935 2.051-1.536.597-.532-.104-1.125.507-1.304-.428-.055-.778-.105-.848.111a1.256 1.256 0 0 1-.209.3c-.453.442-.995 1.114-1.638 1.339-.325.12-.472.012-.827.1l-.402.14c-.458.125-.486.087-.926.18-.199.035-.635.271-.824.295-.878.127-1.362-.22-2.154 0-.372.11-.845.693-1.14.85-.372.208-.71.276-1.126.409-.166.05-.257.05-.374-.02-.23-.127-.15-.329-.035-.497.07-.093.126-.251.205-.296.29-.213.874-.213 1.027-.511.457-.896-.209-1.215-.304-1.479-.055-.16-.173-.288 0-.51.095-.115.295-.253.414-.3.42-.176.744-.104 1.13-.312.275-.142.565-.645.923-.724.817-.17 1.019.436 1.434.523.588.13.958-.184 1.642 0 .223.062.353.331.51.409.395.202.789.233 1.036.104 0 0 .26-.124-.11-.312-.216-.115-.394-.115-.609-.23-.148-.075-.288-.289-.306-.317a2.153 2.153 0 0 1-.123-.377.58.58 0 0 1 .216-.21c.714-.243 1.438.221 2.059.314.446.068 1.722 0 2.088-.282 0 0 .345-.073.119-.686-.138-.362-.72-.636-.943-.953-.127-.177-.279-.51-.402-.688-.223-.28-.26-.27-.474-.527l-.15-.218c-.084-.264-1.134-1.15-1.329-1.448-.113-.176-.176-.365-.295-.554-.19-.27-.326-.312-.422-.476-.304-.434-.89-1.31-1.378-1.535-.219-.086-.528.01-.826.073-.21.06-.426.432-.607.515-.72.33-1.52.239-2.157.619-.316.187-.596.738-.833 1.027-.144.193-.278.529-.502.622-.373.129-1.266.007-1.437-.305-.342-.652.544-2.305.617-2.991.054-.583-.213-.84 0-1.325.095-.246.488-.314.612-.514.556-.875.077-2.11.208-3.284.048-.358.268-.82.199-1.34-.086-.814-1.146-1.526-.72-2.766.024-.052.223-.202.243-.214.158-.08.413-.043.587.006.347.12.672.803 1.026 1.03.042.042.16.099.226.099.038.064.132.072.183.104.154.111.215.111.305.3.148.336.096.667.206 1.136.107.396.464 1.094.516 1.539.13 1.263-.786 3.722-.13 4.123.257.156.497.451.926.516.192.047.809-.146 1.083-.14v-.006c-.34-.79.896-2.838.788-3.968-.24-2.762-2.034-4.292-3.59-5.762-.186-.176-.03-.377.102-.507.305-.299 1.06-.169 1.44-.107.567.116.818.37 1.23.517.15.055.341-.039.51 0 .427.103.791.687 1.03 1.03 0 0 .498.549.606-.172l.008-.046c0-.664-.117-1.391 0-2.039.126-.773 1.533-3.089 2.265-3.19 1.698-.257-.04 1.898-.117 2.053-.271.646-.552 1.81-.51 2.667.015.316.274.951.301 1.239.02.15-.052.49 0 .614.145.27 1.051.362 1.24.71.053.111-.018.297 0 .42.047.24.226.704.417.907.12.164.297.246.512 0 .175-.187.212-.657.516-.983l.25-.278c.304-.192.792.063.67.04.312.09.27.404.414.524.018.016.189.086.189.086.75.775-.906 1.458-.917 2.17-.01.784.179 1.691-.102 2.556-.063.227-.463.528-.504.726-.124.49.14 1.011.204 1.326.111.653-.112 1.67.1 1.959.13.155.313.27.714.2.262-.045.433-.471.62-.614.667-.547 1.443-.837 2.568-.715.144.008.254.217.275.27a.74.74 0 0 1-.075.654c-.408.536-1.966.955-2.053 1.216-.058.202-.3.472-.036.614-.145-.093.961.031 1.37.119.524.107.555.632.922.813.508.268 1.26.036 1.552.513.168.305.031.745.19 1.032.208.362.814.434 1.128.722.098.078.053.4.041.503m-41.26-24.005c-.207.222-.035.658.334.842.693.325.963-.046 1.114-.222.67-1.04 1.537-2.378 2.174-2.91-.592-.054-2.794.62-3.623 2.29m5.64-10.38c-.345 0-2.641 1.919-2.291 3.124.67-.505 2.194-1.566 2.387-1.545.197-.119.357-1.442-.096-1.58m2.66-.007c-.299.267-2.513 2.608-1.96 3.69.614-.607 2.296-2.166 2.906-2.314.166-.44.145-1.67-.946-1.376m.236 8.94c.388-.583.92-.917.899-2.18-.044-.296.052-.366.31-.334.232.066.105 1.509.806 1.414.587-.085.193-.919.488-1.846.1-.327.782-1.52.597-3.557-.012-.525-1.01-1.217-1.587-.813-.465.288-.465.635-.737 2.788-.111 1.275-1.668 1.706-2.32 2.29-.664.482-.283.729-.406 1.614-.381 1.272-1.874 1.874-1.376 2.72.165.212.31.414.78.233.033-.634 1.543-1.123 2.546-2.328m-10.578 4.028c-.038-.024-.043-.024.017.004-.008 0-.015 0-.017-.004.156.068.819.38.99.444.702.248 1.082-.127 1.724.231.156.096.323.346.464.46.123.106.335.087.487.195.357.245 1.026 1.009 1.479 1.09.27.044.267-.02.4-.036 0-.023.2.04.147-.356-.121-.756 1.668.014 2.831-.27.803-.183 1.582-.46 1.373-.973.03.062-.236-.152-.296-.193-.546-.4-.977.04-1.25.077-.483.057-.826-.091-1.317-.034 0 .016-.586.204-.586.204-.377.022-.908-.173-1.2-.204-.534-.034-.8.15-1.285.103-.225-.028-.62-.337-.783-.399-.162-.058-.341-.113-.508-.165-.099-.027-.36-.17-.485-.224-.497-.243-.79-.243-1.387-.405l-.35-.092c-.753-.102-.683.416-.448.547m-1.829-2.932c.816.195 1.055-.015 1.434-.934.294-.546.892-1.271 1.122-1.603-.941-.116-2.407 1.158-2.826 1.85-.263.344.132.608.27.687m-10.282 3.86c1.065.289 2.002.6 2.403.825.138.006.28.006.42.018.062-.28.167-.57.339-.855.034-.055.076-.113.107-.16-.643-.018-1.949.066-3.27.171m2.216-1.862c.548.322 1.074.684 1.568 1.044.224-.264.474-.514.746-.748-.28-.08-1.185-.189-2.314-.296" style="fill:#750013;fill-opacity:1;fill-rule:nonzero;stroke:none;stroke-width:.141112" transform="matrix(2.52611 0 0 -2.52611 -286.426 1475.713)"/><path d="M143.928 502.357c.003.003.008.003.017.003-.06-.027-.055-.027-.017-.003" style="fill:#750013;fill-opacity:1;fill-rule:nonzero;stroke:none;stroke-width:.141112" transform="matrix(2.52611 0 0 -2.52611 -286.426 1475.713)"/><path d="M133.575 559.655c-.203.176-.428.377-.675.598a18.47 18.47 0 0 0-.732.695c-.768.83-1.492 1.624-2.156 2.365l-.838.917c-.278.3-.53.585-.762.856l-.631.696-.2.224c.022.029.047.06.077.095.152.185.344.416.573.698.23.28.487.599.776.956.286.357.576.72.866 1.088l2.337 2.887.83.83h-3.29l-4.746-5.926v5.926h-3.019v-14.354h3.019v6.461l4.878-5.424c.497-.687 1.391-1.037 2.657-1.037h2.97l-1.282.91c-.21.158-.426.339-.652.539" style="fill:#fff;fill-opacity:1;fill-rule:nonzero;stroke:none;stroke-width:.141112" transform="matrix(2.52611 0 0 -2.52611 -286.426 1475.713)"/><path d="M143.647 572.58v-8.78c0-.6-.045-1.14-.128-1.602-.079-.426-.234-.78-.467-1.057-.229-.28-.559-.5-.984-.652-.44-.157-1.031-.237-1.757-.239-1.864.007-2.77 1.167-2.77 3.55v4.236c0 1.246.007 2.651.02 4.215l.003.328h-3.04v-8.78c0-1.034.04-1.752.122-2.2.162-.83.51-1.55 1.034-2.143.963-1.044 2.326-1.573 4.056-1.573h1.146c1.727 0 3.092.529 4.061 1.579.52.587.865 1.306 1.029 2.142.081.443.12 1.161.12 2.195v8.78h-2.444M132.899 551.823l-3.778-9.73h-.954l-4.145 9.68-1.253-9.68h-1.707l1.756 12.037h2.34l3.628-8.46 3.342 8.46h2.377l1.67-12.038h-2.122l-1.154 9.731M138.934 543.764h5.635v-1.672h-7.725v12.005h6.973v-1.605h-4.883v-3.11h3.846v-1.589h-3.846v-4.029M154.181 552.526c1.217-1.06 1.824-2.498 1.824-4.314 0-1.806-.635-3.278-1.907-4.414-1.271-1.137-2.914-1.706-4.932-1.706h-3.594v12.022h3.694c2.063 0 3.702-.53 4.915-1.588m-1.954-7.825c.5.39.875.9 1.12 1.53a5.55 5.55 0 0 1 .366 2.014c0 .636-.102 1.22-.308 1.757a3.95 3.95 0 0 1-.894 1.385c-.793.77-1.93 1.155-3.411 1.155h-1.489v-8.912h1.17c1.415 0 2.565.357 3.446 1.071M157.091 554.097h2.073v-12.005h-2.073v12.005M170.4 542.678a9.934 9.934 0 0 0-.478-.217 7.341 7.341 0 0 0-.743-.269 11.148 11.148 0 0 0-1.029-.208 8.102 8.102 0 0 0-1.263-.092c-2.128 0-3.787.557-4.981 1.672-1.226 1.102-1.84 2.597-1.84 4.48 0 1.807.585 3.277 1.755 4.414a6.2 6.2 0 0 0 2.05 1.355c.784.323 1.663.512 2.632.569a7.427 7.427 0 0 0 1.564-.06c.451-.072.832-.153 1.146-.242.366-.123.685-.256.952-.401v-2.024c-.257.168-.508.32-.752.452a5.937 5.937 0 0 1-.77.351c-.279.1-.576.175-.894.226a5.71 5.71 0 0 1-1.06.058c-.704-.023-1.329-.167-1.873-.435a4.925 4.925 0 0 1-1.389-.986c-.735-.768-1.104-1.772-1.104-3.009 0-1.294.39-2.391 1.172-3.294.423-.479.892-.833 1.404-1.062.512-.228 1.092-.354 1.74-.375.5-.023.956 0 1.368.066a8.24 8.24 0 0 1 1.104.251c.312.1.576.21.787.326.21.118.379.215.501.293v-1.84M171.486 554.097h2.074v-12.005h-2.074v12.005M185.096 554.114h.133v-12.039l-1.722.017-7.04 8.98v-8.98h-1.57v12.022h1.804l6.939-8.828v8.828h1.456M188.656 543.764h5.633v-1.672h-7.723v12.005h6.973v-1.605h-4.883v-3.11h3.846v-1.589h-3.846v-4.029" style="fill:#fff;fill-opacity:1;fill-rule:nonzero;stroke:none;stroke-width:.141112" transform="matrix(2.52611 0 0 -2.52611 -286.426 1475.713)"/><path d="M448.238 532.102c.47 1.428 2.018 7.229 2.018 21.714v4.754l.056 4.97v.299h-31.856v-5.582h25.463v-9.971c0-2.8-.348-13.567-1.994-16.184h-3.161v14.273h-6.082v-14.273h-4.607v14.273h-6.096v-14.273h-7.807v-5.574h40.113v5.574h-6.047M353.178 564.238V549.71h-4.041v14.53h-5.86v-27.842c-2.625-1.702-7.266-1.585-7.31-1.583h-7.468v23.771h9.64v5.36h-16.005v-29.51c.05-4.634 4.336-5.125 4.377-5.13.065-.004 4.34-.096 8.739.111 4.271.2 6.68.877 8.026 1.472v-7.159h5.86v20.31h4.042v-20.31h5.852v40.51H353.178M228.897 526.419h40.218v5.59h-6.034c.496 1.576 2.004 7.522 2.004 21.506v6.652l-.02 3.373v.299H233.29v-5.597h25.45v-10.24c0-.127-.084-12.79-1.935-15.994h-9.092v14.483H241.6v-14.483h-12.704v-5.589M398.454 539.281h-28.189v-5.421h27.893v-10.13h6.306v15.551h-6.01M381.671 547.083c-2.929 0-5.31 2.384-5.31 5.327 0 2.941 2.381 5.33 5.31 5.33 2.923 0 5.308-2.389 5.308-5.33 0-2.943-2.385-5.327-5.308-5.327zm0-5.161c6.197 0 11.24 4.796 11.24 10.686 0 1.988-.632 3.87-1.78 5.516h3.822v5.189h-10.327v3.994h-6.155v-3.994H367.93v-5.19h4.148c-1.172-1.646-1.812-3.527-1.812-5.515 0-5.791 5.219-10.687 11.406-10.687M404.429 564.106h-6.314v-22.444h6.314v8.176h4.193v5.613h-4.193v8.655M305.5 564.344v-7.267h-6.826v-5.285h6.825v-6.118h-6.825v-5.282h6.825v-4.44c-2.149-2.185-8.003-2.14-8.063-2.14h-14.205v10.54h12.897v19.524h-19.734v-5.37h13.631v-8.568h-13.2v-.104h-.101v-16.582c.19-4.465 4.352-4.95 4.391-4.95l15.586.11c4.926 0 7.993.922 8.798 1.346v-6.029h6.38v40.615h-6.38M605.407 537.603h-6.295v-9.663c0-1.462.307-2.513.923-3.21.55-.658 1.449-1 2.662-1h30.661v5.316h-27.951v8.557" style="fill:#950022;fill-opacity:1;fill-rule:nonzero;stroke:none;stroke-width:.141112" transform="matrix(2.52611 0 0 -2.52611 -286.426 1475.713)"/><path d="M607.034 559.155c1.051 1.032 2.28 1.539 3.728 1.539 1.405 0 2.596-.507 3.646-1.539 1.146-1.11 1.702-2.427 1.702-4.007 0-1.55-.556-2.85-1.702-3.964-1.086-1.103-2.272-1.627-3.646-1.627-1.423 0-2.642.524-3.725 1.627-1.114 1.11-1.66 2.412-1.66 3.964 0 1.58.543 2.897 1.657 4.007zm13.552-10.021c1.214 1.731 1.84 3.734 1.84 6.001 0 3.267-1.22 5.98-3.64 8.069-2.277 1.987-4.96 2.987-8.024 2.987-3.112 0-5.834-1-8.087-2.987-2.39-2.088-3.599-4.802-3.599-8.069 0-2.267.618-4.27 1.824-6.001h-4.248v-5.37l11.518.003v-8.342h6.273v8.342h10.437v5.367h-4.294" style="fill:#950022;fill-opacity:1;fill-rule:nonzero;stroke:none;stroke-width:.141112" transform="matrix(2.52611 0 0 -2.52611 -286.426 1475.713)"/><path d="M627.1 532.466h6.288v31.699H627.1v-22.989h-5.734v-5.343h5.734v-3.367M569.54 550.987h-9.566v4.296h9.566zm6.427 14.249h-6.31v-4.686h-9.683v4.686h-6.398v-15.124c0-1.585.287-2.693.872-3.394.556-.692 1.467-1.044 2.689-1.044h18.824l.006 19.562M571.033 536.527c1.24 1.141 2.67 1.7 4.389 1.7 1.647 0 3.048-.559 4.283-1.7 1.339-1.236 1.992-2.69 1.992-4.444 0-1.721-.653-3.16-1.992-4.4-1.275-1.212-2.674-1.797-4.283-1.797-1.678 0-3.106.585-4.382 1.795-1.306 1.241-1.944 2.676-1.944 4.402 0 1.754.638 3.208 1.937 4.444zm4.389-15.843c3.305 0 6.216 1.039 8.637 3.092 2.607 2.175 3.936 4.969 3.936 8.297 0 3.381-1.33 6.204-3.936 8.384-2.424 2.052-5.335 3.096-8.637 3.096-3.376 0-6.316-1.044-8.745-3.098-2.574-2.178-3.882-5-3.882-8.382 0-3.328 1.308-6.117 3.882-8.297 2.429-2.053 5.37-3.092 8.745-3.092M582.58 544.04h6.335v21.446h-6.336v-3.738h-5.084v-5.254h5.084v-2.938h-5.084v-5.194h5.084v-4.322M468.358 558.385c1.07 1.074 2.3 1.593 3.772 1.593 1.416 0 2.622-.52 3.688-1.593 1.148-1.16 1.706-2.529 1.706-4.18 0-1.611-.558-2.963-1.706-4.124-1.102-1.153-2.304-1.69-3.688-1.69-1.438 0-2.676.537-3.768 1.687-1.123 1.161-1.67 2.516-1.67 4.127 0 1.651.547 3.02 1.666 4.18zm3.814-15.237c3.103 0 5.838 1.014 8.12 3.001 2.445 2.108 3.695 4.822 3.695 8.05 0 3.284-1.25 6.018-3.695 8.139-2.284 1.99-5.018 3.004-8.12 3.004-3.167 0-5.93-1.015-8.214-3.004-2.415-2.121-3.646-4.855-3.646-8.138 0-3.223 1.231-5.934 3.646-8.048 2.284-1.99 5.047-3.004 8.214-3.004M470.436 538.474h-6.365v-10.507c0-1.473.307-2.524.938-3.224.546-.67 1.45-1.014 2.677-1.014h28.963v5.312h-26.213v9.433M496.706 564.61h-6.38v-28.432h6.38v15.547h4.834v5.593h-4.834v7.293M514.638 558.309c.998.997 2.146 1.491 3.526 1.491 1.327 0 2.453-.494 3.456-1.491 1.073-1.084 1.602-2.365 1.602-3.905 0-1.51-.53-2.778-1.602-3.863-1.034-1.07-2.162-1.586-3.456-1.586-1.347 0-2.504.516-3.523 1.583-1.051 1.088-1.566 2.356-1.566 3.866 0 1.54.515 2.821 1.563 3.905zm3.572-14.435c2.962 0 5.56.957 7.733 2.854 2.326 2.008 3.516 4.596 3.516 7.666 0 3.127-1.19 5.73-3.516 7.749-2.174 1.898-4.778 2.856-7.733 2.856-3.017 0-5.65-.958-7.82-2.856-2.305-2.02-3.475-4.622-3.475-7.749 0-3.067 1.17-5.653 3.476-7.662 2.17-1.9 4.802-2.858 7.819-2.858M542.396 564.557h-6.377V543.48h6.377v8.775h4.835v5.59h-4.835v6.713M536.138 535.86v-6.747h-19.582v6.748zm6.324-12.125v17.495h-32.224V528.04c0-1.514.304-2.585.92-3.292.603-.675 1.521-1.018 2.73-1.018l28.574.006M281.6 500.243l4.85-.004v1.987l-4.85-.01v3.932c1.063.027 5.933.003 5.988.003l.172-.003v2.032l-8.79.004v-.175l.002-14.977h9.725v2.122l-7.098-.007v5.096M371.126 500.243l4.849-.004v1.987l-4.849-.01v3.932c1.064.027 5.935.003 5.988.003l.169-.003v2.03l-8.787.007v-15.153h9.73l-.006 2.122-7.094-.007v5.096M347.088 508.185v-15.178h2.608l-.003 15.178h-2.605M407.688 508.185l-.004-15.178h2.61l-.004 15.178h-2.602M274.514 496.47s-2.507 3.14-3.14 3.928c.518.19 1.426.596 2.113 1.32.76.794 1.15 1.7 1.15 2.675 0 1.113-.422 2.026-1.254 2.718-.86.714-2.06 1.074-3.56 1.074h-5.025v-15.123h2.692v.224c-.064.508-.072 1.245-.072 3.083v9.93c2.47.024 3.451-.286 3.837-.558.513-.366.763-.9.763-1.622-.011-1.673-1.236-2.667-3.747-3.046l-.286-.043 5.309-6.845c.622-.783 1.543-1.178 2.73-1.178h2.16l-.444.302c-1.074.735-2.256 1.924-3.226 3.162M390.662 496.47s-2.508 3.14-3.14 3.928c.522.188 1.427.596 2.12 1.32.756.794 1.144 1.7 1.144 2.675 0 1.11-.423 2.026-1.255 2.718-.865.714-2.06 1.074-3.563 1.074h-5.024v-15.123h2.695v.224c-.067.508-.072 1.245-.072 3.083v9.93c2.473.024 3.451-.286 3.834-.558.519-.366.767-.9.767-1.622-.014-1.673-1.236-2.667-3.746-3.046l-.288-.043 5.308-6.845c.626-.783 1.544-1.178 2.731-1.178h2.162l-.446.302c-1.077.735-2.252 1.92-3.227 3.162M341.555 508.185l-.004-11.124-8.75 11.124h-2.275v-15.159h1.982v11.334l8.878-11.321 2.174-.015v15.16h-2.005M412.593 508.185v-.168l-.008-1.83s3.92 0 4.234-.002v-13.173h2.61l.003 13.173 4.317-.004v2l-11.155.003M298.87 500.658h-3.882c.152.39 1.702 4.305 1.96 4.967.257-.665 1.77-4.578 1.922-4.967zm-.43 7.569h-2.418l-6.17-15.195h2.334s1.996 5.409 2.075 5.62h5.444c.077-.211 2.119-5.62 2.119-5.62h2.9l-6.173 15.195h-.111M246.07 493.543c-.54.405-1.038.787-2.118 1.918 0 0-4.572 5.063-5.269 5.829.18.227 5.316 6.564 5.316 6.564l.303.326h-2.592l-5.773-7.21v7.21H233.322v-15.148h2.615v7.722l6.028-6.71c.499-.672 1.4-1.012 2.652-1.012h2.163l-.516.363-.194.148" style="fill:#950022;fill-opacity:1;fill-rule:nonzero;stroke:none;stroke-width:.141112" transform="matrix(2.52611 0 0 -2.52611 -286.426 1475.713)"/><path d="M253.902 494.525c-1.578 0-2.904.665-3.941 1.956-.97 1.21-1.464 2.639-1.464 4.256 0 1.67.501 3.056 1.472 4.137.97 1.061 2.272 1.597 3.885 1.597 1.573 0 2.882-.649 3.895-1.933.923-1.192 1.394-2.651 1.394-4.338 0-1.646-.474-3.01-1.411-4.065-.977-1.071-2.264-1.61-3.83-1.61zm.103 13.916c-2.299.013-4.28-.762-5.876-2.298-1.606-1.536-2.416-3.42-2.416-5.61 0-2.3.805-4.233 2.39-5.744 1.547-1.48 3.458-2.23 5.688-2.23 2.236 0 4.162.776 5.747 2.307 1.59 1.533 2.396 3.489 2.396 5.782 0 2.108-.746 3.926-2.215 5.426-1.529 1.553-3.448 2.35-5.714 2.367M327.132 508.079h-1.816l.015-9.328c0-2.787-.65-4.288-4.067-4.288h.023c-2.266 0-3.422 1.44-3.422 4.288l.013 9.328h-2.626l-.008-9.335c0-1.133.045-1.913.137-2.375a4.34 4.34 0 0 1 1.055-2.184c.99-1.073 2.4-1.626 4.202-1.626h1.272c1.798 0 3.219.553 4.21 1.636.544.59.892 1.318 1.046 2.174.093.462.137 1.24.137 2.375l-.004 9.335h-.166M403.486 500.562l-2.028.997-1.736.854c-1.277.673-1.914 1.394-1.914 2.16 0 .647.282 1.124.88 1.454.456.267 1.112.392 1.923.361 1.321-.032 2.679-.427 3.384-.975l.27-.213v2.691l-.113.033c-1.065.337-2.22.5-3.414.5-1.569 0-2.897-.303-3.94-.918-1.248-.716-1.883-1.778-1.883-3.155 0-1.4.7-2.577 2.091-3.472.016-.011.75-.372.75-.372l3.023-1.486c1.272-.662 1.914-1.442 1.914-2.321 0-.66-.342-1.187-1.042-1.612a3.78 3.78 0 0 0-2.01-.557c-1.632.014-3.157.419-4.547 1.226l-.3.164-.039-2.474.534-.2c1.232-.455 2.61-.688 4.093-.688 1.856 0 3.445.483 4.582 1.386 1.076.874 1.619 2.03 1.619 3.436 0 1.232-.7 2.292-2.097 3.18M435.957 508.16s-3.873-5.971-4.144-6.38c-.26.416-4.054 6.4-4.054 6.4h-3.014s5.398-8.483 5.448-8.57l-.017-6.598h2.639v6.596l5.68 8.553h-2.538M363.838 508.214s-4.056-11.097-4.35-11.914a29679 29679 0 0 0-4.272 11.914h-2.99l5.672-15.207 2.374.006 5.873 15.202H363.838M474.602 508.185l-.011-11.124-8.742 11.124h-2.276v-15.159h1.98l.007 11.334 8.866-11.321 2.18-.015v15.16h-2.004M512.294 492.99h2.673l-2.113 15.195h-3.001l-4.214-10.673-4.569 10.673h-2.962L495.9 492.99h2.152l1.582 12.207 5.228-12.19h1.208l4.75 12.27 1.474-12.287M454.94 500.658h-3.884c.155.39 1.7 4.305 1.963 4.967.254-.665 1.768-4.578 1.92-4.967zm-.432 7.569h-2.418l-6.169-15.195h2.335l2.075 5.62h5.445c.078-.211 2.118-5.62 2.118-5.62h2.899l-6.171 15.195h-.114M488.065 500.658h-3.88c.154.39 1.702 4.305 1.96 4.967.257-.665 1.772-4.578 1.92-4.967zm-.429 7.569h-2.418l-6.171-15.195h2.337l2.073 5.62h5.445l2.118-5.62h2.901l-6.172 15.195h-.113M589.303 508.185l-.008-15.178h2.615l-.003 15.178h-2.604M615.156 500.601h-3.88c.15.393 1.703 4.318 1.958 4.967.258-.659 1.778-4.574 1.922-4.967zm-.427 7.584h-2.423l-6.163-15.205h2.327l2.079 5.623h5.45l2.11-5.623h2.903l-6.17 15.205h-.113M623.616 508.178l.006-15.188h9.743l-.024 2.125-7.092-.007v13.077l-2.633-.007M595.283 508.185v-.168l-.006-1.83s3.919 0 4.23-.002v-13.173h2.614l.008 13.173 4.314-.004v2l-11.16.003M551.027 494.525c-1.575 0-2.903.665-3.94 1.956-.971 1.21-1.464 2.639-1.464 4.253 0 1.673.5 3.06 1.472 4.14.967 1.061 2.27 1.597 3.885 1.597 1.575 0 2.883-.649 3.892-1.933.926-1.192 1.398-2.651 1.398-4.338 0-1.646-.475-3.01-1.415-4.065-.975-1.071-2.265-1.61-3.828-1.61zm.104 13.916c-2.303.013-4.28-.762-5.879-2.298-1.604-1.536-2.414-3.42-2.414-5.61 0-2.3.806-4.233 2.39-5.744 1.545-1.48 3.456-2.23 5.69-2.23 2.236 0 4.161.776 5.747 2.307 1.59 1.533 2.394 3.489 2.394 5.782 0 2.108-.747 3.926-2.216 5.426-1.527 1.553-3.449 2.35-5.712 2.367M570.098 500.562l-2.03.997-1.734.854c-1.277.673-1.916 1.394-1.916 2.16 0 .647.28 1.124.882 1.454.452.267 1.11.392 1.92.361 1.326-.032 2.683-.427 3.384-.975l.274-.213v2.691l-.113.033a11.36 11.36 0 0 1-3.419.5c-1.568 0-2.894-.303-3.936-.918-1.25-.716-1.883-1.778-1.883-3.155 0-1.4.697-2.577 2.092-3.472.013-.011.747-.372.747-.372l3.024-1.486c1.271-.662 1.915-1.442 1.915-2.321 0-.66-.345-1.187-1.042-1.612a3.793 3.793 0 0 0-2.013-.557c-1.63.014-3.156.419-4.544 1.226l-.298.164-.042-2.474.532-.2c1.233-.455 2.61-.688 4.095-.688 1.855 0 3.446.483 4.582 1.386 1.076.874 1.617 2.03 1.617 3.436 0 1.232-.7 2.292-2.094 3.18M537.193 508.168l.014-5.955h-7.797l-.014 5.955h-2.586v-15.161h2.586l.014 7.272h7.797l-.014-7.272h2.618v15.16h-2.618M584.461 507.123c-.955.689-2.09 1.045-3.636 1.045h-5.18v-15.161h2.612l-.017 13.195s1.504-.014 1.95-.014c2.057 0 3.188-1.235 3.188-2.701 0-1.538-1.166-2.427-1.987-2.667-1.033-.3-2.127-.278-3.75-.261 0 0-.46-1.963.516-1.973 3.458-.02 4.88.398 6.097 1.235 1.11.77 1.763 2.409 1.763 3.703 0 1.277-.524 2.849-1.555 3.6" style="fill:#950022;fill-opacity:1;fill-rule:nonzero;stroke:none;stroke-width:.141112" transform="matrix(2.52611 0 0 -2.52611 -286.426 1475.713)"/></svg>