<svg xmlns="http://www.w3.org/2000/svg" id="_레이어_1" version="1.1" viewBox="0 0 1786.74985 264.2341836"><defs><style>.st0{fill:#1428a0}</style></defs><g id="_레이어_11"><path d="M795.34 62.91c10.843 62.132-158.295 143.486-377.809 181.72C198.036 282.863 11.318 263.465.491 201.308-10.326 139.173 158.855 57.84 378.341 19.615c219.506-38.25 406.191-18.845 417 43.295" class="st0"/><path d="m588.753 155.138-1.127-64.598h20.363v81.427h-29.285l-20.33-66.827h-.435l1.127 66.827h-20.234V90.54h30.548l18.912 64.598zM218.46 98.164l-11.27 74.657h-22.217l15.258-82.28h36.603l15.18 82.28h-22.122l-10.97-74.657zm95.96 55.276 10.16-62.9h33.562l1.785 82.281h-20.569l-.538-73.973h-.435l-13.747 73.973h-20.883L290 98.848h-.452l-.513 73.973h-20.61l1.818-82.28h33.572l10.16 62.9zm-164.094-3.834c.803 1.99.564 4.55.18 6.105-.692 2.732-2.545 5.524-8.017 5.524-5.158 0-8.29-2.954-8.29-7.48v-7.965h-22.07l-.019 6.37c0 18.34 14.447 23.88 29.917 23.88 14.882 0 27.134-5.09 29.09-18.8.998-7.113.256-11.758-.086-13.516-3.475-17.222-34.698-22.362-37.029-32-.393-1.657-.282-3.4-.086-4.339.572-2.62 2.365-5.515 7.522-5.515 4.807 0 7.65 2.971 7.65 7.47v5.08h20.517v-5.78c0-17.92-16.085-20.72-27.74-20.72-14.634 0-26.596 4.831-28.78 18.227-.599 3.698-.684 6.993.178 11.126 3.603 16.82 32.837 21.686 37.063 32.333m267.557-.146c.811 1.973.555 4.467.18 6.011-.676 2.724-2.51 5.474-7.95 5.474-5.088 0-8.188-2.955-8.188-7.369l-.017-7.897h-21.84l-.026 6.283c0 18.16 14.31 23.643 29.627 23.643 14.72 0 26.87-5.02 28.782-18.605 1-7.052.29-11.646-.069-13.37-3.449-17.068-34.366-22.157-36.67-31.694-.394-1.64-.283-3.372-.077-4.26.59-2.638 2.347-5.465 7.445-5.465 4.764 0 7.547 2.904 7.547 7.36v5.03h20.364v-5.72c0-17.735-15.958-20.51-27.493-20.51-14.472 0-26.33 4.773-28.474 18.075-.598 3.646-.657 6.882.196 10.988 3.535 16.65 32.47 21.483 36.663 32.027m69.107 11.05c5.711 0 7.496-3.955 7.888-5.97.163-.888.214-2.083.197-3.15V90.505h20.807v59.023c.042 1.512-.103 4.628-.17 5.405-1.46 15.36-13.6 20.346-28.722 20.346-15.139 0-27.288-4.987-28.73-20.346-.07-.777-.223-3.893-.17-5.405V90.506h20.788v60.884c0 1.068.034 2.263.197 3.151.435 2.015 2.17 5.968 7.915 5.968m171.64-.862c5.96 0 8.042-3.765 8.427-5.96.145-.948.195-2.09.18-3.133V138.61h-8.445v-12.013h29.174v22.087c-.017 1.537-.05 2.673-.299 5.423-1.374 14.967-14.352 20.311-28.935 20.311-14.609 0-27.578-5.344-28.97-20.31-.239-2.75-.273-3.887-.298-5.424l.025-34.646c0-1.46.188-4.047.342-5.422 1.827-15.377 14.292-20.33 28.9-20.33 14.593 0 27.365 4.918 28.877 20.33.273 2.62.18 5.422.18 5.422v2.75h-20.749v-4.61c.018.006-.025-1.957-.273-3.135-.35-1.818-1.93-5.994-8.205-5.994-5.993 0-7.752 3.954-8.188 5.994-.256 1.084-.35 2.553-.35 3.885v37.627c-.017 1.042.043 2.185.214 3.133.366 2.195 2.44 5.96 8.392 5.96" style="fill:#fff"/></g><path d="M1732.371 163.265h30.747l.017 17.322 22.16-.009V44.574l-22.081.023-.096 100.643h-30.747zM1697.066 194.759V154.17h-21.422v59.394h111.106v-18.805zM965.678 213.887h103.138v-73.082H965.678zm21.115-55.249h60.974v37.396h-60.974zM1068.465 100.202h19.044V81.907h-18.691V44.163h-21.92v89.292h21.567zM1342.689 101.608h-32.127v17.799h32.127v92.842h21.9V43.964h-21.9zM1380.596 130.497h53.048v11.095h-42.982v16.848h88.697v11.23h-88.697v44.333h110.971v-16.814h-90.273v-10.7h88.698v-44.897h-44.663v-11.095h55.038v-17.429h-129.837z" class="st0"/><path d="M1710.192 114.724c24.057 0 43.557-17.403 43.557-38.865 0-21.455-19.5-38.854-43.557-38.854-24.039 0-43.542 17.401-43.542 38.854 0 21.462 19.503 38.865 43.542 38.865m0-59.93c13.045 0 23.602 9.424 23.602 21.065s-10.559 21.076-23.602 21.076c-13.025 0-23.596-9.435-23.596-21.076s10.57-21.064 23.596-21.064M1702.395 171.067h19.696V138.62h33.395v-19.761h-96.157v19.761h43.066zM1195.886 133.455h21.565V44.163h-21.916v30.029h-27.627v18.263h27.978zM985.008 91.677c6.488 20.693 35.184 39.62 35.184 39.62l11.238-15.51c-39.174-20.068-36.306-68.397-36.306-68.397h-20.278s2.855 48.33-36.259 68.397l11.247 15.51s28.62-18.927 35.174-39.62M1162.323 132.45c-32.039 0-57.997 19.57-57.997 43.677s25.96 43.643 57.997 43.643c32.056 0 57.994-19.535 57.994-43.643s-25.936-43.677-57.994-43.677m0 68.042c-19.901 0-36.055-10.931-36.055-24.365 0-13.495 16.156-24.388 36.055-24.388 19.903 0 36.076 10.893 36.076 24.388 0 13.434-16.173 24.365-36.076 24.365M1592.157 135.191c-32.067 0-57.997 18.822-57.997 41.961 0 23.206 25.93 41.994 57.997 41.994 32.037 0 57.999-18.79 57.997-41.994 0-23.139-25.962-41.96-57.997-41.96m.002 65.27c-19.901 0-36.052-10.44-36.052-23.309 0-12.827 16.152-23.249 36.052-23.249 19.922 0 36.076 10.422 36.076 23.249 0 12.868-16.156 23.309-36.076 23.309M1294.925 126.065c-7.347-21.83-6.312-49.117-6.312-57.742V47.72h-21.976v20.605c0 8.624 1.792 35.912-5.51 57.742-5.302 15.745-16.544 32.803-32.201 44.348l13.564 13.888c.002 0 24.298-18.86 35.536-49.13 11.199 30.27 34.735 49.128 34.735 49.128l12.8-13.887c-15.662-11.548-25.406-28.604-30.636-44.35M1445.77 108.027c31.995 0 57.505-13.015 57.505-34.44 0-21.42-25.51-36.005-57.505-36.005-32.013 0-57.43 14.586-57.43 36.005 0 21.425 25.416 34.44 57.43 34.44m.422-53.147c16.055 0 36.737 5.542 36.737 18.05-.002 12.472-20.683 18.026-36.737 18.026-16.101 0-36.658-5.554-36.658-18.026 0-12.508 20.557-18.05 36.658-18.05M1130.84 91.679c6.483 20.685 32.749 38.012 32.747 38.012l11.242-15.538c-36.737-18.43-33.824-66.763-33.824-66.763h-20.346s2.935 48.333-33.814 66.763l11.236 15.538s26.26-17.325 32.76-38.012" class="st0"/><path d="M1601.823 112.405h23.895v24.963h21.57V43.544h-21.943v17.154h-23.522V44.574H1581.5V69.57h-36.028V44.574h-20.327v84.351h76.678zm-20.327-1.247h-36.024V87.315h36.024zm44.222-32.216v15.224h-23.895V78.942z" class="st0"/></svg>